<svg width="400" height="400" viewBox="0 0 400 400" fill="none" xmlns="http://www.w3.org/2000/svg">
<rect opacity="0.2" x="104" y="388" width="296" height="12" rx="6" fill="black"/>
<path fill-rule="evenodd" clip-rule="evenodd" d="M343.258 200.677C343.258 258.249 296.586 304.921 239.013 304.921C181.441 304.921 134.769 258.249 134.769 200.677C134.769 143.104 181.441 96.4327 239.013 96.4327C296.586 96.4327 343.258 143.104 343.258 200.677Z" fill="#05BF8E"/>
<path fill-rule="evenodd" clip-rule="evenodd" d="M239.14 97.6837C238.845 96.5788 237.984 96.4559 237.036 96.4693C235.905 96.4855 234.773 96.4796 233.641 96.4929C220.333 96.65 207.025 96.8094 193.716 96.9672C186.033 97.0585 178.35 97.1523 170.667 97.2346C168.766 97.2552 167.48 97.7577 167.556 100.084C167.975 102.269 168.403 104.452 168.811 106.638C169.878 112.358 170.937 118.079 171.999 123.8C172.525 126.53 173.059 129.26 173.575 131.993C174.066 134.594 174.34 134.759 176.69 133.474C191.248 125.512 205.797 117.536 220.344 109.557C226.206 106.342 232.058 103.111 237.912 99.882C239.068 99.2442 239.396 98.6372 239.14 97.6837Z" fill="#05BF8E"/>
<path fill-rule="evenodd" clip-rule="evenodd" d="M163.245 209.005L84.8669 99.56C84.2093 98.6417 84.4152 97.3648 85.3283 96.7003L93.6532 90.6374C95.1499 89.5577 95.4908 87.4497 94.4111 85.953C93.3314 84.4565 91.2233 84.1151 89.7269 85.1948L80.5891 91.8498C80.1352 92.1801 79.5004 92.0858 79.1626 91.6377L66.4065 74.7218C65.2885 73.2537 63.1725 72.9675 61.7041 74.0856C60.2359 75.2039 59.9496 77.3196 61.0676 78.7877L66.0273 85.2403L62.4617 87.7939C58.6922 90.4934 57.8169 95.7861 60.5164 99.5556L149.058 223.192C152.27 227.678 158.091 228.156 161.992 224.254C165.894 220.353 166.458 213.491 163.245 209.005Z" fill="#05BF8E"/>
<path fill-rule="evenodd" clip-rule="evenodd" d="M68.5122 104.686C73.3676 100.921 74.3715 95.987 71.1326 91.8105L66.0335 85.2361L64.1512 86.5842L69.3042 93.2286C72.8611 97.8145 68.5119 101.759 67.0939 102.858C66.5353 103.292 65.4335 104.055 64.0874 104.542L65.4939 106.505C66.4957 106.07 67.5075 105.466 68.5122 104.686Z" fill="#07815C"/>
<path fill-rule="evenodd" clip-rule="evenodd" d="M321.536 137.042L242.126 26.1568C241.468 25.2385 241.674 23.9619 242.587 23.2971L250.912 17.2342C252.409 16.1545 252.75 14.0467 251.67 12.55C250.59 11.0533 248.483 10.7119 246.986 11.7916L237.848 18.4466C237.394 18.7769 236.759 18.6826 236.422 18.2345L223.665 1.31864C222.547 -0.149524 220.431 -0.435649 218.963 0.682373C217.495 1.80065 217.209 3.91664 218.327 5.38455L223.286 11.8371L219.721 14.3907C215.951 17.0902 215.076 22.3829 217.775 26.1524L305.442 148.567C308.612 152.993 314.826 154.021 319.251 150.851C323.677 147.682 324.705 141.467 321.536 137.042Z" fill="#05BF8E"/>
<path fill-rule="evenodd" clip-rule="evenodd" d="M313.177 255.731L312.162 254.944C307.859 251.609 301.61 252.401 298.275 256.704L248.626 320.766C248.394 321.059 248.178 321.363 247.983 321.677C247.134 323.037 246.656 324.545 246.529 326.069C246.525 326.113 246.52 326.158 246.517 326.202C246.512 326.276 246.509 326.35 246.505 326.425C246.5 326.524 246.495 326.624 246.493 326.724C246.493 326.742 246.493 326.76 246.493 326.779C246.463 328.676 246.973 330.594 248.066 332.285C248.141 332.402 248.218 332.518 248.298 332.631L281.631 379.977C281.87 380.317 281.628 380.786 281.212 380.787L266.205 380.841C263.147 380.852 260.654 383.363 260.665 386.421L260.673 388.609C260.684 391.558 263.105 393.963 266.054 393.952L304.566 393.814C306.168 393.809 307.475 392.493 307.469 390.891L307.443 383.58C307.53 381.477 306.957 379.332 305.659 377.488L270.28 327.237L314.937 269.618C318.272 265.315 317.48 259.066 313.177 255.731Z" fill="#05BF8E"/>
<path fill-rule="evenodd" clip-rule="evenodd" d="M218.869 283.406L218.007 282.453C214.357 278.414 208.067 278.096 204.028 281.746L107.043 369.395C106.2 370.157 104.9 370.091 104.138 369.248L92.0087 355.827C89.958 353.558 86.424 353.379 84.1553 355.43L82.5316 356.897C80.3433 358.874 80.1711 362.282 82.1485 364.47L107.971 393.043C109.045 394.232 110.897 394.326 112.086 393.251L218.162 297.386C222.201 293.736 222.519 287.445 218.869 283.406Z" fill="#05BF8E"/>
<path fill-rule="evenodd" clip-rule="evenodd" d="M267.995 147.247C264.879 145.158 261.289 143.86 257.327 143.388C253.68 142.953 249.812 143.263 246.139 144.284C242.643 145.255 239.358 146.862 236.64 148.931C233.854 151.052 231.658 153.671 230.276 156.516C229.957 156.906 229.865 157.457 230.087 157.947C230.398 158.636 231.211 158.943 231.9 158.632C238.393 155.698 251.754 153.777 259.967 161.107C260.319 161.421 260.787 161.521 261.212 161.415C261.47 161.351 261.712 161.211 261.903 160.998C262.407 160.433 262.357 159.566 261.793 159.062C257.633 155.35 251.915 153.352 245.256 153.283C241.703 153.246 237.943 153.773 234.606 154.739C235.634 153.42 236.877 152.196 238.3 151.112C240.744 149.252 243.709 147.804 246.873 146.925C250.204 145.999 253.707 145.717 257.003 146.11C260.531 146.53 263.716 147.679 266.468 149.524C267.097 149.946 267.948 149.778 268.37 149.149C268.792 148.52 268.624 147.669 267.995 147.247Z" fill="#131313"/>
<path fill-rule="evenodd" clip-rule="evenodd" d="M212.949 160.82C210.396 158.953 207.23 157.667 203.775 157.097C200.405 156.54 196.75 156.657 193.205 157.435C189.482 158.252 185.919 159.789 182.899 161.879C179.618 164.151 177.054 166.978 175.278 170.282C174.92 170.949 175.17 171.78 175.837 172.139C176.503 172.497 177.334 172.247 177.693 171.58C179.262 168.661 181.538 166.156 184.46 164.133C187.188 162.244 190.415 160.853 193.793 160.112C197 159.408 200.298 159.301 203.329 159.801C205.093 160.092 206.765 160.592 208.29 161.277C204.889 161.985 201.32 163.279 198.198 164.974C192.346 168.152 188.227 172.594 186.288 177.821C186.025 178.531 186.387 179.319 187.097 179.583C187.365 179.682 187.645 179.693 187.903 179.628C188.328 179.523 188.695 179.216 188.859 178.774C192.687 168.452 205.394 163.897 212.504 163.45C213.26 163.403 213.833 162.752 213.786 161.997C213.752 161.46 213.413 161.016 212.949 160.82Z" fill="#131313"/>
<path fill-rule="evenodd" clip-rule="evenodd" d="M233.482 180.231L224.032 182.579C221.981 183.088 220.091 183.004 218.568 182.336C216.591 181.469 215.262 179.713 214.618 177.118C214.128 175.147 214.485 173.096 215.623 171.344C216.728 169.644 218.423 168.438 220.397 167.947L229.846 165.599C230.581 165.417 231.324 165.864 231.507 166.599C231.69 167.334 231.242 168.077 230.507 168.26L221.058 170.607C219.779 170.925 218.636 171.738 217.922 172.837C217.202 173.945 216.973 175.231 217.278 176.457C217.713 178.209 218.495 179.311 219.669 179.826C220.887 180.36 222.354 180.171 223.371 179.919L232.821 177.571C233.555 177.388 234.299 177.836 234.482 178.57C234.664 179.305 234.216 180.049 233.482 180.231Z" fill="#131313"/>
<path fill-rule="evenodd" clip-rule="evenodd" d="M259.577 179.278C249.789 178.487 247.119 186.426 229.369 190.836C211.619 195.246 205.544 189.48 197.264 194.76C191.255 198.592 188.978 205.629 190.199 210.544C193.053 222.03 211.484 231.516 237.849 224.966C264.213 218.416 276.061 201.407 273.208 189.921C271.986 185.006 266.681 179.853 259.577 179.278Z" fill="#131313"/>
<path fill-rule="evenodd" clip-rule="evenodd" d="M170.401 152.123C170.013 152.219 169.586 152.146 169.242 151.885C168.639 151.428 168.52 150.569 168.977 149.965C174.302 142.937 179.293 139.45 189.517 135.614C190.225 135.348 191.015 135.707 191.281 136.416C191.547 137.125 191.188 137.915 190.48 138.181C185.433 140.074 181.908 141.805 179.052 143.791C176.191 145.78 173.758 148.195 171.162 151.621C170.966 151.88 170.694 152.05 170.401 152.123Z" fill="#131313"/>
<path fill-rule="evenodd" clip-rule="evenodd" d="M264.213 128.659C263.919 128.732 263.6 128.708 263.305 128.571C259.408 126.758 256.127 125.763 252.668 125.344C249.214 124.925 245.29 125.046 239.943 125.735C239.193 125.831 238.506 125.301 238.409 124.55C238.313 123.799 238.842 123.113 239.593 123.016C250.423 121.621 256.466 122.367 264.461 126.086C265.148 126.405 265.445 127.22 265.125 127.906C264.944 128.297 264.601 128.562 264.213 128.659Z" fill="#131313"/>
</svg>
