<svg width="44" height="44" viewBox="0 0 44 44" fill="none" xmlns="http://www.w3.org/2000/svg">
<circle cx="22" cy="22" r="20.75" fill="white" stroke="black" stroke-width="2.5"/>
<circle cx="30.25" cy="22" r="2.75" fill="black"/>
<circle cx="13.75" cy="22" r="2.75" fill="black"/>
<path fill-rule="evenodd" clip-rule="evenodd" d="M17.6728 33.718C17.2794 34.3609 16.4404 34.5676 15.7928 34.1791C15.1416 33.7883 14.9305 32.9437 15.3212 32.2926L16.5 32.9999C15.3212 32.2926 15.3215 32.292 15.3219 32.2913L15.3227 32.2901L15.3243 32.2873L15.3282 32.281L15.3378 32.2654C15.3451 32.2537 15.3542 32.2393 15.3651 32.2225C15.3868 32.1888 15.4158 32.1453 15.4522 32.0933C15.5249 31.9895 15.6276 31.8511 15.7619 31.6901C16.0296 31.3688 16.4276 30.9509 16.9681 30.5351C18.0594 29.6957 19.722 28.875 22.0002 28.875C24.2784 28.875 25.941 29.6957 27.0323 30.5351C27.5728 30.9509 27.9708 31.3688 28.2385 31.6901C28.3728 31.8511 28.4755 31.9895 28.5482 32.0933C28.5846 32.1453 28.6136 32.1888 28.6354 32.2225C28.6462 32.2393 28.6553 32.2537 28.6626 32.2654L28.6723 32.281L28.6761 32.2873L28.6778 32.2901L28.6785 32.2913C28.6789 32.292 28.6793 32.2926 27.5002 33L28.6793 32.2926C29.07 32.9437 28.8588 33.7883 28.2076 34.1791C27.56 34.5676 26.721 34.3609 26.3276 33.718C26.3272 33.7174 26.3267 33.7167 26.3261 33.7158C26.3218 33.7091 26.3116 33.6936 26.2953 33.6703C26.2628 33.6238 26.2065 33.5473 26.1259 33.4506C25.964 33.2562 25.7089 32.9866 25.3556 32.7149C24.6594 32.1793 23.572 31.625 22.0002 31.625C20.4284 31.625 19.341 32.1793 18.6448 32.7149C18.2915 32.9866 18.0365 33.2562 17.8745 33.4506C17.7939 33.5473 17.7377 33.6238 17.7051 33.6703C17.6888 33.6936 17.6786 33.7091 17.6743 33.7158C17.6737 33.7167 17.6732 33.7174 17.6728 33.718C17.6728 33.718 17.6728 33.718 17.6728 33.718ZM26.3218 33.7086C26.3218 33.7086 26.3218 33.7086 26.3218 33.7086L26.3219 33.7086C26.3219 33.7086 26.3219 33.7086 26.3218 33.7086Z" fill="black"/>
</svg>
