<svg width="1024" height="550" viewBox="0 0 1024 550" fill="none" xmlns="http://www.w3.org/2000/svg">
<g clip-path="url(#clip0)">
<rect width="1024" height="550" fill="#EDF05D"/>
<path d="M699.02 291.38C734.01 291.38 766.9 305 791.64 329.74C807.47 345.57 818.74 364.73 824.82 385.64H573.23C579.3 364.73 590.58 345.56 606.41 329.74C631.15 305 664.04 291.38 699.02 291.38ZM699.02 227.42C591.36 227.42 504.09 314.7 504.09 422.35V449.59H893.96V422.35C893.96 314.7 806.68 227.42 699.02 227.42Z" fill="black"/>
<path d="M31.4102 215.46V476.28H472.4L31.4102 215.46ZM89.3902 320.65L257.39 420.01H89.3902V320.65Z" fill="#96AE31"/>
<path d="M87.4395 273.52L98.3794 255" stroke="black" stroke-width="3.5" stroke-miterlimit="10"/>
<path d="M118.549 284.93L126.439 271.58" stroke="black" stroke-width="3.5" stroke-miterlimit="10"/>
<path d="M143.559 306.67L154.499 288.16" stroke="black" stroke-width="3.5" stroke-miterlimit="10"/>
<path d="M174.67 318.08L182.56 304.73" stroke="black" stroke-width="3.5" stroke-miterlimit="10"/>
<path d="M199.68 339.82L210.62 321.31" stroke="black" stroke-width="3.5" stroke-miterlimit="10"/>
<path d="M230.799 351.23L238.679 337.88" stroke="black" stroke-width="3.5" stroke-miterlimit="10"/>
<path d="M255.809 372.97L266.739 354.46" stroke="black" stroke-width="3.5" stroke-miterlimit="10"/>
<path d="M582.859 166.14L643.329 10.6501" stroke="black" stroke-width="3.5" stroke-miterlimit="10"/>
<path d="M632.18 6.31006L655.34 15.3201" stroke="black" stroke-width="3.5" stroke-miterlimit="10"/>
<path d="M571.699 161.8L594.869 170.81" stroke="black" stroke-width="3.5" stroke-miterlimit="10"/>
<path d="M600.639 80.5401L597.609 88.3301L593.699 86.8101L596.529 79.5401C597.009 78.3201 596.609 77.2701 595.469 76.8201C594.639 76.5001 593.749 76.5801 593.049 77.0501C593.019 77.2001 592.949 77.3601 592.889 77.5301L589.859 85.3201L585.949 83.8001L588.779 76.5301C589.259 75.3101 588.859 74.2601 587.719 73.8101C586.889 73.4901 586.019 73.5801 585.329 74.0201L582.109 82.3101L578.199 80.7901L583.219 67.8901L586.999 69.3601L586.369 70.9801C587.379 70.0401 588.869 69.8101 590.439 70.4201C592.039 71.0401 593.029 72.2101 593.349 73.7201C594.769 72.9201 596.559 72.8001 598.199 73.4401C600.969 74.5101 601.909 77.2701 600.639 80.5401Z" fill="black"/>
<path d="M33.3698 519.1C68.1804 519.1 96.3998 490.881 96.3998 456.07C96.3998 421.26 68.1804 393.04 33.3698 393.04C-1.44067 393.04 -29.6602 421.26 -29.6602 456.07C-29.6602 490.881 -1.44067 519.1 33.3698 519.1Z" stroke="black" stroke-width="3.5" stroke-miterlimit="10"/>
<path d="M33.3691 456.07L68.9891 405.04" stroke="black" stroke-width="3.5" stroke-miterlimit="10"/>
<path d="M34.0401 421.49L40.9401 426.35L38.5001 429.81L27.0801 421.77L29.4301 418.43L30.9901 419.53C30.4501 417.78 31.0301 415.84 32.1101 414.13L35.8701 416.36C34.4301 418.4 33.7901 420.24 34.0401 421.49Z" fill="black"/>
<path d="M932.889 458.4L1034.93 387.53L1034.02 307.84L717.109 527.95H1036.53L1035.74 458.4H932.889Z" fill="#96AE31"/>
<path d="M785.95 169.08C772.12 169.14 758.38 163.21 748.92 151.69C732.24 131.38 735.19 101.39 755.5 84.7203C775.81 68.0403 805.8 70.9903 822.47 91.3003C832.31 103.29 835.32 118.64 831.96 132.64" stroke="black" stroke-width="3.5" stroke-miterlimit="10"/>
<path d="M907.341 182.35C866.721 145.96 822.111 123.76 787.721 119.91L982.531 294.4C974.931 260.64 947.961 218.74 907.341 182.35Z" fill="#307ACF"/>
<path d="M790.671 120.198L788.336 122.805L1004.08 316.047L1006.42 313.439L790.671 120.198Z" fill="#307ACF"/>
<path d="M820.29 253.81C792.51 206.88 779.42 158.8 782.34 124.32L915.55 349.38C883.92 335.36 848.07 300.75 820.29 253.81Z" fill="#307ACF"/>
<path d="M784.811 124.952L781.799 126.735L929.627 376.481L932.639 374.698L784.811 124.952Z" fill="#307ACF"/>
<path d="M782.705 130.692L793.363 121.942L735.313 51.2298L724.655 59.9795L782.705 130.692Z" fill="#307ACF"/>
<path d="M987.679 99.86L861.109 63.81L843.109 127.01L969.679 163.06L1032.88 181.06L1050.89 117.86L1086.93 -8.70996L1023.73 -26.71L987.679 99.86Z" fill="#4F8011"/>
<path d="M950.859 157.73L960.199 124.96" stroke="black" stroke-width="3.5" stroke-miterlimit="10"/>
<path d="M866.42 133.77L875.75 101" stroke="black" stroke-width="3.5" stroke-miterlimit="10"/>
<path d="M886.41 139.44L892.02 119.77" stroke="black" stroke-width="3.5" stroke-miterlimit="10"/>
<path d="M929.949 151.8L935.549 132.12" stroke="black" stroke-width="3.5" stroke-miterlimit="10"/>
<path d="M908.721 145.78L918.061 113" stroke="black" stroke-width="3.5" stroke-miterlimit="10"/>
<path d="M570.981 471.79C570.981 468.81 568.541 466.37 565.551 466.37C565.551 466.37 553.181 466.37 548.051 466.37C546.841 466.37 545.871 465.39 545.861 464.19L545.691 374.86C545.681 370.76 543.241 367.07 539.481 365.45C535.721 363.84 531.351 364.62 528.381 367.43L434.531 456.39C430.421 460.29 430.251 466.78 434.141 470.89C438.041 475 444.531 475.17 448.641 471.28L524.301 399.56C524.651 399.23 525.221 399.48 525.221 399.96L525.351 468.4C525.341 468.54 525.331 468.68 525.331 468.78C525.331 471.76 525.321 476.32 525.321 476.32C525.321 477.88 526.601 479.16 528.161 479.16H565.741C568.621 479.16 570.971 476.81 570.971 473.93L570.981 471.79Z" fill="#05BF8E"/>
<path d="M357.301 299.22L424.181 232.34C427.451 229.08 432.611 228.79 436.201 231.49C437.721 232.61 438.921 234.2 439.521 236.14L474.781 349.06C476.291 353.89 473.571 359.07 468.741 360.58C463.941 362.18 458.781 359.54 457.271 354.71L426.701 256.81C426.591 256.47 426.161 256.36 425.911 256.61L370.291 312.23C366.711 315.81 360.861 315.81 357.281 312.23C353.731 308.64 353.731 302.79 357.301 299.22Z" fill="#05BF8E"/>
<path d="M239.08 428.61C236.38 425.01 236.67 419.85 239.93 416.59L306.81 349.7C310.39 346.12 316.24 346.12 319.82 349.7C323.4 353.28 323.4 359.13 319.82 362.71L264.2 418.33C263.95 418.58 264.05 419.02 264.4 419.12L362.3 449.69C367.13 451.2 369.77 456.36 368.17 461.16C366.66 465.99 361.48 468.7 356.65 467.2L243.73 431.94C241.79 431.33 240.2 430.14 239.08 428.61Z" fill="#05BF8E"/>
<path d="M396.071 485.51C449.565 485.51 492.931 442.144 492.931 388.65C492.931 335.156 449.565 291.79 396.071 291.79C342.577 291.79 299.211 335.156 299.211 388.65C299.211 442.144 342.577 485.51 396.071 485.51Z" fill="#05BF8E"/>
<path d="M314.101 339.27C313.411 338.47 313.771 337.74 314.271 337.03C314.871 336.17 315.461 335.3 316.061 334.45C323.141 324.36 330.211 314.27 337.291 304.18C341.381 298.35 345.461 292.53 349.541 286.7C350.551 285.26 351.611 284.54 353.341 285.81C354.791 287.27 356.241 288.74 357.691 290.19C361.501 294 365.321 297.79 369.141 301.6C370.951 303.43 372.761 305.26 374.581 307.09C376.311 308.82 376.291 309.12 374.081 310.25C360.391 317.22 346.681 324.17 332.981 331.12C327.461 333.92 321.931 336.71 316.401 339.49C315.331 340.03 314.701 339.96 314.101 339.27Z" fill="#05BF8E"/>
<path d="M306.811 349.71C307.091 349.43 307.391 349.17 307.701 348.93C302.801 359.83 300.031 371.45 299.361 383.17L297.111 385.42C297.471 374.15 299.741 363.12 303.771 352.75L306.811 349.71Z" fill="#07815C"/>
<path d="M390.58 291.95C381.77 292.45 373.01 294.14 364.57 297.03C363.72 296.18 362.87 295.34 362.02 294.49L363.54 292.97C363.96 293.39 364.38 293.81 364.8 294.23L365.14 294.57C374.13 291.62 383.45 289.99 392.83 289.69L390.58 291.95Z" fill="#07815C"/>
<path d="M382.63 385.39C386.91 376.77 394.93 378.54 407.61 365.87C420.29 353.2 418.51 345.18 427.13 340.89C433.39 337.78 440.45 339.43 443.96 342.94C452.16 351.14 450.81 371.41 431.98 390.24C413.15 409.07 392.88 410.42 384.68 402.22C381.17 398.71 379.52 391.65 382.63 385.39Z" fill="#131313"/>
<path d="M394.841 363.63L405.791 352.68C407.081 351.39 407.861 349.95 408.051 348.52C408.291 346.67 407.581 344.9 405.941 343.26C404.701 342.02 403.021 341.37 401.211 341.43C399.461 341.49 397.811 342.21 396.561 343.45L385.611 354.4C385.151 354.86 385.151 355.61 385.611 356.08C386.071 356.54 386.821 356.54 387.291 356.08L398.241 345.13C399.051 344.32 400.161 343.84 401.291 343.8C402.431 343.76 403.491 344.17 404.261 344.94C405.361 346.04 405.831 347.12 405.691 348.22C405.541 349.36 404.751 350.37 404.111 351.01L393.161 361.96C392.701 362.42 392.701 363.17 393.161 363.64C393.621 364.11 394.371 364.1 394.841 363.63Z" fill="#131313"/>
<path d="M408.05 329.43C412.44 325.04 415.3 320.11 416.14 315.47C416.26 314.83 415.83 314.21 415.18 314.09C414.54 313.97 413.92 314.4 413.8 315.05C413.4 317.27 412.47 319.57 411.03 321.91C409.66 324.14 407.9 326.29 405.8 328.31C401.63 332.31 396.68 335.22 392.23 336.29C391.59 336.44 391.2 337.08 391.36 337.72C391.51 338.36 392.15 338.75 392.79 338.59C397.64 337.42 402.98 334.29 407.45 330.02C407.65 329.83 407.85 329.63 408.05 329.43Z" fill="#131313"/>
<path d="M370.89 366.59C371.09 366.39 371.29 366.19 371.48 365.99C375.76 361.53 378.88 356.18 380.05 351.33C380.2 350.69 379.81 350.05 379.18 349.9C378.54 349.75 377.9 350.14 377.75 350.77C376.67 355.23 373.77 360.17 369.77 364.34C367.76 366.44 365.6 368.2 363.37 369.57C361.03 371.01 358.72 371.94 356.51 372.34C355.87 372.46 355.44 373.07 355.55 373.72C355.67 374.36 356.28 374.79 356.93 374.68C361.57 373.84 366.5 370.98 370.89 366.59Z" fill="#131313"/>
<path d="M405.421 304.49C405.661 304.25 405.801 303.9 405.761 303.52C405.691 302.87 405.111 302.4 404.451 302.47C396.241 303.35 387.881 307.57 380.911 314.36L380.901 314.37C380.441 314.83 380.441 315.57 380.891 316.04C381.351 316.51 382.101 316.52 382.571 316.06C389.161 309.64 397.021 305.65 404.701 304.83C404.981 304.81 405.231 304.68 405.421 304.49Z" fill="#131313"/>
<path d="M345.951 363.96C346.131 363.78 346.261 363.53 346.291 363.25C347.111 355.57 351.101 347.71 357.521 341.12C357.981 340.65 357.971 339.9 357.501 339.44C357.031 338.99 356.291 338.99 355.831 339.45L355.821 339.46C349.031 346.43 344.811 354.79 343.931 363C343.861 363.65 344.331 364.24 344.981 364.31C345.361 364.34 345.711 364.2 345.951 363.96Z" fill="#131313"/>
<path d="M381.391 476.33V475.14C381.381 470.08 385.511 465.93 390.561 465.92L522.841 465.75L590.321 465.59C591.381 465.59 592.231 464.73 592.231 463.67L592.191 446.86C592.181 444.02 594.501 441.69 597.341 441.68H599.371C602.111 441.67 604.361 443.91 604.361 446.65L604.451 482.43C604.451 483.92 603.241 485.14 601.751 485.14L595.021 485.16L522.881 485.33L390.601 485.5C385.551 485.52 381.411 481.39 381.391 476.33Z" fill="#05BF8E"/>
<path d="M729.956 125.613L475.621 221.757L499.086 283.83L753.421 187.686L729.956 125.613Z" fill="#F8F8CB"/>
<path d="M698.949 137.4L704.559 152.24" stroke="black" stroke-width="3.5" stroke-miterlimit="10"/>
<path d="M506.699 210.1L512.299 224.92" stroke="black" stroke-width="3.5" stroke-miterlimit="10"/>
<path d="M538.699 197.89L547.859 222.12" stroke="black" stroke-width="3.5" stroke-miterlimit="10"/>
<path d="M602.799 173.66L611.939 197.89" stroke="black" stroke-width="3.5" stroke-miterlimit="10"/>
<path d="M666.879 149.43L676.029 173.67" stroke="black" stroke-width="3.5" stroke-miterlimit="10"/>
<path d="M570.779 185.86L576.389 200.69" stroke="black" stroke-width="3.5" stroke-miterlimit="10"/>
<path d="M634.859 161.63L640.469 176.47" stroke="black" stroke-width="3.5" stroke-miterlimit="10"/>
<path d="M685.11 187.308C686.059 186.223 686.382 184.936 685.886 183.631C685.048 181.423 682.379 180.702 679.616 181.753C676.603 182.898 675.093 185.514 676.04 188.12L679.531 187.078C679.294 186.048 679.751 185.172 680.692 184.814C681.517 184.501 682.287 184.735 682.542 185.407C682.797 186.079 682.463 186.645 681.542 186.995L680.564 187.367L681.687 190.322L682.723 189.928C683.74 189.542 684.503 189.757 684.795 190.525C685.109 191.35 684.569 192.126 683.686 192.462C682.611 192.87 681.658 192.442 681.11 191.464L677.751 193.026C678.851 195.749 681.835 196.723 684.983 195.527C687.938 194.404 689.41 191.977 688.542 189.694C687.995 188.254 686.74 187.436 685.11 187.308Z" fill="black"/>
<path d="M621.059 213.566C621.434 212.589 622.258 210.365 621.485 208.331C620.566 205.913 617.88 205.088 615.04 206.168C611.892 207.364 610.552 210.136 611.639 212.996L615.298 211.934C614.969 210.72 615.325 209.75 616.246 209.399C617.071 209.086 617.786 209.407 618.107 210.251C618.465 211.192 618.123 212.2 617.95 212.727L614.883 221.822L625.036 217.963L623.869 214.892L619.992 216.366L621.059 213.566Z" fill="black"/>
<path d="M547.782 233.803L549.73 236.445L551.874 234.861L555.456 244.284L558.968 242.949L553.789 229.323L547.782 233.803Z" fill="black"/>
</g>
<defs>
<clipPath id="clip0">
<rect width="1024" height="550" fill="white"/>
</clipPath>
</defs>
</svg>
