<svg width="221" height="200" viewBox="0 0 221 200" fill="none" xmlns="http://www.w3.org/2000/svg">
<g clip-path="url(#clip0)">
<rect x="5.5" width="200" height="200" rx="100" fill="#94DBF2"/>
<path fill-rule="evenodd" clip-rule="evenodd" d="M85.4947 7.966C89.097 6.7861 93.01 8.76799 94.1899 12.3703C95.3699 15.9727 93.388 19.8854 89.7855 21.0655L78.2608 24.8406L86.8624 27.1129C88.1051 27.4405 88.8537 28.7251 88.5263 29.9678C88.1987 31.2106 86.9139 31.9592 85.6714 31.6318L70.0927 27.5162L16.2039 45.1681L33.5173 86.9781C40.422 58.4982 64.1231 36.5822 93.5414 32.3091L94.2621 30.4986L94.2643 30.4931L94.2657 30.4894C95.3255 27.827 96.3852 25.1647 97.442 22.5012C97.8349 21.5113 98.2215 20.5188 98.6081 19.5263L98.6087 19.5248L98.6105 19.5202L98.612 19.5164L98.6132 19.5134C98.7857 19.0706 98.9582 18.6277 99.1312 18.1851C99.9477 16.7895 100.89 16.9705 102.014 17.6622C105.663 19.9067 109.314 22.1469 112.966 24.3871L112.967 24.388L112.972 24.391L115.659 26.0393C118.831 27.9858 122.003 29.9321 125.176 31.8784L125.411 32.0227C130.039 34.8625 134.668 37.7023 139.297 40.5427C139.61 40.7351 139.922 40.93 140.234 41.1249L140.235 41.1251C140.589 41.3467 140.944 41.5682 141.301 41.7861C141.431 41.8654 141.555 41.9471 141.667 42.0354C152.078 48.352 160.775 57.213 166.894 67.7556L218.586 116.942C221.332 119.556 221.441 123.94 218.828 126.686C217.888 127.674 216.717 128.319 215.477 128.62L186.397 140.031L187.703 154.196C188.051 157.971 185.247 161.344 181.473 161.692C177.698 162.04 174.325 159.236 173.977 155.462L173.109 146.05L170.708 152.638C170.268 153.845 168.921 154.474 167.713 154.035C166.505 153.595 165.877 152.247 166.316 151.04L172.348 134.492C172.454 133.988 172.617 133.502 172.828 133.042C173.486 131.256 174.87 129.747 176.77 129.001L201.192 119.419L176.161 95.6013C176.49 98.4028 176.659 101.253 176.659 104.143C176.659 132.482 160.419 157.029 136.738 168.984V206.361V211.194V249.325V250.578V265.466C136.738 266.582 135.825 267.495 134.709 267.495H107.891C105.837 267.495 104.157 265.815 104.157 263.761V262.237C104.157 260.108 105.899 258.365 108.029 258.365H122.285C122.654 258.365 122.954 258.066 122.954 257.697V250.578V249.325V211.194V206.361V174.253C116.932 175.871 110.6 176.734 104.067 176.734C97.7283 176.734 91.5791 175.921 85.7181 174.395V206.361V211.194V249.325V250.578V265.466C85.7181 266.582 84.8051 267.495 83.6895 267.495H56.8711C54.8174 267.495 53.1371 265.815 53.1371 263.761V262.237C53.1371 260.108 54.8795 258.365 57.0091 258.365H71.2656C71.6347 258.365 71.9338 258.066 71.9338 257.697V250.578V249.325V211.194V206.361V169.252C54.5816 160.672 41.1521 145.36 35.0582 126.728L0.65833 43.6563C-0.338433 41.2489 0.143121 38.5819 1.6789 36.6786C2.49396 35.619 3.62194 34.7846 4.98086 34.3394L68.6526 13.4829H68.6528L85.4947 7.966Z" fill="#05BF8E"/>
<path fill-rule="evenodd" clip-rule="evenodd" d="M96.5442 97.9332C96.5161 97.9332 88.6138 97.2853 88.6138 97.2853C88.1203 97.2393 87.7576 96.8018 87.8038 96.3082C87.85 95.8148 88.2878 95.4518 88.7808 95.4981L96.6266 96.1421C97.1201 96.1883 97.4828 96.6256 97.4366 97.1192C97.3933 97.5843 97.0021 97.9332 96.5442 97.9332Z" fill="#131313"/>
<path fill-rule="evenodd" clip-rule="evenodd" d="M97.323 71.663C97.323 64.6414 91.6308 58.9492 84.6093 58.9492C77.5877 58.9492 71.8955 64.6414 71.8955 71.663C71.8955 78.6845 77.5877 84.3767 84.6093 84.3767C91.6308 84.3767 97.323 78.6845 97.323 71.663Z" fill="white"/>
<path fill-rule="evenodd" clip-rule="evenodd" d="M88.5842 67.6748C88.5842 64.0952 85.6823 61.1934 82.1026 61.1934C78.5229 61.1934 75.6211 64.0952 75.6211 67.6748C75.6211 71.2546 78.5229 74.1565 82.1026 74.1565C85.6823 74.1565 88.5842 71.2546 88.5842 67.6748Z" fill="#131313"/>
<path fill-rule="evenodd" clip-rule="evenodd" d="M135.514 71.663C135.514 64.6414 129.822 58.9492 122.801 58.9492C115.779 58.9492 110.087 64.6414 110.087 71.663C110.087 78.6845 115.779 84.3767 122.801 84.3767C129.822 84.3767 135.514 78.6845 135.514 71.663Z" fill="white"/>
<path fill-rule="evenodd" clip-rule="evenodd" d="M126.775 67.6748C126.775 64.0952 123.874 61.1934 120.294 61.1934C116.714 61.1934 113.812 64.0952 113.812 67.6748C113.812 71.2546 116.714 74.1565 120.294 74.1565C123.874 74.1565 126.775 71.2546 126.775 67.6748Z" fill="#131313"/>
<path fill-rule="evenodd" clip-rule="evenodd" d="M109.189 86.1707H97.4788C96.095 86.1707 94.9074 85.8191 94.0447 85.1537C92.9257 84.2909 92.3584 82.9654 92.3584 81.2143C92.3584 79.8844 92.9092 78.6375 93.9092 77.7038C94.8793 76.7977 96.1471 76.2988 97.4788 76.2988H109.189C109.685 76.2988 110.087 76.7005 110.087 77.1962C110.087 77.6919 109.685 78.0937 109.189 78.0937H97.4788C96.6163 78.0937 95.7617 78.4297 95.1342 79.0156C94.5018 79.6063 94.1532 80.387 94.1532 81.2143C94.1532 82.3963 94.4762 83.22 95.1407 83.7323C95.8304 84.2642 96.7928 84.3759 97.4788 84.3759H109.189C109.685 84.3759 110.087 84.7776 110.087 85.2733C110.087 85.7688 109.685 86.1707 109.189 86.1707Z" fill="#131313"/>
<path fill-rule="evenodd" clip-rule="evenodd" d="M84.0398 57.0526C83.1345 57.0526 82.2296 57.0105 81.3284 56.9263C79.3324 56.7398 77.3361 56.337 75.5556 55.7618C74.0558 55.2772 72.7216 54.6741 71.799 54.064C71.3854 53.7907 71.2721 53.2338 71.5455 52.8204C71.8188 52.4071 72.3756 52.2936 72.7889 52.5669C74.2178 53.5118 77.3553 54.7524 81.4952 55.1392C84.9259 55.4598 90.2168 55.2715 95.9406 52.5546C96.3884 52.3421 96.9238 52.5327 97.1363 52.9805C97.3488 53.4282 97.1581 53.9636 96.7104 54.1761C94.1097 55.4106 91.3743 56.259 88.5802 56.6981C87.0773 56.9342 85.5582 57.0526 84.0398 57.0526Z" fill="#131313"/>
<path fill-rule="evenodd" clip-rule="evenodd" d="M134.766 58.948C134.572 58.948 134.377 58.8857 134.213 58.7572C131.864 56.9176 129.027 55.5916 125.783 54.8163C123.008 54.1534 119.991 53.8992 116.813 54.0609C116.318 54.0856 115.897 53.705 115.871 53.21C115.846 52.715 116.227 52.2934 116.722 52.2682C120.07 52.0979 123.259 52.3679 126.2 53.0705C129.698 53.9064 132.766 55.344 135.32 57.344C135.71 57.6496 135.779 58.2135 135.473 58.6039C135.296 58.8299 135.032 58.948 134.766 58.948Z" fill="#131313"/>
</g>
<path fill-rule="evenodd" clip-rule="evenodd" d="M218.573 117.084L164.704 65.3832C161.941 62.7322 157.531 62.8426 154.902 65.6287C152.274 68.4148 152.383 72.8636 155.145 75.5146L201.076 119.596L176.51 129.318C174.599 130.075 173.207 131.606 172.545 133.417C172.332 133.885 172.169 134.377 172.062 134.889L165.995 151.678C165.553 152.903 166.185 154.27 167.4 154.716C168.615 155.162 169.97 154.524 170.412 153.299L172.828 146.615L173.7 156.164C174.051 159.994 177.444 162.839 181.241 162.486C185.037 162.132 187.858 158.71 187.507 154.881L186.194 140.509L215.446 128.932C216.693 128.626 217.87 127.972 218.816 126.97C221.444 124.183 221.335 119.735 218.573 117.084Z" fill="#05BF8E"/>
<path fill-rule="evenodd" clip-rule="evenodd" d="M94.6577 12.4011C93.472 8.7754 89.5396 6.78066 85.9193 7.96821L68.9937 13.5209H68.9935L5.00495 34.5126C3.63928 34.9607 2.50569 35.8005 1.68657 36.867C0.143153 38.7826 -0.340796 41.4669 0.660925 43.8899L36.1502 129.721C37.6077 133.246 41.6798 134.935 45.1995 133.476C48.7192 132.016 50.4066 127.938 48.949 124.413L16.2838 45.4115L70.4406 27.6452L86.0969 31.7874C87.3456 32.117 88.6368 31.3635 88.966 30.1127C89.2951 28.8619 88.5427 27.5689 87.2938 27.2392L78.6494 24.9522L90.2315 21.1527C93.8519 19.9649 95.8437 16.0268 94.6577 12.4011Z" fill="#05BF8E"/>
<defs>
<clipPath id="clip0">
<rect x="5.5" width="200" height="200" rx="100" fill="white"/>
</clipPath>
</defs>
</svg>
