<svg width="400" height="400" viewBox="0 0 400 400" fill="none" xmlns="http://www.w3.org/2000/svg">
<g clip-path="url(#clip0)">
<path fill-rule="evenodd" clip-rule="evenodd" d="M306.439 142.708C306.439 201.45 258.82 249.069 200.078 249.069C141.337 249.069 93.7178 201.45 93.7178 142.708C93.7178 83.9668 141.337 36.3477 200.078 36.3477C258.82 36.3477 306.439 83.9668 306.439 142.708Z" fill="#05BF8E"/>
<path fill-rule="evenodd" clip-rule="evenodd" d="M236.88 44.1152C237.005 42.9548 236.232 42.5215 235.324 42.1855C234.241 41.7842 233.166 41.3622 232.084 40.9585C219.362 36.2118 206.638 31.4671 193.915 26.7211C186.57 23.9809 179.224 21.2436 171.882 18.4953C170.066 17.8154 168.656 17.8204 167.873 20.0628C167.468 22.2957 167.072 24.5304 166.656 26.7615C165.567 32.5971 164.47 38.4313 163.376 44.266C162.872 47.0587 162.376 49.8527 161.862 52.6432C161.372 55.2987 161.572 55.5568 164.281 55.1982C181.064 52.9779 197.844 50.7398 214.624 48.499C221.385 47.5961 228.143 46.6744 234.902 45.7551C236.237 45.5736 236.772 45.1164 236.88 44.1152Z" fill="#05BF8E"/>
<path fill-rule="evenodd" clip-rule="evenodd" d="M243.505 201.479H243.505C238.024 200.578 232.803 204.326 231.903 209.806L217.773 295.763C217.467 296.816 217.344 297.939 217.447 299.093L223.478 366.916C223.575 368.003 222.719 368.939 221.627 368.939H202.211C199.091 368.939 196.538 371.492 196.538 374.612V376.845C196.538 379.854 199 382.316 202.009 382.316H241.303C242.938 382.316 244.276 380.978 244.276 379.343V373.189C244.276 373.008 244.261 372.831 244.239 372.657C244.246 372.56 244.248 372.463 244.24 372.364L237.713 298.978L251.832 213.082C252.733 207.601 248.986 202.38 243.505 201.479Z" fill="#05BF8E"/>
<path fill-rule="evenodd" clip-rule="evenodd" d="M167.962 201.479C162.481 200.578 157.26 204.326 156.359 209.806L142.231 295.763C141.924 296.816 141.801 297.939 141.904 299.093L147.935 366.916C148.032 368.003 147.176 368.939 146.084 368.939H126.668C123.548 368.939 120.995 371.492 120.995 374.612V376.845C120.995 379.854 123.457 382.316 126.466 382.316H165.761C167.395 382.316 168.733 380.978 168.733 379.343V373.189C168.733 373.008 168.718 372.831 168.696 372.657C168.703 372.56 168.705 372.463 168.697 372.364L162.17 298.978L176.289 213.082C177.189 207.601 173.443 202.38 167.962 201.479Z" fill="#05BF8E"/>
<path fill-rule="evenodd" clip-rule="evenodd" d="M162.062 47.461C160.92 42.0255 155.539 38.5123 150.104 39.6538L132.714 43.3063L141.964 34.1217C143.301 32.7956 143.31 30.617 141.984 29.28C140.658 27.9431 138.48 27.9342 137.143 29.2601L120.389 45.8946L33.9904 64.0402C28.5548 65.182 25.0414 70.5632 26.1831 75.9987C26.5865 77.9193 27.5208 79.598 28.7982 80.9181L110.416 199.486C113.565 204.061 119.885 205.228 124.46 202.079C129.035 198.929 130.201 192.609 127.052 188.034L53.1374 80.6566L126.275 65.2958H126.275L154.255 59.4193C159.69 58.2778 163.204 52.8966 162.062 47.461Z" fill="#05BF8E"/>
<path fill-rule="evenodd" clip-rule="evenodd" d="M366.188 64.0404L279.789 45.8948L263.036 29.2601C261.699 27.9342 259.52 27.9431 258.194 29.2803C256.868 30.6169 256.877 32.7958 258.214 34.1217L267.464 43.3062L250.075 39.654C244.639 38.5125 239.258 42.0257 238.117 47.4613C236.975 52.8968 240.488 58.278 245.924 59.4195L273.903 65.296L347.041 80.6565L273.127 188.035C269.977 192.609 271.144 198.929 275.719 202.079C280.294 205.228 286.614 204.061 289.763 199.486L371.38 80.9183C372.658 79.5982 373.592 77.9195 373.996 75.9987C375.137 70.5634 371.624 65.1822 366.188 64.0404Z" fill="#05BF8E"/>
<path fill-rule="evenodd" clip-rule="evenodd" d="M162.062 47.4607C163.203 52.8962 159.69 58.2775 154.254 59.419L127.398 65.0596C126.419 65.9761 125.458 66.9109 124.515 67.8636C125.267 67.8447 126.021 67.761 126.76 67.6057L154.74 61.7293C161.463 60.3173 165.784 53.6988 164.372 46.9754C164.075 45.5627 163.539 44.246 162.813 43.0625C162.062 43.3437 161.315 43.633 160.572 43.9304C161.272 44.9728 161.789 46.1613 162.062 47.4607Z" fill="#0C7154"/>
<path fill-rule="evenodd" clip-rule="evenodd" d="M238.12 47.4607C236.978 52.8962 240.491 58.2775 245.927 59.419L272.784 65.0596C273.763 65.9761 274.724 66.9109 275.667 67.8636C274.915 67.8447 274.161 67.761 273.421 67.6057L245.442 61.7293C238.718 60.3173 234.398 53.6988 235.809 46.9754C236.106 45.5627 236.642 44.246 237.368 43.0625C238.119 43.3437 238.866 43.633 239.609 43.9304C238.909 44.9728 238.393 46.1613 238.12 47.4607Z" fill="#0C7154"/>
<path fill-rule="evenodd" clip-rule="evenodd" d="M227.349 165.579C217.242 168.975 212.351 161.309 192.493 161.309C172.636 161.309 167.744 168.975 157.638 165.579C150.303 163.114 146.062 156.295 146.062 150.796C146.062 137.947 162.999 123.127 192.493 123.127C221.988 123.127 238.925 137.947 238.925 150.796C238.925 156.295 234.684 163.114 227.349 165.579Z" fill="#131313"/>
<path fill-rule="evenodd" clip-rule="evenodd" d="M200.746 116.51H183.598C181.572 116.51 179.833 115.995 178.57 115.021C176.931 113.758 176.101 111.817 176.101 109.252C176.101 107.305 176.907 105.479 178.372 104.112C179.792 102.785 181.648 102.055 183.598 102.055H200.746C201.471 102.055 202.06 102.643 202.06 103.369C202.06 104.095 201.471 104.683 200.746 104.683H183.598C182.335 104.683 181.084 105.175 180.165 106.033C179.239 106.898 178.729 108.041 178.729 109.252C178.729 110.983 179.202 112.189 180.175 112.94C181.185 113.718 182.594 113.882 183.598 113.882H200.746C201.471 113.882 202.06 114.47 202.06 115.196C202.06 115.922 201.471 116.51 200.746 116.51Z" fill="#131313"/>
<path fill-rule="evenodd" clip-rule="evenodd" d="M238.514 93.7977C236.097 91.1338 233.058 89.0958 229.48 87.7405C226.187 86.493 222.516 85.8868 218.862 85.9873C215.384 86.083 211.956 86.8193 208.949 88.1161C205.866 89.4457 203.217 91.3743 201.273 93.7022C200.887 93.9915 200.674 94.4828 200.767 94.9898C200.897 95.704 201.582 96.1769 202.296 96.0463C209.015 94.8182 221.892 96.1192 227.84 104.839C228.094 105.212 228.507 105.413 228.927 105.413C229.182 105.413 229.439 105.339 229.666 105.184C230.266 104.775 230.42 103.957 230.011 103.358C226.999 98.9421 222.14 95.7604 215.96 94.157C212.662 93.3014 209.042 92.9229 205.714 93.0499C206.975 92.0602 208.415 91.2085 209.989 90.5297C212.694 89.3633 215.787 88.701 218.935 88.6144C222.248 88.5237 225.573 89.0708 228.549 90.1982C231.734 91.405 234.432 93.2101 236.567 95.5634C237.055 96.1011 237.886 96.1415 238.423 95.6539C238.961 95.1663 239.001 94.3351 238.514 93.7977Z" fill="#131313"/>
<path fill-rule="evenodd" clip-rule="evenodd" d="M184.155 93.7021C182.211 91.3743 179.562 89.4456 176.479 88.1163C173.471 86.8192 170.043 86.083 166.565 85.9872C162.912 85.8871 159.241 86.493 155.948 87.7404C152.37 89.0957 149.331 91.1337 146.914 93.7976C146.426 94.3353 146.467 95.1663 147.005 95.6539C147.542 96.1415 148.373 96.1011 148.861 95.5636C150.996 93.2103 153.694 91.4049 156.879 90.1981C159.855 89.071 163.179 88.5234 166.493 88.6147C169.641 88.7012 172.734 89.3632 175.438 90.5297C177.013 91.2085 178.453 92.0602 179.714 93.0501C176.386 92.9226 172.766 93.3013 169.468 94.1569C163.288 95.7606 158.429 98.9423 155.417 103.358C155.007 103.957 155.162 104.775 155.762 105.184C155.988 105.339 156.246 105.413 156.501 105.413C156.921 105.413 157.333 105.212 157.588 104.839C163.536 96.1189 176.413 94.8182 183.132 96.0465C183.846 96.1771 184.531 95.704 184.661 94.99C184.754 94.483 184.541 93.9917 184.155 93.7021Z" fill="#131313"/>
<path fill-rule="evenodd" clip-rule="evenodd" d="M146.132 77.9634C145.886 77.9634 145.636 77.8942 145.414 77.7491C144.807 77.3518 144.636 76.5373 145.034 75.9301C147.521 72.1253 152.761 67.0897 163.592 64.7068C164.301 64.5507 165.001 64.9992 165.157 65.708C165.313 66.4169 164.865 67.1178 164.157 67.2739C154.191 69.4661 149.453 73.9734 147.233 77.3683C146.981 77.7539 146.561 77.9634 146.132 77.9634Z" fill="#131313"/>
<path fill-rule="evenodd" clip-rule="evenodd" d="M239.293 77.9634C238.865 77.9634 238.445 77.7538 238.192 77.3682C235.972 73.9733 231.234 69.4661 221.269 67.2738C220.561 67.1177 220.112 66.4169 220.268 65.7079C220.424 64.9989 221.125 64.5509 221.834 64.7067C232.665 67.0897 237.904 72.1252 240.392 75.93C240.789 76.5373 240.619 77.3517 240.011 77.7491C239.79 77.8941 239.54 77.9634 239.293 77.9634Z" fill="#131313"/>
</g>
<defs>
<clipPath id="clip0">
<rect width="400" height="400" fill="white"/>
</clipPath>
</defs>
</svg>
