<svg width="238" height="200" viewBox="0 0 238 200" fill="none" xmlns="http://www.w3.org/2000/svg">
<g clip-path="url(#clip0)">
<path fill-rule="evenodd" clip-rule="evenodd" d="M191.647 105.399C191.647 145.49 159.147 177.99 119.056 177.99C78.9649 177.99 46.4648 145.49 46.4648 105.399C46.4648 65.3077 78.9649 32.8076 119.056 32.8076C159.147 32.8076 191.647 65.3077 191.647 105.399Z" fill="#05BF8E"/>
<path fill-rule="evenodd" clip-rule="evenodd" d="M144.174 38.1082C144.259 37.3162 143.731 37.0205 143.112 36.7912C142.373 36.5173 141.639 36.2292 140.901 35.9537C132.217 32.7141 123.534 29.4758 114.85 26.2367C109.837 24.3665 104.823 22.4983 99.8123 20.6226C98.5728 20.1586 97.6109 20.162 97.0766 21.6924C96.8 23.2164 96.5298 24.7416 96.2457 26.2643C95.5028 30.247 94.7536 34.2289 94.0071 38.2111C93.6631 40.1171 93.3247 42.024 92.9735 43.9286C92.6393 45.7409 92.7759 45.9171 94.6247 45.6724C106.079 44.157 117.532 42.6294 128.984 41.1001C133.598 40.4839 138.211 39.8549 142.824 39.2274C143.735 39.1035 144.1 38.7915 144.174 38.1082Z" fill="#05BF8E"/>
<path fill-rule="evenodd" clip-rule="evenodd" d="M148.694 145.509H148.694C144.953 144.894 141.39 147.452 140.775 151.192L131.132 209.858C130.923 210.576 130.839 211.343 130.909 212.13L135.025 258.42C135.092 259.161 134.507 259.8 133.762 259.8H120.511C118.381 259.8 116.639 261.543 116.639 263.672V265.196C116.639 267.25 118.319 268.93 120.373 268.93H147.191C148.307 268.93 149.22 268.017 149.22 266.901V262.701C149.22 262.577 149.21 262.457 149.195 262.338C149.199 262.272 149.201 262.205 149.195 262.138L144.74 212.052L154.377 153.428C154.991 149.688 152.434 146.124 148.694 145.509Z" fill="#05BF8E"/>
<path fill-rule="evenodd" clip-rule="evenodd" d="M97.1369 145.509C93.3963 144.894 89.833 147.452 89.2181 151.192L79.5752 209.858C79.3658 210.576 79.2822 211.343 79.3521 212.13L83.4688 258.42C83.5349 259.161 82.9502 259.8 82.2055 259.8H68.954C66.8244 259.8 65.082 261.543 65.082 263.672V265.196C65.082 267.25 66.7623 268.93 68.816 268.93H95.6344C96.75 268.93 97.663 268.017 97.663 266.901V262.701C97.663 262.577 97.6528 262.457 97.638 262.338C97.6428 262.272 97.6442 262.205 97.6383 262.138L93.1837 212.052L102.82 153.428C103.435 149.688 100.877 146.124 97.1369 145.509Z" fill="#05BF8E"/>
<path fill-rule="evenodd" clip-rule="evenodd" d="M93.1069 40.3918C92.3279 36.682 88.6552 34.2843 84.9454 35.0634L73.077 37.5562L79.3902 31.2877C80.3026 30.3826 80.3089 28.8957 79.4038 27.9833C78.4988 27.0708 77.0119 27.0647 76.0995 27.9697L64.6652 39.3227L5.69806 51.7071C1.98831 52.4863 -0.409617 56.159 0.369642 59.8688C0.644969 61.1795 1.28263 62.3252 2.15444 63.2262L57.8584 144.149C60.0077 147.271 64.3209 148.067 67.4433 145.918C70.5657 143.769 71.362 139.456 69.2125 136.333L18.7659 63.0477L68.6823 52.564H68.6825L87.7785 48.5533C91.4883 47.7742 93.8862 44.1015 93.1069 40.3918Z" fill="#05BF8E"/>
<path fill-rule="evenodd" clip-rule="evenodd" d="M232.425 51.7072L173.458 39.3229L162.023 27.9696C161.111 27.0647 159.624 27.0708 158.719 27.9834C157.814 28.8957 157.82 30.3828 158.733 31.2877L165.046 37.5561L153.177 35.0635C149.468 34.2844 145.795 36.6822 145.016 40.3919C144.237 44.1017 146.635 47.7744 150.344 48.5535L169.441 52.5642L219.357 63.0477L168.91 136.333C166.761 139.455 167.557 143.769 170.68 145.918C173.802 148.067 178.115 147.271 180.265 144.149L235.969 63.2264C236.84 62.3254 237.478 61.1797 237.753 59.8687C238.532 56.1592 236.135 52.4865 232.425 51.7072Z" fill="#05BF8E"/>
<path fill-rule="evenodd" clip-rule="evenodd" d="M93.1063 40.3924C93.8856 44.1021 91.4876 47.7748 87.7779 48.5539L69.448 52.4037C68.7801 53.0291 68.1242 53.6672 67.4805 54.3173C67.9939 54.3045 68.5084 54.2473 69.013 54.1414L88.1091 50.1307C92.6978 49.167 95.6467 44.6499 94.6831 40.0612C94.4806 39.097 94.1147 38.1983 93.6194 37.3906C93.1067 37.5825 92.5968 37.78 92.0897 37.983C92.5676 38.6944 92.9201 39.5055 93.1063 40.3924Z" fill="#0C7154"/>
<path fill-rule="evenodd" clip-rule="evenodd" d="M145.015 40.3924C144.236 44.1021 146.634 47.7748 150.344 48.5539L168.674 52.4037C169.341 53.0291 169.997 53.6672 170.641 54.3173C170.128 54.3045 169.613 54.2473 169.109 54.1414L150.012 50.1307C145.424 49.167 142.475 44.6499 143.438 40.0612C143.641 39.097 144.007 38.1983 144.502 37.3906C145.015 37.5825 145.525 37.78 146.032 37.983C145.554 38.6944 145.201 39.5055 145.015 40.3924Z" fill="#0C7154"/>
<path fill-rule="evenodd" clip-rule="evenodd" d="M137.666 121.008C130.768 123.325 127.43 118.093 113.877 118.093C100.324 118.093 96.9861 123.325 90.0884 121.008C85.0822 119.326 82.1875 114.672 82.1875 110.918C82.1875 102.149 93.7473 92.0342 113.877 92.0342C134.007 92.0342 145.567 102.149 145.567 110.918C145.567 114.672 142.672 119.326 137.666 121.008Z" fill="#131313"/>
<path fill-rule="evenodd" clip-rule="evenodd" d="M119.508 87.5191H107.805C106.422 87.5191 105.235 87.1677 104.373 86.5026C103.254 85.6405 102.688 84.3158 102.688 82.5657C102.688 81.2365 103.238 79.9906 104.237 79.0573C105.207 78.1521 106.474 77.6533 107.805 77.6533H119.508C120.003 77.6533 120.405 78.0549 120.405 78.5502C120.405 79.0457 120.003 79.4472 119.508 79.4472H107.805C106.943 79.4472 106.089 79.7829 105.462 80.3685C104.829 80.9589 104.481 81.739 104.481 82.5657C104.481 83.747 104.804 84.5702 105.468 85.0823C106.157 85.6137 107.119 85.7254 107.805 85.7254H119.508C120.003 85.7254 120.405 86.1269 120.405 86.6222C120.405 87.1176 120.003 87.5191 119.508 87.5191Z" fill="#131313"/>
<path fill-rule="evenodd" clip-rule="evenodd" d="M145.285 72.0176C143.635 70.1995 141.561 68.8085 139.119 67.8836C136.872 67.0322 134.366 66.6185 131.873 66.687C129.499 66.7524 127.16 67.2549 125.107 68.1399C123.003 69.0473 121.195 70.3637 119.868 71.9524C119.605 72.1499 119.459 72.4852 119.523 72.8312C119.612 73.3187 120.079 73.6414 120.566 73.5523C125.152 72.7141 133.94 73.6021 138 79.5533C138.174 79.8078 138.455 79.9448 138.742 79.9448C138.916 79.9448 139.092 79.8943 139.247 79.7887C139.656 79.5096 139.761 78.9516 139.482 78.5424C137.426 75.5286 134.11 73.3572 129.892 72.2628C127.641 71.6789 125.171 71.4206 122.899 71.5072C123.759 70.8318 124.743 70.2505 125.817 69.7872C127.663 68.9911 129.774 68.5391 131.922 68.48C134.184 68.4181 136.453 68.7915 138.484 69.5609C140.658 70.3846 142.499 71.6166 143.956 73.2227C144.289 73.5897 144.856 73.6173 145.223 73.2845C145.59 72.9517 145.618 72.3844 145.285 72.0176Z" fill="#131313"/>
<path fill-rule="evenodd" clip-rule="evenodd" d="M108.185 71.9524C106.858 70.3636 105.05 69.0473 102.946 68.1401C100.893 67.2548 98.5534 66.7523 96.1797 66.687C93.6867 66.6186 91.181 67.0321 88.9336 67.8835C86.4917 68.8085 84.4172 70.1995 82.7678 72.0175C82.435 72.3845 82.4625 72.9517 82.8295 73.2844C83.1963 73.6172 83.7636 73.5897 84.0964 73.2229C85.5534 71.6167 87.3948 70.3846 89.5691 69.5609C91.5999 68.7917 93.8687 68.4179 96.1304 68.4802C98.2788 68.5393 100.39 68.9911 102.236 69.7872C103.31 70.2505 104.293 70.8317 105.154 71.5074C102.882 71.4204 100.411 71.6789 98.161 72.2628C93.9429 73.3573 90.6266 75.5288 88.5708 78.5425C88.2915 78.9516 88.3969 79.5096 88.8062 79.7886C88.9608 79.8943 89.1368 79.9447 89.3108 79.9447C89.5972 79.9447 89.879 79.8078 90.0525 79.5532C94.1124 73.6018 102.901 72.7141 107.487 73.5524C107.974 73.6416 108.441 73.3186 108.53 72.8314C108.593 72.4853 108.448 72.15 108.185 71.9524Z" fill="#131313"/>
<path fill-rule="evenodd" clip-rule="evenodd" d="M82.236 61.2104C82.0677 61.2104 81.8975 61.1632 81.746 61.0642C81.3314 60.793 81.2151 60.2371 81.4863 59.8227C83.1841 57.2259 86.7597 53.7891 94.1519 52.1628C94.6359 52.0562 95.1141 52.3624 95.2206 52.8461C95.3269 53.3299 95.0212 53.8083 94.5375 53.9148C87.7361 55.411 84.5025 58.4872 82.9875 60.8042C82.8155 61.0674 82.5285 61.2104 82.236 61.2104Z" fill="#131313"/>
<path fill-rule="evenodd" clip-rule="evenodd" d="M145.816 61.2104C145.524 61.2104 145.237 61.0673 145.065 60.8042C143.55 58.4872 140.316 55.411 133.515 53.9147C133.031 53.8082 132.725 53.3299 132.832 52.846C132.938 52.3621 133.417 52.0564 133.9 52.1627C141.293 53.7891 144.868 57.2258 146.566 59.8226C146.837 60.2371 146.721 60.7929 146.306 61.0641C146.155 61.1631 145.985 61.2104 145.816 61.2104Z" fill="#131313"/>
</g>
<path fill-rule="evenodd" clip-rule="evenodd" d="M93.1069 40.3918C92.3279 36.682 88.6552 34.2843 84.9454 35.0634L73.077 37.5562L79.3902 31.2877C80.3026 30.3826 80.3089 28.8957 79.4038 27.9833C78.4988 27.0708 77.0119 27.0647 76.0995 27.9697L64.6652 39.3227L5.69806 51.7071C1.98831 52.4863 -0.409617 56.159 0.369642 59.8688C0.644969 61.1795 1.28263 62.3252 2.15444 63.2262L57.8584 144.149C60.0077 147.271 64.3209 148.067 67.4433 145.918C70.5657 143.769 71.362 139.456 69.2125 136.333L18.7659 63.0477L68.6823 52.564H68.6825L87.7785 48.5533C91.4883 47.7742 93.8862 44.1015 93.1069 40.3918Z" fill="#05BF8E"/>
<path fill-rule="evenodd" clip-rule="evenodd" d="M232.423 51.7072L173.456 39.3229L162.021 27.9696C161.109 27.0647 159.622 27.0708 158.717 27.9834C157.812 28.8957 157.818 30.3828 158.731 31.2877L165.044 37.5561L153.176 35.0635C149.466 34.2844 145.793 36.6822 145.014 40.3919C144.235 44.1017 146.633 47.7744 150.342 48.5535L169.439 52.5642L219.355 63.0477L168.908 136.333C166.759 139.455 167.555 143.769 170.678 145.918C173.8 148.067 178.113 147.271 180.263 144.149L235.967 63.2264C236.838 62.3254 237.476 61.1797 237.751 59.8687C238.53 56.1592 236.133 52.4865 232.423 51.7072Z" fill="#05BF8E"/>
<defs>
<clipPath id="clip0">
<rect x="16" width="200" height="200" rx="100" fill="white"/>
</clipPath>
</defs>
</svg>
