<svg width="623" height="376" viewBox="0 0 623 376" fill="none" xmlns="http://www.w3.org/2000/svg">
<g clip-path="url(#clip0)">
<path fill-rule="evenodd" clip-rule="evenodd" d="M564.504 61.7271L561.567 20.5034C561.335 17.2154 563.83 14.3351 567.112 14.1023C570.393 13.8695 573.268 16.3691 573.501 19.6571L575.122 42.4178L590.104 15.174C594.786 6.6585 605.572 3.52983 614.071 8.221C622.571 12.9131 625.694 23.7188 621.011 32.2347L497.41 257.001C497.535 259.798 497.597 262.611 497.597 265.438C497.597 335.956 458.468 397.318 400.776 428.917L541.806 594.302C543.121 595.844 545.435 596.027 546.975 594.709L571.494 573.72C575.639 570.172 581.928 570.667 585.469 574.82L588.003 577.792C591.418 581.797 590.942 587.873 586.945 591.294L534.746 635.975C532.574 637.834 529.279 637.575 527.424 635.399L364.284 444.085C347.63 448.992 330.004 451.625 311.764 451.625C292.753 451.625 274.409 448.765 257.137 443.451L93.4572 635.399C91.6016 637.575 88.3066 637.834 86.1352 635.975L33.936 591.294C29.9393 587.873 29.4627 581.797 32.8778 577.792L35.4117 574.82C38.9533 570.667 45.2418 570.172 49.387 573.72L73.9064 594.709C75.4458 596.027 77.7601 595.844 79.0754 594.302L220.955 427.92C164.249 396.038 125.931 335.221 125.931 265.438C125.931 262.668 125.991 259.913 126.111 257.172L2.41618 32.2347C-2.267 23.7188 0.855735 12.9131 9.35549 8.221C17.8548 3.52983 28.6404 6.6585 33.3232 15.174L48.3044 42.4178L49.9258 19.6571C50.1582 16.3691 53.0334 13.8695 56.3152 14.1023C59.5969 14.3351 62.0918 17.2154 61.8595 20.5034L58.9228 61.7271L136.627 203.031C160.127 136.833 219.957 87.8904 292.082 80.2834L293.587 76.8608C296.579 70.0591 299.57 63.2574 302.554 56.4528C303.649 53.9575 304.727 51.4555 305.806 48.9534L305.808 48.947L305.81 48.9439C306.302 47.8019 306.794 46.6599 307.288 45.5185C309.512 42.0083 311.912 42.5606 314.731 44.4431C323.736 50.4538 332.747 56.4535 341.759 62.4532L341.847 62.5118C344.214 64.0878 346.582 65.6639 348.949 67.2401C356.472 72.2494 363.995 77.2584 371.519 82.2675L371.772 82.4363L372.236 82.7454L372.301 82.7886L372.366 82.8317C382.475 89.5622 392.584 96.2929 402.693 103.024C441.519 124.891 471.711 160.329 486.861 202.919L564.504 61.7271Z" fill="#05BF8E"/>
<path fill-rule="evenodd" clip-rule="evenodd" d="M370.407 226.597C353.047 220.753 344.645 233.945 310.536 233.945C276.426 233.945 268.025 220.753 250.665 226.597C238.065 230.838 230.78 242.573 230.78 252.037C230.78 274.15 259.873 299.655 310.536 299.655C361.199 299.655 390.292 274.15 390.292 252.037C390.292 242.573 383.007 230.838 370.407 226.597Z" fill="#131313"/>
<path fill-rule="evenodd" clip-rule="evenodd" d="M294.861 177.155C294.861 159.461 280.544 145.117 262.884 145.117C245.223 145.117 230.906 159.461 230.906 177.155C230.906 194.85 245.223 209.194 262.884 209.194C280.544 209.194 294.861 194.85 294.861 177.155Z" fill="white"/>
<path fill-rule="evenodd" clip-rule="evenodd" d="M279.186 177.03C279.186 168.009 271.887 160.696 262.884 160.696C253.88 160.696 246.581 168.009 246.581 177.03C246.581 186.05 253.88 193.363 262.884 193.363C271.887 193.363 279.186 186.05 279.186 177.03Z" fill="#131313"/>
<path fill-rule="evenodd" clip-rule="evenodd" d="M390.919 177.155C390.919 159.461 376.602 145.117 358.941 145.117C341.28 145.117 326.964 159.461 326.964 177.155C326.964 194.85 341.28 209.194 358.941 209.194C376.602 209.194 390.919 194.85 390.919 177.155Z" fill="white"/>
<path fill-rule="evenodd" clip-rule="evenodd" d="M375.244 177.03C375.244 168.009 367.945 160.696 358.942 160.696C349.938 160.696 342.639 168.009 342.639 177.03C342.639 186.05 349.938 193.363 358.942 193.363C367.945 193.363 375.244 186.05 375.244 177.03Z" fill="#131313"/>
<path fill-rule="evenodd" clip-rule="evenodd" d="M324.707 213.717H295.253C291.773 213.717 288.786 212.831 286.616 211.154C283.801 208.98 282.374 205.64 282.374 201.227C282.374 197.875 283.76 194.734 286.275 192.38C288.715 190.097 291.904 188.84 295.253 188.84H324.707C325.953 188.84 326.964 189.853 326.964 191.102C326.964 192.351 325.953 193.363 324.707 193.363H295.253C293.084 193.363 290.934 194.21 289.356 195.686C287.765 197.175 286.889 199.142 286.889 201.227C286.889 204.206 287.701 206.281 289.372 207.572C291.107 208.913 293.528 209.194 295.253 209.194H324.707C325.953 209.194 326.964 210.206 326.964 211.455C326.964 212.704 325.953 213.717 324.707 213.717Z" fill="#131313"/>
<path fill-rule="evenodd" clip-rule="evenodd" d="M230.906 160.696H294.861V143.609H230.906V160.696Z" fill="#05BF8E"/>
<path fill-rule="evenodd" clip-rule="evenodd" d="M326.964 160.696H390.919V143.609H326.964V160.696Z" fill="#05BF8E"/>
<path fill-rule="evenodd" clip-rule="evenodd" d="M230.907 148.259C230.248 148.259 229.595 147.971 229.149 147.417C228.366 146.445 228.518 145.021 229.488 144.237C241.716 134.353 258.643 128.776 277.15 128.533C277.16 128.533 277.17 128.533 277.18 128.533C278.413 128.533 279.42 129.526 279.436 130.765C279.453 132.014 278.455 133.04 277.209 133.056C259.708 133.285 243.768 138.506 232.323 147.757C231.906 148.095 231.405 148.259 230.907 148.259Z" fill="#131313"/>
<path fill-rule="evenodd" clip-rule="evenodd" d="M390.918 148.258C390.42 148.258 389.919 148.094 389.502 147.757C378.058 138.506 362.117 133.285 344.616 133.055C343.37 133.039 342.373 132.014 342.389 130.765C342.405 129.526 343.413 128.533 344.645 128.533C344.655 128.533 344.665 128.533 344.675 128.533C363.182 128.775 380.109 134.352 392.337 144.237C393.307 145.021 393.459 146.445 392.676 147.417C392.23 147.971 391.577 148.258 390.918 148.258Z" fill="#131313"/>
</g>
<path fill-rule="evenodd" clip-rule="evenodd" d="M62.2218 20.8758L59.2851 62.0995L159.297 243.971C163.98 252.487 160.857 263.292 152.358 267.984C143.859 272.676 133.073 269.547 128.39 261.031L2.77849 32.6072C-1.90469 24.0912 1.21804 13.2855 9.71779 8.59343C18.2171 3.90226 29.0028 7.03093 33.6855 15.5464L48.6667 42.7903L50.2881 20.0296C50.5205 16.7416 53.3957 14.2419 56.6775 14.4747C59.9592 14.7075 62.4541 17.5878 62.2218 20.8758Z" fill="#05BF8E"/>
<path fill-rule="evenodd" clip-rule="evenodd" d="M560.654 20.8758L563.591 62.0995L463.578 243.971C458.896 252.487 462.018 263.292 470.518 267.984C479.017 272.676 489.803 269.547 494.485 261.031L620.098 32.6072C624.78 24.0912 621.657 13.2855 613.158 8.59343C604.659 3.90226 593.873 7.03093 589.191 15.5464L574.208 42.7903L572.588 20.0296C572.355 16.7416 569.48 14.2419 566.198 14.4747C562.916 14.7075 560.422 17.5878 560.654 20.8758Z" fill="#05BF8E"/>
<defs>
<clipPath id="clip0">
<rect x="55" y="0.000175476" width="512" height="512.973" rx="256" fill="white"/>
</clipPath>
</defs>
</svg>
