<svg width="623" height="376" viewBox="0 0 623 376" fill="none" xmlns="http://www.w3.org/2000/svg">
<g clip-path="url(#clip0)">
<rect x="55" y="0.000244141" width="512" height="512.973" rx="256" fill="#94DBF2"/>
<path fill-rule="evenodd" clip-rule="evenodd" d="M61.8595 20.5033L58.9228 61.7271L136.627 203.031C160.127 136.833 219.957 87.89 292.082 80.2832L293.591 76.8516C296.582 70.0529 299.572 63.2543 302.555 56.4527C303.647 53.9612 304.724 51.463 305.801 48.9648L305.804 48.9577L305.807 48.9493L305.809 48.9461L305.81 48.9429C306.302 47.8012 306.794 46.6595 307.288 45.5184C309.512 42.0082 311.912 42.5605 314.732 44.4431C323.717 50.4409 332.709 56.4279 341.702 62.4149L341.706 62.4177L341.71 62.4206L341.727 62.432L341.777 62.4651L341.866 62.5243C344.227 64.0961 346.588 65.668 348.949 67.24C356.555 72.3046 364.161 77.369 371.768 82.4333C382.077 89.2972 392.387 96.1611 402.696 103.026C441.521 124.893 471.711 160.33 486.861 202.92L564.504 61.7271L561.568 20.5033C561.335 17.2153 563.83 14.3351 567.112 14.1023C570.394 13.8695 573.269 16.3691 573.501 19.6571L575.122 42.4178L590.105 15.1739C594.787 6.65849 605.573 3.52982 614.072 8.22099C622.571 12.9131 625.694 23.7188 621.012 32.2347L497.41 257.003C497.534 259.799 497.597 262.611 497.597 265.438C497.597 335.956 458.468 397.317 400.776 428.916L541.806 594.302C543.121 595.844 545.435 596.027 546.975 594.709L571.494 573.721C575.639 570.172 581.928 570.667 585.469 574.82L588.003 577.792C591.418 581.797 590.942 587.873 586.945 591.294L534.746 635.975C532.575 637.834 529.279 637.575 527.424 635.399L364.284 444.085C347.63 448.992 330.003 451.625 311.764 451.625C292.753 451.625 274.409 448.765 257.137 443.451L93.4567 635.399C91.6011 637.575 88.3061 637.834 86.1347 635.975L33.9355 591.294C29.9388 587.873 29.4622 581.797 32.8773 577.792L35.4112 574.82C38.9528 570.667 45.2413 570.172 49.3865 573.721L73.9059 594.709C75.4453 596.027 77.7596 595.844 79.0749 594.302L220.955 427.919C164.249 396.038 125.93 335.221 125.93 265.438C125.93 262.668 125.991 259.912 126.11 257.171L2.41618 32.2347C-2.267 23.7188 0.855735 12.9131 9.35549 8.22099C17.8548 3.52982 28.6404 6.65849 33.3232 15.1739L48.3044 42.4178L49.9258 19.6571C50.1582 16.3691 53.0334 13.8695 56.3152 14.1023C59.5969 14.3351 62.0918 17.2153 61.8595 20.5033Z" fill="#05BF8E"/>
<path fill-rule="evenodd" clip-rule="evenodd" d="M370.408 226.597C353.048 220.753 344.646 233.945 310.537 233.945C276.427 233.945 268.025 220.753 250.666 226.597C238.066 230.838 230.781 242.573 230.781 252.037C230.781 274.15 259.874 299.655 310.537 299.655C361.199 299.655 390.293 274.15 390.293 252.037C390.293 242.573 383.007 230.838 370.408 226.597Z" fill="#131313"/>
<path fill-rule="evenodd" clip-rule="evenodd" d="M294.861 177.155C294.861 159.461 280.545 145.117 262.884 145.117C245.223 145.117 230.906 159.461 230.906 177.155C230.906 194.85 245.223 209.194 262.884 209.194C280.545 209.194 294.861 194.85 294.861 177.155Z" fill="white"/>
<path fill-rule="evenodd" clip-rule="evenodd" d="M279.185 177.03C279.185 168.009 271.886 160.696 262.883 160.696C253.879 160.696 246.581 168.009 246.581 177.03C246.581 186.05 253.879 193.363 262.883 193.363C271.886 193.363 279.185 186.05 279.185 177.03Z" fill="#131313"/>
<path fill-rule="evenodd" clip-rule="evenodd" d="M390.92 177.155C390.92 159.461 376.603 145.117 358.942 145.117C341.281 145.117 326.964 159.461 326.964 177.155C326.964 194.85 341.281 209.194 358.942 209.194C376.603 209.194 390.92 194.85 390.92 177.155Z" fill="white"/>
<path fill-rule="evenodd" clip-rule="evenodd" d="M375.243 177.03C375.243 168.009 367.944 160.696 358.941 160.696C349.937 160.696 342.639 168.009 342.639 177.03C342.639 186.05 349.937 193.363 358.941 193.363C367.944 193.363 375.243 186.05 375.243 177.03Z" fill="#131313"/>
<path fill-rule="evenodd" clip-rule="evenodd" d="M324.707 213.717H295.253C291.772 213.717 288.785 212.83 286.615 211.154C283.801 208.98 282.374 205.64 282.374 201.227C282.374 197.875 283.759 194.733 286.275 192.38C288.715 190.097 291.903 188.84 295.253 188.84H324.707C325.953 188.84 326.964 189.852 326.964 191.101C326.964 192.35 325.953 193.363 324.707 193.363H295.253C293.083 193.363 290.934 194.21 289.356 195.686C287.765 197.174 286.889 199.142 286.889 201.227C286.889 204.205 287.701 206.281 289.372 207.572C291.107 208.912 293.528 209.194 295.253 209.194H324.707C325.953 209.194 326.964 210.206 326.964 211.455C326.964 212.704 325.953 213.717 324.707 213.717Z" fill="#131313"/>
<path fill-rule="evenodd" clip-rule="evenodd" d="M230.906 160.697H294.861V143.609H230.906V160.697Z" fill="#05BF8E"/>
<path fill-rule="evenodd" clip-rule="evenodd" d="M326.964 160.697H390.92V143.609H326.964V160.697Z" fill="#05BF8E"/>
<path fill-rule="evenodd" clip-rule="evenodd" d="M230.907 148.259C230.248 148.259 229.595 147.971 229.149 147.417C228.366 146.445 228.518 145.021 229.488 144.237C241.716 134.353 258.643 128.776 277.15 128.533C277.16 128.533 277.17 128.533 277.18 128.533C278.413 128.533 279.42 129.526 279.436 130.765C279.453 132.014 278.455 133.04 277.209 133.056C259.708 133.285 243.768 138.506 232.323 147.757C231.906 148.095 231.405 148.259 230.907 148.259Z" fill="#131313"/>
<path fill-rule="evenodd" clip-rule="evenodd" d="M390.917 148.258C390.42 148.258 389.919 148.094 389.501 147.757C378.057 138.505 362.116 133.284 344.616 133.055C343.369 133.039 342.372 132.013 342.388 130.764C342.405 129.526 343.412 128.532 344.645 128.532C344.655 128.532 344.665 128.532 344.675 128.533C363.182 128.775 380.108 134.352 392.336 144.236C393.306 145.021 393.458 146.444 392.676 147.417C392.23 147.97 391.576 148.258 390.917 148.258Z" fill="#131313"/>
</g>
<path fill-rule="evenodd" clip-rule="evenodd" d="M62.2218 20.8759L59.2851 62.0996L159.297 243.971C163.98 252.487 160.857 263.292 152.358 267.984C143.859 272.676 133.073 269.547 128.39 261.031L2.77849 32.6073C-1.90469 24.0913 1.21804 13.2856 9.71779 8.59354C18.2171 3.90238 29.0028 7.03105 33.6855 15.5465L48.6667 42.7904L50.2881 20.0297C50.5205 16.7417 53.3957 14.242 56.6775 14.4748C59.9592 14.7076 62.4541 17.5879 62.2218 20.8759Z" fill="#05BF8E"/>
<path fill-rule="evenodd" clip-rule="evenodd" d="M560.654 20.8759L563.591 62.0996L463.578 243.971C458.896 252.487 462.018 263.292 470.518 267.984C479.017 272.676 489.803 269.547 494.486 261.031L620.098 32.6073C624.781 24.0913 621.657 13.2856 613.158 8.59354C604.659 3.90238 593.873 7.03105 589.191 15.5465L574.209 42.7904L572.588 20.0297C572.355 16.7417 569.48 14.242 566.198 14.4748C562.917 14.7076 560.422 17.5879 560.654 20.8759Z" fill="#05BF8E"/>
<defs>
<clipPath id="clip0">
<rect x="55" y="0.000244141" width="512" height="512.973" rx="256" fill="white"/>
</clipPath>
</defs>
</svg>
