<svg width="190" height="180" viewBox="0 0 190 180" fill="none" xmlns="http://www.w3.org/2000/svg">
<path fill-rule="evenodd" clip-rule="evenodd" d="M94.3268 179.059L2.38853 179.059C1.57095 179.059 0.902237 178.39 0.902237 177.572V157.925C0.902237 156.421 2.13318 155.19 3.63771 155.19H4.75417C6.3143 155.19 7.59076 156.466 7.59076 158.026V167.255C7.59076 167.835 8.06053 168.304 8.63994 168.304L62.949 168.304C50.5444 158.913 42.3865 144.207 41.8651 127.575C41.8476 127.405 41.8386 127.232 41.8386 127.057V125.878L41.8386 44.8859V43.8367V20.2301V18.9187V5.93507C41.8386 3.15802 44.1107 0.885895 46.8878 0.885895C49.6648 0.885895 51.937 3.15802 51.937 5.93507V14.8195L55.4806 9.34937C55.9921 8.55894 57.0571 8.33047 57.8476 8.84195C58.6381 9.35342 58.8664 10.4185 58.3551 11.209L51.937 21.1166V43.8367V44.8859V94.6933C61.6009 81.3659 77.2977 72.6979 95.0189 72.6979C112.74 72.6979 128.437 81.3659 138.101 94.6934V44.8856V43.8364V21.1163L131.683 11.2087C131.172 10.4183 131.4 9.35326 132.19 8.84164C132.981 8.33031 134.046 8.55864 134.557 9.34906L138.101 14.8192V5.93477C138.101 3.15771 140.373 0.88559 143.15 0.88559C145.927 0.88559 148.199 3.15771 148.199 5.93477V18.9184L148.199 20.2298V43.8364V44.8856L148.199 125.878V127.057C148.199 127.232 148.19 127.404 148.173 127.575C147.652 144.207 139.494 158.913 127.089 168.304L181.374 168.304C181.953 168.304 182.423 167.835 182.423 167.255V158.026C182.423 156.466 183.699 155.19 185.259 155.19H186.376C187.88 155.19 189.111 156.421 189.111 157.925V177.572C189.111 178.39 188.443 179.059 187.625 179.059L95.6868 179.059H95.0189H94.3268Z" fill="#05BF8E"/>
<path fill-rule="evenodd" clip-rule="evenodd" d="M108.578 74.8431C108.534 74.2612 108.114 74.1188 107.637 74.0362C107.068 73.9376 106.501 73.8281 105.933 73.7281C99.2454 72.5532 92.5581 71.3794 85.8706 70.205C82.01 69.5268 78.149 68.8501 74.2891 68.1677C73.3342 67.9988 72.6418 68.1297 72.461 69.3033C72.4654 70.438 72.4741 71.5727 72.4727 72.7075C72.4692 75.6758 72.4609 78.6439 72.4546 81.6121C72.461 83.0311 72.4718 84.4498 72.4728 85.8686C72.474 87.2188 72.596 87.3274 73.8951 86.9045C81.9439 84.2842 89.99 81.6555 98.0356 79.0256C101.277 77.9659 104.516 76.8972 107.755 75.8295C108.395 75.6188 108.616 75.3453 108.578 74.8431Z" fill="#05BF8E"/>
<path fill-rule="evenodd" clip-rule="evenodd" d="M90.9727 102.301C90.9727 97.1713 86.8142 93.013 81.6846 93.013C76.555 93.013 72.3966 97.1713 72.3966 102.301C72.3966 107.43 76.555 111.589 81.6846 111.589C86.8142 111.589 90.9727 107.43 90.9727 102.301Z" fill="white"/>
<path fill-rule="evenodd" clip-rule="evenodd" d="M118.873 102.301C118.873 97.1713 114.715 93.013 109.585 93.013C104.455 93.013 100.297 97.1713 100.297 102.301C100.297 107.43 104.455 111.589 109.585 111.589C114.715 111.589 118.873 107.43 118.873 102.301Z" fill="white"/>
<path fill-rule="evenodd" clip-rule="evenodd" d="M90.9727 110.951C90.9727 109.453 86.8142 108.238 81.6846 108.238C76.555 108.238 72.3966 109.453 72.3966 110.951C72.3966 112.45 76.555 113.665 81.6846 113.665C86.8142 113.665 90.9727 112.45 90.9727 110.951Z" fill="#05BF8E"/>
<path fill-rule="evenodd" clip-rule="evenodd" d="M118.873 110.951C118.873 109.453 114.715 108.238 109.585 108.238C104.455 108.238 100.297 109.453 100.297 110.951C100.297 112.45 104.455 113.665 109.585 113.665C114.715 113.665 118.873 112.45 118.873 110.951Z" fill="#05BF8E"/>
<path fill-rule="evenodd" clip-rule="evenodd" d="M104.69 115.884C106.941 115.208 108.613 114.705 110.881 115.467C114.113 116.553 115.981 119.557 115.981 121.98C115.981 127.641 108.519 134.171 95.5243 134.171C82.5296 134.171 75.0673 127.641 75.0673 121.98C75.0673 119.557 76.9359 116.553 80.1677 115.467C82.4358 114.705 84.1078 115.208 86.3588 115.884C88.5268 116.536 91.232 117.348 95.5243 117.348C99.8166 117.348 102.522 116.536 104.69 115.884ZM81.6835 97.5292C84.2986 97.5292 86.4185 99.649 86.4185 102.264C86.4185 104.879 84.2986 106.999 81.6835 106.999C79.0683 106.999 76.9484 104.879 76.9484 102.264C76.9484 99.649 79.0683 97.5292 81.6835 97.5292ZM114.319 102.264C114.319 99.649 112.199 97.5292 109.584 97.5292C106.969 97.5292 104.849 99.649 104.849 102.264C104.849 104.879 106.969 106.999 109.584 106.999C112.199 106.999 114.319 104.879 114.319 102.264ZM93.9992 112.9H98.6568C99.0189 112.9 99.3124 112.606 99.3124 112.244C99.3124 111.882 99.0189 111.589 98.6568 111.589H93.9992C93.4981 111.589 92.7951 111.507 92.2912 111.118C91.8058 110.744 91.5697 110.143 91.5697 109.279C91.5697 108.675 91.8243 108.104 92.2863 107.673C92.7447 107.245 93.3691 106.999 93.9992 106.999H98.6568C99.0189 106.999 99.3124 106.706 99.3124 106.344C99.3124 105.981 99.0189 105.688 98.6568 105.688H93.9992C93.0264 105.688 92.1002 106.052 91.3915 106.714C90.6609 107.396 90.2585 108.307 90.2585 109.279C90.2585 110.558 90.6731 111.527 91.4904 112.157C92.1208 112.643 92.9882 112.9 93.9992 112.9ZM74.2536 91.4825C74.0263 91.4825 73.8054 91.3642 73.6842 91.1528C73.5041 90.8387 73.6128 90.438 73.9271 90.2579C77.2081 88.3773 80.2042 87.8501 85.8001 88.1689C86.1617 88.1896 86.438 88.4992 86.4174 88.8608C86.3969 89.2223 86.0873 89.4991 85.7256 89.478C82.9128 89.3179 80.8038 89.39 79.0883 89.705C77.4795 90.0005 76.1307 90.5062 74.579 91.3957C74.4762 91.4545 74.3642 91.4825 74.2536 91.4825ZM116.688 91.3957C116.791 91.4545 116.903 91.4825 117.014 91.4825C117.241 91.4825 117.462 91.3642 117.583 91.1528C117.763 90.8387 117.654 90.438 117.34 90.2579C114.059 88.3773 111.063 87.8501 105.467 88.1689C105.106 88.1896 104.829 88.4992 104.85 88.8608C104.87 89.2223 105.181 89.4986 105.542 89.478C108.354 89.3177 110.463 89.39 112.179 89.705C113.788 90.0005 115.136 90.5062 116.688 91.3957Z" fill="black"/>
</svg>
