<svg width="200" height="200" viewBox="0 0 200 200" fill="none" xmlns="http://www.w3.org/2000/svg">
<path fill-rule="evenodd" clip-rule="evenodd" d="M153.22 71.3542C153.22 100.725 129.41 124.534 100.04 124.534C70.6689 124.534 46.8594 100.725 46.8594 71.3542C46.8594 41.9834 70.6689 18.1738 100.04 18.1738C129.41 18.1738 153.22 41.9834 153.22 71.3542Z" fill="#05BF8E"/>
<path fill-rule="evenodd" clip-rule="evenodd" d="M118.441 22.0576C118.503 21.4774 118.116 21.2608 117.663 21.0928C117.121 20.8921 116.584 20.6811 116.043 20.4793C109.681 18.1059 103.32 15.7335 96.9581 13.3606C93.2855 11.9905 89.6124 10.6218 85.9413 9.24764C85.0333 8.90771 84.3286 8.9102 83.9371 10.0314C83.7345 11.1478 83.5366 12.2652 83.3285 13.3808C82.7842 16.2985 82.2354 19.2156 81.6885 22.133C81.4364 23.5294 81.1886 24.9263 80.9312 26.3216C80.6864 27.6494 80.7865 27.7784 82.1409 27.5991C90.5324 26.489 98.9226 25.3699 107.313 24.2495C110.693 23.7981 114.072 23.3372 117.452 22.8775C118.119 22.7868 118.387 22.5582 118.441 22.0576Z" fill="#05BF8E"/>
<path fill-rule="evenodd" clip-rule="evenodd" d="M121.753 100.74H121.753C119.013 100.289 116.402 102.163 115.952 104.903L108.887 147.882C108.734 148.408 108.673 148.97 108.724 149.546L111.74 183.458C111.788 184.001 111.36 184.469 110.814 184.469H101.106C99.5461 184.469 98.2695 185.746 98.2695 187.306V188.422C98.2695 189.927 99.5005 191.158 101.005 191.158H120.652C121.47 191.158 122.138 190.489 122.138 189.672V186.594C122.138 186.504 122.131 186.416 122.12 186.328C122.124 186.28 122.125 186.231 122.12 186.182L118.857 149.489L125.916 106.541C126.367 103.801 124.493 101.19 121.753 100.74Z" fill="#05BF8E"/>
<path fill-rule="evenodd" clip-rule="evenodd" d="M83.9815 100.74C81.2411 100.289 78.6306 102.163 78.1801 104.903L71.1158 147.882C70.9623 148.408 70.9011 148.97 70.9523 149.546L73.9682 183.458C74.0166 184.001 73.5883 184.469 73.0427 184.469H63.3346C61.7745 184.469 60.498 185.746 60.498 187.306L60.498 188.422C60.498 189.927 61.729 191.158 63.2335 191.158H82.8807C83.6981 191.158 84.3669 190.489 84.3669 189.672V186.594C84.3669 186.504 84.3594 186.416 84.3485 186.328C84.3521 186.28 84.3531 186.231 84.3488 186.182L81.0853 149.489L88.1449 106.541C88.5952 103.801 86.7218 101.19 83.9815 100.74Z" fill="#05BF8E"/>
<path fill-rule="evenodd" clip-rule="evenodd" d="M81.0315 23.7305C80.4607 21.0127 77.7701 19.2562 75.0523 19.8269L66.3575 21.6531L70.9826 17.0609C71.651 16.3978 71.6556 15.3085 70.9925 14.64C70.3296 13.9716 69.2403 13.9671 68.5718 14.6301L60.195 22.9473L16.9957 32.0201C14.2779 32.591 12.5212 35.2816 13.0921 37.9994C13.2938 38.9596 13.7609 39.799 14.3996 40.459L55.2084 99.743C56.7829 102.031 59.9428 102.614 62.2303 101.039C64.5178 99.4646 65.1011 96.3047 63.5264 94.0172L26.5692 40.3283L63.138 32.6479H63.1381L77.1279 29.7097C79.8456 29.1389 81.6024 26.4483 81.0315 23.7305Z" fill="#05BF8E"/>
<path fill-rule="evenodd" clip-rule="evenodd" d="M183.095 32.0202L139.895 22.9474L131.518 14.63C130.85 13.9671 129.761 13.9715 129.098 14.6401C128.435 15.3085 128.439 16.3979 129.108 17.0609L133.733 21.6531L125.038 19.827C122.32 19.2563 119.629 21.0129 119.059 23.7306C118.488 26.4484 120.245 29.139 122.962 29.7098L136.952 32.648L173.521 40.3283L136.564 94.0173C134.989 96.3047 135.573 99.4647 137.86 101.039C140.147 102.614 143.307 102.031 144.882 99.7431L185.691 40.4592C186.329 39.7991 186.797 38.9597 186.998 37.9993C187.569 35.2817 185.812 32.5911 183.095 32.0202Z" fill="#05BF8E"/>
<path fill-rule="evenodd" clip-rule="evenodd" d="M81.0313 23.7303C81.6022 26.4481 79.8455 29.1387 77.1277 29.7095L63.6993 32.5298C63.2099 32.988 62.7294 33.4554 62.2578 33.9318C62.6339 33.9223 63.0109 33.8805 63.3806 33.8029L77.3703 30.8646C80.732 30.1587 82.8924 26.8494 82.1865 23.4877C82.0381 22.7813 81.7701 22.123 81.4072 21.5313C81.0316 21.6718 80.6581 21.8165 80.2865 21.9652C80.6367 22.4864 80.8949 23.0806 81.0313 23.7303Z" fill="#0C7154"/>
<path fill-rule="evenodd" clip-rule="evenodd" d="M119.06 23.7303C118.49 26.4481 120.246 29.1387 122.964 29.7095L136.392 32.5298C136.882 32.988 137.362 33.4554 137.834 33.9318C137.458 33.9223 137.081 33.8805 136.711 33.8029L122.721 30.8646C119.36 30.1587 117.199 26.8494 117.905 23.4877C118.054 22.7813 118.322 22.123 118.685 21.5312C119.06 21.6718 119.434 21.8165 119.805 21.9652C119.455 22.4864 119.197 23.0806 119.06 23.7303Z" fill="#0C7154"/>
<path fill-rule="evenodd" clip-rule="evenodd" d="M113.675 82.7894C108.622 84.4873 106.176 80.6545 96.2471 80.6545C86.3183 80.6545 83.8727 84.4873 78.8194 82.7894C75.1519 81.5572 73.0312 78.1477 73.0312 75.3981C73.0312 68.9736 81.5 61.5635 96.2471 61.5635C110.994 61.5635 119.463 68.9736 119.463 75.3981C119.463 78.1477 117.342 81.5572 113.675 82.7894Z" fill="#131313"/>
<path fill-rule="evenodd" clip-rule="evenodd" d="M100.373 58.255H91.7996C90.7865 58.255 89.917 57.9976 89.2854 57.5104C88.4661 56.8788 88.0508 55.9083 88.0508 54.6262C88.0508 53.6524 88.4541 52.7396 89.1863 52.0559C89.8966 51.3927 90.8247 51.0273 91.7996 51.0273H100.373C100.736 51.0273 101.03 51.3215 101.03 51.6844C101.03 52.0474 100.736 52.3416 100.373 52.3416H91.7996C91.1682 52.3416 90.5425 52.5875 90.083 53.0165C89.62 53.449 89.3649 54.0205 89.3649 54.6262C89.3649 55.4916 89.6013 56.0946 90.0879 56.4698C90.5928 56.8591 91.2975 56.9409 91.7996 56.9409H100.373C100.736 56.9409 101.03 57.2351 101.03 57.598C101.03 57.9609 100.736 58.255 100.373 58.255Z" fill="#131313"/>
<path fill-rule="evenodd" clip-rule="evenodd" d="M119.257 46.8988C118.049 45.5669 116.529 44.5479 114.74 43.8702C113.094 43.2465 111.258 42.9434 109.432 42.9936C107.693 43.0415 105.979 43.4096 104.475 44.058C102.933 44.7228 101.609 45.6872 100.637 46.8511C100.444 46.9957 100.338 47.2414 100.384 47.4949C100.449 47.852 100.792 48.0885 101.148 48.0232C104.508 47.4091 110.946 48.0596 113.921 52.4195C114.048 52.606 114.254 52.7063 114.464 52.7063C114.591 52.7063 114.72 52.6693 114.834 52.5919C115.133 52.3875 115.211 51.9787 115.006 51.6789C113.5 49.471 111.07 47.8802 107.98 47.0785C106.331 46.6507 104.522 46.4615 102.857 46.5249C103.488 46.0301 104.208 45.6043 104.995 45.2649C106.347 44.6816 107.894 44.3505 109.468 44.3072C111.125 44.2618 112.787 44.5354 114.275 45.0991C115.868 45.7025 117.216 46.6051 118.284 47.7817C118.528 48.0506 118.943 48.0708 119.212 47.827C119.481 47.5832 119.501 47.1676 119.257 46.8988Z" fill="#131313"/>
<path fill-rule="evenodd" clip-rule="evenodd" d="M92.0778 46.8511C91.1058 45.6871 89.7816 44.7228 88.2401 44.0581C86.7362 43.4096 85.0221 43.0415 83.2831 42.9936C81.4567 42.9435 79.6211 43.2465 77.9746 43.8702C76.1856 44.5479 74.6659 45.5669 73.4575 46.8988C73.2137 47.1677 73.2339 47.5831 73.5028 47.8269C73.7715 48.0707 74.1871 48.0505 74.4309 47.7818C75.4983 46.6052 76.8473 45.7025 78.4402 45.0991C79.9279 44.5355 81.5901 44.2617 83.247 44.3073C84.8209 44.3506 86.3674 44.6816 87.7197 45.2648C88.5068 45.6042 89.2271 46.0301 89.8575 46.525C88.1933 46.4613 86.3833 46.6507 84.7346 47.0785C81.6444 47.8803 79.2149 49.4711 77.7088 51.679C77.5042 51.9787 77.5815 52.3875 77.8813 52.5919C77.9946 52.6693 78.1235 52.7063 78.251 52.7063C78.4608 52.7063 78.6672 52.6059 78.7943 52.4195C81.7686 48.0595 88.207 47.4091 91.5665 48.0233C91.9236 48.0886 92.2658 47.852 92.3311 47.495C92.3774 47.2415 92.271 46.9959 92.0778 46.8511Z" fill="#131313"/>
<path fill-rule="evenodd" clip-rule="evenodd" d="M73.0667 38.9817C72.9434 38.9817 72.8187 38.9471 72.7077 38.8746C72.404 38.6759 72.3187 38.2687 72.5174 37.9651C73.7612 36.0626 76.3808 33.5449 81.7963 32.3534C82.1509 32.2754 82.5012 32.4996 82.5792 32.854C82.6571 33.2085 82.4331 33.5589 82.0787 33.6369C77.0961 34.7331 74.7271 36.9867 73.6172 38.6841C73.4912 38.8769 73.281 38.9817 73.0667 38.9817Z" fill="#131313"/>
<path fill-rule="evenodd" clip-rule="evenodd" d="M119.647 38.9817C119.433 38.9817 119.223 38.8769 119.097 38.6841C117.987 36.9867 115.618 34.733 110.635 33.6369C110.281 33.5589 110.057 33.2084 110.135 32.8539C110.213 32.4995 110.563 32.2755 110.918 32.3534C116.333 33.5448 118.953 36.0626 120.196 37.965C120.395 38.2686 120.31 38.6758 120.006 38.8745C119.895 38.9471 119.77 38.9817 119.647 38.9817Z" fill="#131313"/>
</svg>
