<svg width="201" height="193" viewBox="0 0 201 193" fill="none" xmlns="http://www.w3.org/2000/svg">
<path fill-rule="evenodd" clip-rule="evenodd" d="M80.4947 0.965263C84.097 -0.214634 88.01 1.76726 89.1899 5.3696C90.3699 8.97195 88.388 12.8847 84.7855 14.0648L73.2608 17.8399L81.8624 20.1121C83.1051 20.4397 83.8537 21.7244 83.5263 22.9671C83.1987 24.2098 81.9139 24.9585 80.6714 24.6311L65.0927 20.5155L11.2039 38.1674L28.5173 79.9774C35.422 51.4975 59.123 29.5815 88.5414 25.3084L89.2617 23.4986C90.3228 20.8329 91.3839 18.1671 92.4421 15.5003C92.8349 14.5104 93.2215 13.5179 93.6081 12.5254L93.6087 12.5239L93.6105 12.5194L93.6123 12.5149C93.7851 12.0713 93.9579 11.6276 94.1313 11.1842C94.9477 9.78863 95.8897 9.96962 97.0143 10.6613C100.665 12.9073 104.319 15.1491 107.973 17.3908L110.659 19.0384C113.822 20.9794 116.985 22.9202 120.149 24.861L120.18 24.8803C124.886 27.7673 129.591 30.6543 134.297 33.5418C134.61 33.7339 134.921 33.9286 135.233 34.1233L135.234 34.1239L135.234 34.1242C135.589 34.3458 135.944 34.5673 136.301 34.7852C136.431 34.8646 136.555 34.9466 136.667 35.0351C147.079 41.3517 155.775 50.2124 161.894 60.7549L213.586 109.942C216.332 112.555 216.441 116.939 213.828 119.686C212.888 120.674 211.717 121.318 210.477 121.62L181.397 133.031L182.703 147.196C183.051 150.97 180.247 154.343 176.473 154.691C172.698 155.039 169.325 152.236 168.977 148.461L168.109 139.049L165.708 145.637C165.268 146.845 163.921 147.473 162.713 147.034C161.505 146.594 160.877 145.247 161.316 144.039L167.348 127.491C167.454 126.987 167.617 126.501 167.828 126.041C168.486 124.256 169.87 122.746 171.77 122.001L196.192 112.418L171.161 88.6006C171.49 91.402 171.659 94.2523 171.659 97.142C171.659 125.481 155.419 150.028 131.738 161.983V199.36V204.194V242.324V243.577V258.466C131.738 259.582 130.825 260.494 129.709 260.494H102.891C100.837 260.494 99.1568 258.814 99.1568 256.761V255.237C99.1568 253.107 100.899 251.365 103.029 251.365H117.285C117.654 251.365 117.954 251.065 117.954 250.696V243.577V242.324V204.194V199.36V167.252C111.932 168.87 105.6 169.733 99.0673 169.733C92.7283 169.733 86.5791 168.921 80.7181 167.394V199.36V204.194V242.324V243.577V258.466C80.7181 259.582 79.8051 260.494 78.6895 260.494H51.8711C49.8174 260.494 48.1372 258.814 48.1372 256.761V255.237C48.1372 253.107 49.8795 251.365 52.0091 251.365H66.2656C66.6347 251.365 66.9339 251.065 66.9339 250.696V243.577V242.324V204.194V199.36V162.252C49.5817 153.671 36.1522 138.359 30.0583 119.727L-4.34167 36.6556C-5.33843 34.2482 -4.85688 31.5812 -3.3211 29.6779C-2.50604 28.6183 -1.37806 27.7839 -0.0191431 27.3387L63.6527 6.48219H63.6528L80.4947 0.965263Z" fill="#05BF8E"/>
<path fill-rule="evenodd" clip-rule="evenodd" d="M91.5452 90.9324C91.5171 90.9324 83.6148 90.2845 83.6148 90.2845C83.1212 90.2385 82.7586 89.801 82.8047 89.3075C82.8509 88.8141 83.2888 88.451 83.7818 88.4974L91.6275 89.1413C92.1211 89.1875 92.4838 89.6249 92.4376 90.1184C92.3943 90.5835 92.0031 90.9324 91.5452 90.9324Z" fill="#131313"/>
<path fill-rule="evenodd" clip-rule="evenodd" d="M92.322 64.6617C92.322 57.6402 86.6298 51.948 79.6083 51.948C72.5867 51.948 66.8945 57.6402 66.8945 64.6617C66.8945 71.6833 72.5867 77.3755 79.6083 77.3755C86.6298 77.3755 92.322 71.6833 92.322 64.6617Z" fill="white"/>
<path fill-rule="evenodd" clip-rule="evenodd" d="M83.5842 60.6736C83.5842 57.094 80.6823 54.1921 77.1026 54.1921C73.5229 54.1921 70.6211 57.094 70.6211 60.6736C70.6211 64.2534 73.5229 67.1553 77.1026 67.1553C80.6823 67.1553 83.5842 64.2534 83.5842 60.6736Z" fill="#131313"/>
<path fill-rule="evenodd" clip-rule="evenodd" d="M130.513 64.6617C130.513 57.6402 124.821 51.948 117.8 51.948C110.778 51.948 105.086 57.6402 105.086 64.6617C105.086 71.6833 110.778 77.3755 117.8 77.3755C124.821 77.3755 130.513 71.6833 130.513 64.6617Z" fill="white"/>
<path fill-rule="evenodd" clip-rule="evenodd" d="M121.775 60.6736C121.775 57.094 118.874 54.1921 115.294 54.1921C111.714 54.1921 108.812 57.094 108.812 60.6736C108.812 64.2534 111.714 67.1553 115.294 67.1553C118.874 67.1553 121.775 64.2534 121.775 60.6736Z" fill="#131313"/>
<path fill-rule="evenodd" clip-rule="evenodd" d="M104.19 79.1705H92.4798C91.096 79.1705 89.9084 78.8189 89.0457 78.1535C87.9267 77.2906 87.3594 75.9652 87.3594 74.214C87.3594 72.8841 87.9102 71.6373 88.9102 70.7035C89.8803 69.7975 91.1481 69.2986 92.4798 69.2986H104.19C104.686 69.2986 105.088 69.7003 105.088 70.196C105.088 70.6917 104.686 71.0934 104.19 71.0934H92.4798C91.6173 71.0934 90.7627 71.4294 90.1352 72.0153C89.5027 72.6061 89.1542 73.3868 89.1542 74.214C89.1542 75.3961 89.4771 76.2197 90.1416 76.7321C90.8314 77.2639 91.7938 77.3756 92.4798 77.3756H104.19C104.686 77.3756 105.088 77.7773 105.088 78.273C105.088 78.7686 104.686 79.1705 104.19 79.1705Z" fill="#131313"/>
<path fill-rule="evenodd" clip-rule="evenodd" d="M79.0398 50.0513C78.1345 50.0513 77.2296 50.0093 76.3284 49.9251C74.3324 49.7386 72.3361 49.3358 70.5556 48.7606C69.0558 48.276 67.7216 47.6729 66.799 47.0628C66.3854 46.7895 66.2721 46.2325 66.5455 45.8192C66.8188 45.4058 67.3756 45.2923 67.7889 45.5657C69.2178 46.5106 72.3553 47.7511 76.4952 48.138C79.9259 48.4586 85.2168 48.2703 90.9406 45.5534C91.3884 45.3409 91.9238 45.5315 92.1363 45.9792C92.3488 46.427 92.1581 46.9624 91.7104 47.1749C89.1097 48.4094 86.3743 49.2577 83.5802 49.6969C82.0773 49.933 80.5582 50.0513 79.0398 50.0513Z" fill="#131313"/>
<path fill-rule="evenodd" clip-rule="evenodd" d="M129.765 51.9478C129.571 51.9478 129.376 51.8855 129.212 51.7569C126.863 49.9174 124.026 48.5914 120.782 47.8161C118.007 47.1532 114.99 46.899 111.812 47.0606C111.318 47.0853 110.896 46.7047 110.87 46.2097C110.845 45.7148 111.226 45.2932 111.721 45.2679C115.069 45.0977 118.258 45.3677 121.199 46.0703C124.697 46.9061 127.765 48.3438 130.319 50.3438C130.709 50.6494 130.778 51.2133 130.472 51.6037C130.295 51.8296 130.031 51.9478 129.765 51.9478Z" fill="#131313"/>
</svg>
