<svg width="221" height="200" viewBox="0 0 221 200" fill="none" xmlns="http://www.w3.org/2000/svg">
<g clip-path="url(#clip0)">
<path fill-rule="evenodd" clip-rule="evenodd" d="M85.4947 7.96526C89.097 6.78537 93.01 8.76726 94.1899 12.3696C95.3699 15.972 93.388 19.8847 89.7855 21.0648L78.2608 24.8399L86.8624 27.1121C88.1051 27.4397 88.8537 28.7244 88.5263 29.9671C88.1987 31.2098 86.9139 31.9585 85.6714 31.6311L70.0927 27.5155L16.2039 45.1674L33.5173 86.9774C40.422 58.4975 64.123 36.5815 93.5414 32.3084L94.2617 30.4986C95.3228 27.8329 96.3839 25.1671 97.4421 22.5003C97.8349 21.5104 98.2215 20.5179 98.6081 19.5254L98.6087 19.5239L98.6105 19.5194L98.6123 19.5149C98.7851 19.0713 98.9579 18.6276 99.1313 18.1842C99.9477 16.7886 100.89 16.9696 102.014 17.6613C105.665 19.9073 109.319 22.1491 112.973 24.3908L115.659 26.0384C118.822 27.9794 121.985 29.9202 125.149 31.861L125.18 31.8803C129.886 34.7673 134.591 37.6543 139.297 40.5418C139.61 40.7339 139.921 40.9286 140.233 41.1233L140.234 41.1239L140.234 41.1242C140.589 41.3458 140.944 41.5673 141.301 41.7852C141.431 41.8646 141.555 41.9466 141.667 42.0351C152.079 48.3517 160.775 57.2124 166.894 67.7549L218.586 116.942C221.332 119.555 221.441 123.939 218.828 126.686C217.888 127.674 216.717 128.318 215.477 128.62L186.397 140.031L187.703 154.196C188.051 157.97 185.247 161.343 181.473 161.691C177.698 162.039 174.325 159.236 173.977 155.461L173.109 146.049L170.708 152.637C170.268 153.845 168.921 154.473 167.713 154.034C166.505 153.594 165.877 152.247 166.316 151.039L172.348 134.491C172.454 133.987 172.617 133.501 172.828 133.041C173.486 131.256 174.87 129.746 176.77 129.001L201.192 119.418L176.161 95.6006C176.49 98.402 176.659 101.252 176.659 104.142C176.659 132.481 160.419 157.028 136.738 168.983V206.36V211.194V249.324V250.577V265.466C136.738 266.582 135.825 267.494 134.709 267.494H107.891C105.837 267.494 104.157 265.814 104.157 263.761V262.237C104.157 260.107 105.899 258.365 108.029 258.365H122.285C122.654 258.365 122.954 258.065 122.954 257.696V250.577V249.324V211.194V206.36V174.252C116.932 175.87 110.6 176.733 104.067 176.733C97.7283 176.733 91.5791 175.921 85.7181 174.394V206.36V211.194V249.324V250.577V265.466C85.7181 266.582 84.8051 267.494 83.6895 267.494H56.8711C54.8174 267.494 53.1372 265.814 53.1372 263.761V262.237C53.1372 260.107 54.8795 258.365 57.0091 258.365H71.2656C71.6347 258.365 71.9339 258.065 71.9339 257.696V250.577V249.324V211.194V206.36V169.252C54.5817 160.671 41.1522 145.359 35.0583 126.727L0.65833 43.6556C-0.338433 41.2482 0.143121 38.5812 1.6789 36.6779C2.49396 35.6183 3.62194 34.7839 4.98086 34.3387L68.6527 13.4822H68.6528L85.4947 7.96526Z" fill="#05BF8E"/>
<path fill-rule="evenodd" clip-rule="evenodd" d="M96.5452 97.9324C96.5171 97.9324 88.6148 97.2845 88.6148 97.2845C88.1212 97.2385 87.7586 96.801 87.8047 96.3075C87.8509 95.8141 88.2888 95.451 88.7818 95.4974L96.6275 96.1413C97.1211 96.1875 97.4838 96.6249 97.4376 97.1184C97.3943 97.5835 97.0031 97.9324 96.5452 97.9324Z" fill="#131313"/>
<path fill-rule="evenodd" clip-rule="evenodd" d="M97.322 71.6617C97.322 64.6402 91.6298 58.948 84.6083 58.948C77.5867 58.948 71.8945 64.6402 71.8945 71.6617C71.8945 78.6833 77.5867 84.3755 84.6083 84.3755C91.6298 84.3755 97.322 78.6833 97.322 71.6617Z" fill="white"/>
<path fill-rule="evenodd" clip-rule="evenodd" d="M88.5842 67.6736C88.5842 64.094 85.6823 61.1921 82.1026 61.1921C78.5229 61.1921 75.6211 64.094 75.6211 67.6736C75.6211 71.2534 78.5229 74.1553 82.1026 74.1553C85.6823 74.1553 88.5842 71.2534 88.5842 67.6736Z" fill="#131313"/>
<path fill-rule="evenodd" clip-rule="evenodd" d="M135.513 71.6617C135.513 64.6402 129.821 58.948 122.8 58.948C115.778 58.948 110.086 64.6402 110.086 71.6617C110.086 78.6833 115.778 84.3755 122.8 84.3755C129.821 84.3755 135.513 78.6833 135.513 71.6617Z" fill="white"/>
<path fill-rule="evenodd" clip-rule="evenodd" d="M126.775 67.6736C126.775 64.094 123.874 61.1921 120.294 61.1921C116.714 61.1921 113.812 64.094 113.812 67.6736C113.812 71.2534 116.714 74.1553 120.294 74.1553C123.874 74.1553 126.775 71.2534 126.775 67.6736Z" fill="#131313"/>
<path fill-rule="evenodd" clip-rule="evenodd" d="M109.19 86.1705H97.4798C96.096 86.1705 94.9084 85.8189 94.0457 85.1535C92.9267 84.2906 92.3594 82.9652 92.3594 81.214C92.3594 79.8841 92.9102 78.6373 93.9102 77.7035C94.8803 76.7975 96.1481 76.2986 97.4798 76.2986H109.19C109.686 76.2986 110.088 76.7003 110.088 77.196C110.088 77.6917 109.686 78.0934 109.19 78.0934H97.4798C96.6173 78.0934 95.7627 78.4294 95.1352 79.0153C94.5027 79.6061 94.1542 80.3868 94.1542 81.214C94.1542 82.3961 94.4771 83.2197 95.1416 83.7321C95.8314 84.2639 96.7938 84.3756 97.4798 84.3756H109.19C109.686 84.3756 110.088 84.7773 110.088 85.273C110.088 85.7686 109.686 86.1705 109.19 86.1705Z" fill="#131313"/>
<path fill-rule="evenodd" clip-rule="evenodd" d="M84.0398 57.0513C83.1345 57.0513 82.2296 57.0093 81.3284 56.9251C79.3324 56.7386 77.3361 56.3358 75.5556 55.7606C74.0558 55.276 72.7216 54.6729 71.799 54.0628C71.3854 53.7895 71.2721 53.2325 71.5455 52.8192C71.8188 52.4058 72.3756 52.2923 72.7889 52.5657C74.2178 53.5106 77.3553 54.7511 81.4952 55.138C84.9259 55.4586 90.2168 55.2703 95.9406 52.5534C96.3884 52.3409 96.9238 52.5315 97.1363 52.9792C97.3488 53.427 97.1581 53.9624 96.7104 54.1749C94.1097 55.4094 91.3743 56.2577 88.5802 56.6969C87.0773 56.933 85.5582 57.0513 84.0398 57.0513Z" fill="#131313"/>
<path fill-rule="evenodd" clip-rule="evenodd" d="M134.765 58.9478C134.571 58.9478 134.376 58.8855 134.212 58.7569C131.863 56.9174 129.026 55.5914 125.782 54.8161C123.007 54.1532 119.99 53.899 116.812 54.0606C116.318 54.0853 115.896 53.7047 115.87 53.2097C115.845 52.7148 116.226 52.2932 116.721 52.2679C120.069 52.0977 123.258 52.3677 126.199 53.0703C129.697 53.9061 132.765 55.3438 135.319 57.3438C135.709 57.6494 135.778 58.2133 135.472 58.6037C135.295 58.8296 135.031 58.9478 134.765 58.9478Z" fill="#131313"/>
</g>
<path fill-rule="evenodd" clip-rule="evenodd" d="M218.573 117.083L164.704 65.3824C161.941 62.7314 157.531 62.8419 154.902 65.628C152.274 68.4141 152.383 72.8628 155.145 75.5138L201.076 119.595L176.51 129.318C174.599 130.074 173.207 131.605 172.545 133.417C172.332 133.884 172.169 134.377 172.062 134.888L165.995 151.677C165.553 152.902 166.185 154.27 167.4 154.716C168.615 155.161 169.97 154.524 170.412 153.298L172.828 146.614L173.7 156.164C174.051 159.993 177.444 162.838 181.241 162.485C185.037 162.132 187.858 158.71 187.507 154.88L186.194 140.508L215.446 128.931C216.693 128.625 217.87 127.971 218.816 126.969C221.444 124.183 221.335 119.734 218.573 117.083Z" fill="#05BF8E"/>
<path fill-rule="evenodd" clip-rule="evenodd" d="M94.6577 12.4004C93.472 8.77467 89.5396 6.77993 85.9193 7.96747L68.9937 13.5202H68.9935L5.00495 34.5119C3.63928 34.96 2.50569 35.7998 1.68657 36.8662C0.143153 38.7819 -0.340796 41.4662 0.660925 43.8892L36.1502 129.72C37.6077 133.245 41.6798 134.935 45.1995 133.475C48.7192 132.015 50.4066 127.937 48.949 124.412L16.2838 45.4108L70.4406 27.6444L86.0969 31.7867C87.3456 32.1162 88.6368 31.3627 88.966 30.1119C89.2951 28.8612 88.5427 27.5682 87.2938 27.2385L78.6494 24.9515L90.2315 21.1519C93.8519 19.9642 95.8437 16.0261 94.6577 12.4004Z" fill="#05BF8E"/>
<defs>
<clipPath id="clip0">
<rect x="5.5" width="200" height="200" rx="100" fill="white"/>
</clipPath>
</defs>
</svg>
