<svg width="81" height="80" viewBox="0 0 81 80" fill="none" xmlns="http://www.w3.org/2000/svg">
<circle cx="40.5" cy="40" r="40" fill="#F2994A"/>
<path fill-rule="evenodd" clip-rule="evenodd" d="M52.1787 47.4721H28.1074C27.7849 47.4721 27.5234 47.2106 27.5234 46.8881C27.5234 46.5656 27.7849 46.3042 28.1074 46.3042H52.1787C52.5012 46.3042 52.7627 46.5656 52.7627 46.8881C52.7627 47.2106 52.5012 47.4721 52.1787 47.4721Z" fill="#131313"/>
<path fill-rule="evenodd" clip-rule="evenodd" d="M35.9903 30.8623C35.9903 26.2935 32.2866 22.5898 27.7178 22.5898C23.149 22.5898 19.4453 26.2935 19.4453 30.8623C19.4453 35.4311 23.149 39.1348 27.7178 39.1348C32.2866 39.1348 35.9903 35.4311 35.9903 30.8623Z" fill="white"/>
<path fill-rule="evenodd" clip-rule="evenodd" d="M31.9347 30.8297C31.9347 28.5005 30.0465 26.6123 27.7174 26.6123C25.3882 26.6123 23.5 28.5005 23.5 30.8297C23.5 33.1588 25.3882 35.047 27.7174 35.047C30.0465 35.047 31.9347 33.1588 31.9347 30.8297Z" fill="#131313"/>
<path fill-rule="evenodd" clip-rule="evenodd" d="M60.8399 30.8623C60.8399 26.2935 57.1362 22.5898 52.5674 22.5898C47.9986 22.5898 44.2949 26.2935 44.2949 30.8623C44.2949 35.4311 47.9986 39.1348 52.5674 39.1348C57.1362 39.1348 60.8399 35.4311 60.8399 30.8623Z" fill="white"/>
<path fill-rule="evenodd" clip-rule="evenodd" d="M56.7863 30.8297C56.7863 28.5005 54.8981 26.6123 52.5689 26.6123C50.2397 26.6123 48.3516 28.5005 48.3516 30.8297C48.3516 33.1588 50.2397 35.047 52.5689 35.047C54.8981 35.047 56.7863 33.1588 56.7863 30.8297Z" fill="#131313"/>
<path fill-rule="evenodd" clip-rule="evenodd" d="M43.7111 40.3028H36.0915C35.1911 40.3028 34.4184 40.074 33.857 39.6411C33.1289 39.0797 32.7598 38.2172 32.7598 37.0778C32.7598 36.2124 33.1181 35.4012 33.7689 34.7935C34.4001 34.204 35.225 33.8794 36.0915 33.8794H43.7111C44.0336 33.8794 44.2951 34.1408 44.2951 34.4633C44.2951 34.7858 44.0336 35.0473 43.7111 35.0473H36.0915C35.5302 35.0473 34.9742 35.2659 34.5659 35.6471C34.1544 36.0315 33.9277 36.5395 33.9277 37.0778C33.9277 37.8469 34.1378 38.3828 34.5702 38.7162C35.0189 39.0623 35.6452 39.1349 36.0915 39.1349H43.7111C44.0336 39.1349 44.2951 39.3964 44.2951 39.7189C44.2951 40.0414 44.0336 40.3028 43.7111 40.3028Z" fill="#131313"/>
<path fill-rule="evenodd" clip-rule="evenodd" d="M19.4453 26.6122H35.9903V22.2002H19.4453V26.6122Z" fill="#F2994A"/>
<path fill-rule="evenodd" clip-rule="evenodd" d="M44.2949 26.6122H60.8399V22.2002H44.2949V26.6122Z" fill="#F2994A"/>
<path fill-rule="evenodd" clip-rule="evenodd" d="M35.3095 19.5727H19.9648C19.6423 19.5727 19.3809 19.3112 19.3809 18.9887C19.3809 18.6662 19.6423 18.4048 19.9648 18.4048H35.3095C35.632 18.4048 35.8934 18.6662 35.8934 18.9887C35.8934 19.3112 35.632 19.5727 35.3095 19.5727Z" fill="#131313"/>
<path fill-rule="evenodd" clip-rule="evenodd" d="M60.3212 19.5727H44.9765C44.654 19.5727 44.3926 19.3112 44.3926 18.9887C44.3926 18.6662 44.654 18.4048 44.9765 18.4048H60.3212C60.6437 18.4048 60.9052 18.6662 60.9052 18.9887C60.9052 19.3112 60.6437 19.5727 60.3212 19.5727Z" fill="#131313"/>
</svg>
