<svg width="200" height="200" viewBox="0 0 200 200" fill="none" xmlns="http://www.w3.org/2000/svg">
<path fill-rule="evenodd" clip-rule="evenodd" d="M81.6817 5.10284C84.3208 4.23845 87.1874 5.69038 88.0518 8.32946C88.9164 10.9685 87.4644 13.835 84.8252 14.6996L76.3822 17.4652L82.6837 19.1299C83.5941 19.3699 84.1426 20.311 83.9027 21.2214C83.6627 22.1318 82.7215 22.6803 81.8112 22.4404L70.3982 19.4253L30.9193 32.3571L43.6031 62.9872C48.6615 42.1228 66.0249 26.0671 87.5768 22.9367L88.1019 21.6172L88.1041 21.6117L88.1059 21.6072L88.1073 21.6035C88.8837 19.653 89.6601 17.7026 90.4344 15.7513C90.7221 15.0263 91.0053 14.2994 91.2884 13.5725L91.2896 13.5694C91.4169 13.2427 91.5442 12.9159 91.6719 12.5893C92.2701 11.5669 92.9602 11.6995 93.784 12.2062C96.4577 13.8509 99.1334 15.4925 101.809 17.1341L101.811 17.135L101.812 17.136L101.814 17.137L101.815 17.138L103.78 18.3433L110.752 22.621C114.2 24.7367 117.649 26.8524 121.097 28.9685C121.327 29.1094 121.555 29.2522 121.784 29.395C122.044 29.5574 122.304 29.7197 122.565 29.8794C122.661 29.9376 122.752 29.9976 122.834 30.0623C130.461 34.6899 136.832 41.1813 141.315 48.9047L179.184 84.939C181.196 86.8534 181.276 90.0656 179.362 92.0774C178.673 92.8013 177.816 93.2736 176.907 93.4943L155.603 101.854L156.559 112.231C156.814 114.997 154.76 117.468 151.995 117.723C149.23 117.978 146.759 115.924 146.504 113.158L145.868 106.263L144.109 111.089C143.787 111.974 142.8 112.435 141.915 112.113C141.03 111.791 140.57 110.804 140.892 109.919L145.311 97.7958C145.388 97.4264 145.507 97.0707 145.662 96.7333C146.144 95.4255 147.158 94.3196 148.55 93.7735L166.441 86.7531L148.104 69.3045C148.345 71.3569 148.468 73.445 148.468 75.562C148.468 96.3235 136.571 114.306 119.222 123.065V150.447V153.988L119.222 181.923V182.841V193.748C119.222 194.565 118.554 195.234 117.736 195.234H98.089C96.5846 195.234 95.3536 194.003 95.3536 192.499V191.382C95.3536 189.822 96.6301 188.546 98.1902 188.546H108.635C108.905 188.546 109.124 188.326 109.124 188.056V182.841V181.923L109.124 153.988V150.447V126.925C104.712 128.11 100.074 128.742 95.2881 128.742C90.6441 128.742 86.1392 128.147 81.8454 127.029L81.8454 150.447V153.988V181.923V182.841V193.748C81.8454 194.565 81.1766 195.234 80.3593 195.234H60.7121C59.2076 195.234 57.9766 194.003 57.9766 192.499V191.382C57.9766 189.822 59.2531 188.546 60.8132 188.546H71.2575C71.5279 188.546 71.7471 188.326 71.7471 188.056V182.841V181.923V153.988V150.447L71.7471 123.261C59.0349 116.976 49.1965 105.758 44.732 92.1079L19.5306 31.2496C18.8003 29.4859 19.1531 27.5321 20.2782 26.1377C20.8754 25.3615 21.7017 24.7502 22.6973 24.424L69.3433 9.14455H69.3434L81.6817 5.10284Z" fill="#05BF8E"/>
<path fill-rule="evenodd" clip-rule="evenodd" d="M89.7773 71.0129C89.7567 71.0129 83.9674 70.5383 83.9674 70.5383C83.6059 70.5046 83.3402 70.184 83.374 69.8224C83.4078 69.461 83.7286 69.195 84.0898 69.229L89.8376 69.7007C90.1992 69.7346 90.4649 70.055 90.431 70.4166C90.3993 70.7573 90.1127 71.0129 89.7773 71.0129Z" fill="#131313"/>
<path fill-rule="evenodd" clip-rule="evenodd" d="M90.347 51.7672C90.347 46.6232 86.1769 42.4531 81.0329 42.4531C75.8889 42.4531 71.7188 46.6232 71.7188 51.7672C71.7188 56.9112 75.8889 61.0813 81.0329 61.0813C86.1769 61.0813 90.347 56.9112 90.347 51.7672Z" fill="white"/>
<path fill-rule="evenodd" clip-rule="evenodd" d="M83.946 48.8455C83.946 46.2231 81.8201 44.0972 79.1975 44.0972C76.5751 44.0972 74.4492 46.2231 74.4492 48.8455C74.4492 51.4681 76.5751 53.594 79.1975 53.594C81.8201 53.594 83.946 51.4681 83.946 48.8455Z" fill="#131313"/>
<path fill-rule="evenodd" clip-rule="evenodd" d="M118.325 51.7672C118.325 46.6232 114.155 42.4531 109.011 42.4531C103.867 42.4531 99.6973 46.6232 99.6973 51.7672C99.6973 56.9112 103.867 61.0813 109.011 61.0813C114.155 61.0813 118.325 56.9112 118.325 51.7672Z" fill="white"/>
<path fill-rule="evenodd" clip-rule="evenodd" d="M111.924 48.8455C111.924 46.2231 109.799 44.0972 107.176 44.0972C104.554 44.0972 102.428 46.2231 102.428 48.8455C102.428 51.4681 104.554 53.594 107.176 53.594C109.799 53.594 111.924 51.4681 111.924 48.8455Z" fill="#131313"/>
<path fill-rule="evenodd" clip-rule="evenodd" d="M99.0412 62.3962H90.4622C89.4484 62.3962 88.5783 62.1386 87.9463 61.6512C87.1265 61.019 86.7109 60.048 86.7109 58.7651C86.7109 57.7908 87.1145 56.8774 87.8471 56.1933C88.5578 55.5296 89.4865 55.1641 90.4622 55.1641H99.0412C99.4043 55.1641 99.6986 55.4584 99.6986 55.8215C99.6986 56.1847 99.4043 56.4789 99.0412 56.4789H90.4622C89.8303 56.4789 89.2042 56.7251 88.7445 57.1544C88.2812 57.5871 88.0258 58.1591 88.0258 58.7651C88.0258 59.6311 88.2624 60.2345 88.7492 60.6098C89.2545 60.9995 89.9596 61.0813 90.4622 61.0813H99.0412C99.4043 61.0813 99.6986 61.3756 99.6986 61.7388C99.6986 62.1018 99.4043 62.3962 99.0412 62.3962Z" fill="#131313"/>
<path fill-rule="evenodd" clip-rule="evenodd" d="M80.616 41.0633C79.9528 41.0633 79.2898 41.0324 78.6296 40.9708C77.1673 40.8342 75.7049 40.5391 74.4005 40.1177C73.3018 39.7627 72.3243 39.3208 71.6484 38.8739C71.3454 38.6736 71.2624 38.2656 71.4627 37.9628C71.6629 37.66 72.0708 37.5768 72.3736 37.7771C73.4204 38.4693 75.7189 39.3781 78.7519 39.6616C81.2652 39.8964 85.1413 39.7585 89.3346 37.768C89.6626 37.6124 90.0549 37.752 90.2105 38.08C90.3662 38.408 90.2265 38.8003 89.8985 38.956C87.9932 39.8604 85.9893 40.4819 83.9423 40.8036C82.8413 40.9766 81.7284 41.0633 80.616 41.0633Z" fill="#131313"/>
<path fill-rule="evenodd" clip-rule="evenodd" d="M117.779 42.4528C117.637 42.4528 117.494 42.4072 117.374 42.313C115.653 40.9653 113.575 39.9939 111.198 39.4259C109.165 38.9403 106.954 38.7541 104.627 38.8725C104.264 38.8906 103.955 38.6118 103.936 38.2491C103.918 37.8865 104.197 37.5777 104.56 37.5592C107.013 37.4344 109.349 37.6322 111.503 38.147C114.066 38.7593 116.313 39.8125 118.184 41.2777C118.47 41.5016 118.52 41.9147 118.297 42.2007C118.167 42.3662 117.974 42.4528 117.779 42.4528Z" fill="#131313"/>
</svg>
