<svg width="162" height="192" viewBox="0 0 162 192" fill="none" xmlns="http://www.w3.org/2000/svg">
<path fill-rule="evenodd" clip-rule="evenodd" d="M62.6817 1.10284C65.3208 0.238447 68.1874 1.69038 69.0518 4.32946C69.9164 6.96855 68.4644 9.83504 65.8252 10.6996L57.3822 13.4652L63.6837 15.1299C64.5941 15.3699 65.1426 16.311 64.9027 17.2214C64.6627 18.1318 63.7215 18.6803 62.8112 18.4404L51.3982 15.4253L11.9193 28.3571L24.6031 58.9872C29.6615 38.1228 47.0249 22.0671 68.5768 18.9367L69.1019 17.6172L69.1041 17.6117L69.1059 17.6072L69.1073 17.6035C69.8837 15.653 70.6601 13.7026 71.4344 11.7513C71.7221 11.0263 72.0053 10.2994 72.2884 9.57249L72.2896 9.56941C72.4169 9.24266 72.5442 8.9159 72.6719 8.5893C73.2701 7.56688 73.9602 7.69947 74.784 8.20622C77.4577 9.85092 80.1334 11.4925 82.8091 13.1341L82.8106 13.135L82.8122 13.136L82.8138 13.137L82.8154 13.138L84.7799 14.3433L91.752 18.621C95.2004 20.7367 98.6488 22.8524 102.097 24.9685C102.327 25.1094 102.555 25.2522 102.784 25.395C103.044 25.5574 103.304 25.7197 103.565 25.8794C103.661 25.9376 103.752 25.9976 103.834 26.0623C111.461 30.6899 117.832 37.1813 122.315 44.9047L160.184 80.939C162.196 82.8534 162.276 86.0656 160.362 88.0774C159.673 88.8013 158.816 89.2736 157.907 89.4943L136.603 97.854L137.559 108.231C137.814 110.997 135.76 113.468 132.995 113.723C130.23 113.978 127.759 111.924 127.504 109.158L126.868 102.263L125.109 107.089C124.787 107.974 123.8 108.435 122.915 108.113C122.03 107.791 121.57 106.804 121.892 105.919L126.311 93.7958C126.388 93.4264 126.507 93.0707 126.662 92.7333C127.144 91.4255 128.158 90.3196 129.55 89.7735L147.441 82.7531L129.104 65.3045C129.345 67.3569 129.468 69.445 129.468 71.562C129.468 92.3235 117.571 110.306 100.222 119.065V146.447V149.988L100.222 177.923V178.841V189.748C100.222 190.565 99.5536 191.234 98.7363 191.234H79.089C77.5846 191.234 76.3536 190.003 76.3536 188.499V187.382C76.3536 185.822 77.6301 184.546 79.1902 184.546H89.6347C89.9048 184.546 90.1241 184.326 90.1241 184.056V178.841V177.923L90.1241 149.988V146.447V122.925C85.7124 124.11 81.0741 124.742 76.2881 124.742C71.6441 124.742 67.1392 124.147 62.8454 123.029L62.8454 146.447V149.988V177.923V178.841V189.748C62.8454 190.565 62.1766 191.234 61.3593 191.234H41.7121C40.2076 191.234 38.9766 190.003 38.9766 188.499V187.382C38.9766 185.822 40.2531 184.546 41.8132 184.546H52.2575C52.5279 184.546 52.7471 184.326 52.7471 184.056V178.841V177.923V149.988V146.447L52.7471 119.261C40.0349 112.976 30.1965 101.758 25.732 88.1079L0.53057 27.2496C-0.199659 25.4859 0.153128 23.5321 1.27824 22.1377C1.87536 21.3615 2.70172 20.7502 3.69726 20.424L50.3433 5.14455H50.3434L62.6817 1.10284Z" fill="#05BF8E"/>
<path fill-rule="evenodd" clip-rule="evenodd" d="M70.7773 67.0129C70.7567 67.0129 64.9674 66.5383 64.9674 66.5383C64.6059 66.5046 64.3402 66.184 64.374 65.8224C64.4078 65.461 64.7286 65.195 65.0898 65.229L70.8376 65.7007C71.1992 65.7346 71.4649 66.055 71.431 66.4166C71.3993 66.7573 71.1127 67.0129 70.7773 67.0129Z" fill="#131313"/>
<path fill-rule="evenodd" clip-rule="evenodd" d="M71.347 47.7672C71.347 42.6232 67.1769 38.4531 62.0329 38.4531C56.8889 38.4531 52.7188 42.6232 52.7188 47.7672C52.7188 52.9112 56.8889 57.0813 62.0329 57.0813C67.1769 57.0813 71.347 52.9112 71.347 47.7672Z" fill="white"/>
<path fill-rule="evenodd" clip-rule="evenodd" d="M64.946 44.8455C64.946 42.2231 62.8201 40.0972 60.1975 40.0972C57.5751 40.0972 55.4492 42.2231 55.4492 44.8455C55.4492 47.4681 57.5751 49.594 60.1975 49.594C62.8201 49.594 64.946 47.4681 64.946 44.8455Z" fill="#131313"/>
<path fill-rule="evenodd" clip-rule="evenodd" d="M99.3255 47.7672C99.3255 42.6232 95.1554 38.4531 90.0114 38.4531C84.8674 38.4531 80.6973 42.6232 80.6973 47.7672C80.6973 52.9112 84.8674 57.0813 90.0114 57.0813C95.1554 57.0813 99.3255 52.9112 99.3255 47.7672Z" fill="white"/>
<path fill-rule="evenodd" clip-rule="evenodd" d="M92.9244 44.8455C92.9244 42.2231 90.7985 40.0972 88.1761 40.0972C85.5536 40.0972 83.4277 42.2231 83.4277 44.8455C83.4277 47.4681 85.5536 49.594 88.1761 49.594C90.7985 49.594 92.9244 47.4681 92.9244 44.8455Z" fill="#131313"/>
<path fill-rule="evenodd" clip-rule="evenodd" d="M80.0412 58.3962H71.4622C70.4484 58.3962 69.5783 58.1386 68.9463 57.6512C68.1265 57.019 67.7109 56.048 67.7109 54.7651C67.7109 53.7908 68.1145 52.8774 68.8471 52.1933C69.5578 51.5296 70.4865 51.1641 71.4622 51.1641H80.0412C80.4043 51.1641 80.6986 51.4584 80.6986 51.8215C80.6986 52.1847 80.4043 52.4789 80.0412 52.4789H71.4622C70.8303 52.4789 70.2042 52.7251 69.7445 53.1544C69.2812 53.5871 69.0258 54.1591 69.0258 54.7651C69.0258 55.6311 69.2624 56.2345 69.7492 56.6098C70.2545 56.9995 70.9596 57.0813 71.4622 57.0813H80.0412C80.4043 57.0813 80.6986 57.3756 80.6986 57.7388C80.6986 58.1018 80.4043 58.3962 80.0412 58.3962Z" fill="#131313"/>
<path fill-rule="evenodd" clip-rule="evenodd" d="M61.616 37.0633C60.9528 37.0633 60.2898 37.0324 59.6296 36.9708C58.1673 36.8342 56.7049 36.5391 55.4005 36.1177C54.3018 35.7627 53.3243 35.3208 52.6484 34.8739C52.3454 34.6736 52.2624 34.2656 52.4627 33.9628C52.6629 33.66 53.0708 33.5768 53.3736 33.7771C54.4204 34.4693 56.7189 35.3781 59.7519 35.6616C62.2652 35.8964 66.1413 35.7585 70.3346 33.768C70.6626 33.6124 71.0549 33.752 71.2105 34.08C71.3662 34.408 71.2265 34.8003 70.8985 34.956C68.9932 35.8604 66.9893 36.4819 64.9423 36.8036C63.8413 36.9766 62.7284 37.0633 61.616 37.0633Z" fill="#131313"/>
<path fill-rule="evenodd" clip-rule="evenodd" d="M98.7786 38.4528C98.6368 38.4528 98.494 38.4072 98.3736 38.313C96.6525 36.9653 94.5745 35.9939 92.1976 35.4259C90.165 34.9403 87.9543 34.7541 85.6265 34.8725C85.264 34.8906 84.9549 34.6118 84.9364 34.2491C84.9179 33.8865 85.197 33.5777 85.5598 33.5592C88.0126 33.4344 90.3488 33.6322 92.5031 34.147C95.0655 34.7593 97.3133 35.8125 99.1844 37.2777C99.4701 37.5016 99.5205 37.9147 99.2966 38.2007C99.1671 38.3662 98.9737 38.4528 98.7786 38.4528Z" fill="#131313"/>
</svg>
