<svg width="476" height="400" viewBox="0 0 476 400" fill="none" xmlns="http://www.w3.org/2000/svg">
<g clip-path="url(#clip0)">
<rect x="32" width="400" height="400" rx="200" fill="#94DBF2"/>
<path fill-rule="evenodd" clip-rule="evenodd" d="M383.29 210.798C383.29 290.979 318.29 355.98 238.108 355.98C157.926 355.98 92.9258 290.979 92.9258 210.798C92.9258 130.615 157.926 65.6152 238.108 65.6152C318.29 65.6152 383.29 130.615 383.29 210.798Z" fill="#05BF8E"/>
<path fill-rule="evenodd" clip-rule="evenodd" d="M288.343 76.2164C288.514 74.6325 287.458 74.041 286.22 73.5823C284.742 73.0346 283.274 72.4585 281.797 71.9075C264.431 65.4282 247.063 58.9517 229.697 52.4734C219.67 48.7331 209.643 44.9966 199.621 41.2452C197.142 40.3172 195.218 40.324 194.149 43.3848C193.596 46.4327 193.056 49.4832 192.488 52.5286C191.002 60.4941 189.503 68.4578 188.01 76.4223C187.322 80.2342 186.646 84.048 185.943 87.8571C185.275 91.4818 185.548 91.8341 189.246 91.3447C212.154 88.314 235.059 85.2589 257.964 82.2002C267.193 80.9678 276.418 79.7097 285.644 78.4548C287.465 78.2071 288.196 77.583 288.343 76.2164Z" fill="#05BF8E"/>
<path fill-rule="evenodd" clip-rule="evenodd" d="M297.383 291.02H297.383C289.902 289.791 282.775 294.905 281.546 302.387L262.26 419.718C261.841 421.155 261.674 422.688 261.814 424.263L270.047 516.841C270.179 518.325 269.01 519.602 267.52 519.602H241.017C236.759 519.602 233.273 523.087 233.273 527.346V530.394C233.273 534.502 236.634 537.862 240.741 537.862H294.378C296.61 537.862 298.435 536.036 298.435 533.805V525.403C298.435 525.157 298.415 524.916 298.385 524.677C298.395 524.546 298.398 524.413 298.386 524.277L289.477 424.106L308.749 306.858C309.979 299.377 304.865 292.25 297.383 291.02Z" fill="#05BF8E"/>
<path fill-rule="evenodd" clip-rule="evenodd" d="M194.27 291.02C186.789 289.791 179.662 294.905 178.432 302.387L159.146 419.718C158.728 421.155 158.56 422.688 158.7 424.263L166.934 516.841C167.066 518.325 165.896 519.602 164.407 519.602H137.904C133.645 519.602 130.16 523.087 130.16 527.346V530.394C130.16 534.502 133.521 537.862 137.628 537.862H191.265C193.496 537.862 195.322 536.036 195.322 533.805V525.403C195.322 525.157 195.302 524.916 195.272 524.677C195.282 524.546 195.285 524.413 195.273 524.277L186.363 424.106L205.636 306.858C206.865 299.377 201.751 292.25 194.27 291.02Z" fill="#05BF8E"/>
<path fill-rule="evenodd" clip-rule="evenodd" d="M186.214 80.7836C184.656 73.3641 177.31 68.5686 169.891 70.1267L146.154 75.1123L158.78 62.5754C160.605 60.7652 160.618 57.7914 158.808 55.9665C156.998 54.1416 154.024 54.1295 152.199 55.9393L129.33 78.6454L11.3961 103.414C3.97662 104.973 -0.819233 112.318 0.739283 119.738C1.28994 122.359 2.56525 124.65 4.30887 126.452L115.717 288.298C120.015 294.543 128.642 296.135 134.887 291.836C141.131 287.538 142.724 278.911 138.425 272.666L37.5318 126.095L137.365 105.128H137.365L175.557 97.1066C182.977 95.5485 187.772 88.2031 186.214 80.7836Z" fill="#05BF8E"/>
<path fill-rule="evenodd" clip-rule="evenodd" d="M464.85 103.414L346.915 78.6457L324.047 55.9393C322.222 54.1294 319.248 54.1416 317.438 55.9668C315.628 57.7914 315.641 60.7655 317.465 62.5754L330.092 75.1123L306.355 70.127C298.936 68.5689 291.59 73.3644 290.032 80.7839C288.474 88.2034 293.27 95.5488 300.689 97.107L338.881 105.128L438.714 126.095L337.821 272.667C333.522 278.911 335.115 287.538 341.359 291.837C347.604 296.135 356.231 294.543 360.529 288.298L471.937 126.453C473.68 124.651 474.956 122.359 475.507 119.737C477.065 112.318 472.269 104.973 464.85 103.414Z" fill="#05BF8E"/>
<path fill-rule="evenodd" clip-rule="evenodd" d="M186.217 80.7847C187.775 88.2043 182.979 95.5497 175.56 97.1078L138.9 104.807C137.564 106.058 136.252 107.334 134.965 108.635C135.992 108.609 137.021 108.495 138.03 108.283L176.222 100.261C185.399 98.3341 191.297 89.2998 189.37 80.1224C188.965 78.194 188.233 76.3967 187.243 74.7812C186.217 75.1651 185.198 75.56 184.183 75.966C185.139 77.3888 185.844 79.011 186.217 80.7847Z" fill="#0C7154"/>
<path fill-rule="evenodd" clip-rule="evenodd" d="M290.034 80.7847C288.476 88.2043 293.271 95.5497 300.691 97.1078L337.351 104.807C338.687 106.058 339.999 107.334 341.286 108.635C340.259 108.609 339.23 108.495 338.221 108.283L300.029 100.261C290.851 98.3341 284.954 89.2998 286.88 80.1224C287.286 78.194 288.017 76.3967 289.008 74.7812C290.033 75.1651 291.053 75.56 292.068 75.966C291.112 77.3888 290.407 79.011 290.034 80.7847Z" fill="#0C7154"/>
<path fill-rule="evenodd" clip-rule="evenodd" d="M275.336 242.015C261.541 246.65 254.864 236.187 227.758 236.187C200.653 236.187 193.976 246.65 180.181 242.015C170.168 238.651 164.379 229.343 164.379 221.837C164.379 204.298 187.499 184.068 227.758 184.068C268.018 184.068 291.138 204.298 291.138 221.837C291.138 229.343 285.348 238.651 275.336 242.015Z" fill="#131313"/>
<path fill-rule="evenodd" clip-rule="evenodd" d="M239.015 175.036H215.609C212.844 175.036 210.47 174.333 208.746 173.003C206.509 171.279 205.375 168.63 205.375 165.129C205.375 162.471 206.476 159.979 208.475 158.113C210.414 156.302 212.948 155.305 215.609 155.305H239.015C240.006 155.305 240.809 156.108 240.809 157.098C240.809 158.089 240.006 158.893 239.015 158.893H215.609C213.885 158.893 212.177 159.564 210.923 160.735C209.659 161.916 208.962 163.476 208.962 165.129C208.962 167.492 209.608 169.138 210.936 170.163C212.315 171.225 214.238 171.449 215.609 171.449H239.015C240.006 171.449 240.809 172.252 240.809 173.243C240.809 174.233 240.006 175.036 239.015 175.036Z" fill="#131313"/>
<path fill-rule="evenodd" clip-rule="evenodd" d="M290.57 144.035C287.271 140.399 283.122 137.617 278.238 135.767C273.743 134.064 268.732 133.237 263.746 133.374C258.998 133.505 254.319 134.51 250.214 136.28C246.005 138.095 242.39 140.727 239.737 143.905C239.209 144.3 238.919 144.97 239.045 145.662C239.223 146.637 240.158 147.283 241.132 147.105C250.304 145.428 267.881 147.204 276 159.107C276.347 159.616 276.911 159.89 277.484 159.89C277.832 159.89 278.183 159.789 278.493 159.577C279.311 159.019 279.522 157.903 278.964 157.085C274.852 151.057 268.219 146.714 259.783 144.526C255.282 143.358 250.341 142.841 245.798 143.014C247.519 141.664 249.485 140.501 251.634 139.574C255.326 137.982 259.548 137.078 263.844 136.96C268.368 136.836 272.906 137.583 276.968 139.122C281.316 140.769 284.998 143.233 287.913 146.445C288.578 147.179 289.712 147.235 290.446 146.569C291.18 145.903 291.235 144.769 290.57 144.035Z" fill="#131313"/>
<path fill-rule="evenodd" clip-rule="evenodd" d="M216.373 143.905C213.719 140.727 210.104 138.095 205.896 136.28C201.79 134.51 197.111 133.505 192.363 133.374C187.377 133.237 182.366 134.064 177.871 135.767C172.987 137.617 168.838 140.399 165.539 144.035C164.874 144.769 164.929 145.903 165.663 146.569C166.397 147.234 167.531 147.179 168.197 146.446C171.111 143.233 174.793 140.769 179.142 139.122C183.204 137.583 187.741 136.836 192.265 136.96C196.562 137.079 200.783 137.982 204.475 139.574C206.624 140.501 208.59 141.663 210.311 143.015C205.768 142.841 200.827 143.358 196.326 144.526C187.89 146.715 181.257 151.058 177.145 157.085C176.587 157.903 176.798 159.019 177.616 159.577C177.926 159.789 178.278 159.889 178.626 159.889C179.198 159.889 179.762 159.616 180.109 159.106C188.229 147.204 205.806 145.428 214.977 147.105C215.952 147.283 216.886 146.637 217.064 145.663C217.191 144.971 216.9 144.3 216.373 143.905Z" fill="#131313"/>
<path fill-rule="evenodd" clip-rule="evenodd" d="M164.476 122.421C164.139 122.421 163.799 122.326 163.496 122.128C162.667 121.586 162.434 120.474 162.976 119.645C166.372 114.452 173.523 107.578 188.308 104.326C189.276 104.112 190.232 104.725 190.445 105.692C190.658 106.66 190.046 107.617 189.079 107.83C175.476 110.822 169.009 116.974 165.979 121.608C165.635 122.135 165.061 122.421 164.476 122.421Z" fill="#131313"/>
<path fill-rule="evenodd" clip-rule="evenodd" d="M291.637 122.421C291.051 122.421 290.478 122.135 290.134 121.608C287.104 116.974 280.636 110.822 267.034 107.829C266.066 107.616 265.454 106.66 265.667 105.692C265.88 104.724 266.837 104.113 267.805 104.325C282.589 107.578 289.74 114.452 293.136 119.645C293.678 120.474 293.446 121.586 292.617 122.128C292.314 122.326 291.973 122.421 291.637 122.421Z" fill="#131313"/>
</g>
<path fill-rule="evenodd" clip-rule="evenodd" d="M186.214 80.7836C184.656 73.3641 177.31 68.5686 169.891 70.1267L146.154 75.1123L158.78 62.5754C160.605 60.7652 160.618 57.7914 158.808 55.9665C156.998 54.1416 154.024 54.1295 152.199 55.9393L129.33 78.6454L11.3961 103.414C3.97662 104.973 -0.819233 112.318 0.739283 119.738C1.28994 122.359 2.56525 124.65 4.30887 126.452L115.717 288.298C120.015 294.543 128.642 296.135 134.887 291.836C141.131 287.538 142.724 278.911 138.425 272.666L37.5318 126.095L137.365 105.128H137.365L175.557 97.1066C182.977 95.5485 187.772 88.2031 186.214 80.7836Z" fill="#05BF8E"/>
<path fill-rule="evenodd" clip-rule="evenodd" d="M464.846 103.414L346.911 78.6457L324.043 55.9393C322.218 54.1294 319.244 54.1416 317.434 55.9668C315.624 57.7914 315.637 60.7655 317.462 62.5754L330.088 75.1123L306.351 70.127C298.932 68.5689 291.586 73.3644 290.028 80.7839C288.47 88.2034 293.266 95.5488 300.685 97.107L338.877 105.128L438.71 126.095L337.817 272.667C333.518 278.911 335.111 287.538 341.355 291.837C347.6 296.135 356.227 294.543 360.525 288.298L471.933 126.453C473.677 124.651 474.952 122.359 475.503 119.737C477.061 112.318 472.266 104.973 464.846 103.414Z" fill="#05BF8E"/>
<defs>
<clipPath id="clip0">
<rect x="32" width="400" height="400" rx="200" fill="white"/>
</clipPath>
</defs>
</svg>
