<svg width="80" height="80" viewBox="0 0 80 80" fill="none" xmlns="http://www.w3.org/2000/svg">
<circle cx="40" cy="40" r="40" fill="#05BF8E"/>
<path fill-rule="evenodd" clip-rule="evenodd" d="M55.0332 43.6312C50.5423 42.1223 48.3687 45.5286 39.5447 45.5286C30.7207 45.5286 28.5471 42.1223 24.0562 43.6312C20.7968 44.7264 18.9121 47.7564 18.9121 50.2001C18.9121 55.9098 26.4385 62.4953 39.5447 62.4953C52.651 62.4953 60.1773 55.9098 60.1773 50.2001C60.1773 47.7564 58.2927 44.7264 55.0332 43.6312Z" fill="#131313"/>
<path fill-rule="evenodd" clip-rule="evenodd" d="M43.2131 40.3033H35.5935C34.693 40.3033 33.9203 40.0745 33.3589 39.6416C32.6309 39.0802 32.2617 38.2177 32.2617 37.0783C32.2617 36.2129 32.6201 35.4017 33.2708 34.794C33.9021 34.2045 34.727 33.8799 35.5935 33.8799H43.2131C43.5356 33.8799 43.797 34.1413 43.797 34.4638C43.797 34.7863 43.5356 35.0478 43.2131 35.0478H35.5935C35.0322 35.0478 34.4761 35.2664 34.0679 35.6476C33.6563 36.032 33.4296 36.54 33.4296 37.0783C33.4296 37.8474 33.6398 38.3833 34.0721 38.7167C34.5209 39.0628 35.1471 39.1354 35.5935 39.1354H43.2131C43.5356 39.1354 43.797 39.3969 43.797 39.7194C43.797 40.0419 43.5356 40.3033 43.2131 40.3033Z" fill="#131313"/>
<path fill-rule="evenodd" clip-rule="evenodd" d="M19.1722 31.676C19.0042 31.676 18.8375 31.6039 18.722 31.4644C18.5164 31.2159 18.5511 30.8478 18.7996 30.6422C20.676 29.0893 23.695 28.203 27.085 28.213C28.6529 28.2172 30.2183 28.4218 31.6121 28.8046C33.1109 29.2162 34.362 29.8093 35.3306 30.5673C35.5846 30.7661 35.6293 31.1331 35.4306 31.3871C35.2318 31.6411 34.8648 31.6858 34.6108 31.4871C32.9361 30.1764 30.1215 29.389 27.0819 29.3808C25.6031 29.3773 24.1419 29.5633 22.8599 29.9201C21.5043 30.2973 20.3887 30.843 19.5441 31.542C19.4352 31.6321 19.3033 31.676 19.1722 31.676Z" fill="#131313"/>
<path fill-rule="evenodd" clip-rule="evenodd" d="M60.0153 31.677C59.8842 31.677 59.7523 31.6331 59.6433 31.5429C58.7988 30.844 57.6832 30.2983 56.3275 29.921C55.0591 29.568 53.6161 29.3817 52.1521 29.3817C52.1365 29.3817 52.1211 29.3817 52.1056 29.3818C49.066 29.39 46.2514 30.1774 44.5767 31.488C44.3227 31.6867 43.9556 31.642 43.7569 31.3881C43.5582 31.1341 43.6029 30.7671 43.8569 30.5683C44.8255 29.8103 46.0766 29.2172 47.5754 28.8055C48.9692 28.4227 50.5346 28.2181 52.1025 28.2139C52.1196 28.2139 52.1372 28.2139 52.1543 28.2139C55.5224 28.2139 58.521 29.0981 60.3879 30.6432C60.6364 30.8488 60.6711 31.2169 60.4655 31.4654C60.35 31.6049 60.1833 31.677 60.0153 31.677Z" fill="#131313"/>
<path fill-rule="evenodd" clip-rule="evenodd" d="M18.9457 23.4018C18.7752 23.4018 18.6062 23.3275 18.4908 23.1845C18.2883 22.9335 18.3276 22.5659 18.5786 22.3634C21.7419 19.8112 26.1208 18.3712 30.9085 18.3086C30.9111 18.3086 30.9137 18.3086 30.9163 18.3086C31.2352 18.3086 31.4958 18.565 31.5 18.8849C31.5042 19.2074 31.2463 19.4722 30.9238 19.4764C26.3964 19.5356 22.2726 20.8837 19.312 23.2723C19.204 23.3595 19.0744 23.4018 18.9457 23.4018Z" fill="#131313"/>
<path fill-rule="evenodd" clip-rule="evenodd" d="M60.3415 23.4018C60.2127 23.4018 60.0832 23.3595 59.9752 23.2723C57.0145 20.8837 52.8907 19.5356 48.3634 19.4764C48.0409 19.4722 47.7829 19.2074 47.7872 18.8849C47.7913 18.565 48.052 18.3086 48.3709 18.3086C48.3735 18.3086 48.376 18.3086 48.3787 18.3086C53.1664 18.3712 57.5452 19.8112 60.7085 22.3634C60.9595 22.5659 60.9988 22.9335 60.7963 23.1845C60.6809 23.3275 60.5119 23.4018 60.3415 23.4018Z" fill="#131313"/>
</svg>
