<svg width="200" height="200" viewBox="0 0 200 200" fill="none" xmlns="http://www.w3.org/2000/svg">
<path fill-rule="evenodd" clip-rule="evenodd" d="M178.153 27.0952C178.98 27.9483 179.44 29.0199 179.541 30.1171C179.698 30.855 179.692 31.6378 179.492 32.4142L168.82 73.7149C169.059 75.7614 169.182 77.8434 169.182 79.9541C169.182 101.6 156.249 120.226 137.689 128.526L148.256 157.125C148.413 157.55 148.507 157.983 148.546 158.415C148.658 159.153 148.596 159.931 148.329 160.685L136.866 193.069H146.583C148.143 193.069 149.42 194.345 149.42 195.905V197.022C149.42 198.526 148.189 199.757 146.684 199.757L127.037 199.757C126.22 199.757 125.551 199.089 125.551 198.271V195.194C125.551 194.96 125.59 194.735 125.66 194.525C125.717 194.271 125.809 194.022 125.896 193.788L125.897 193.787C125.925 193.712 125.952 193.638 125.978 193.566L138.199 159.042L128.114 131.749C124.223 132.655 120.168 133.134 116.001 133.134C110.851 133.134 105.872 132.402 101.162 131.036L89.7912 161.642C89.6077 162.136 89.3537 162.584 89.0452 162.98C88.6574 163.58 88.1268 164.104 87.4671 164.49L58.5853 181.387L66.0274 187.614C67.2239 188.615 67.3836 190.413 66.3826 191.61L65.666 192.466C64.7006 193.62 62.9666 193.774 61.8127 192.808L46.7447 180.2C46.1178 179.676 46.0341 178.734 46.5586 178.107L48.5335 175.747C48.6383 175.621 48.7554 175.513 48.8803 175.418C48.9444 175.347 49.0176 175.285 49.103 175.235L80.8744 156.647L91.7742 127.308C75.7213 119.079 64.4007 102.926 62.9735 84.0122L33.5034 128.09C32.1887 130.056 29.5044 130.59 27.5381 129.275L25.6782 128.031L23.4887 131.559C22.9887 132.357 21.927 132.6 21.1293 132.1C20.3316 131.6 20.088 130.538 20.588 129.741L24.4463 123.524C24.5136 123.388 24.5895 123.254 24.6763 123.124L26.3918 120.558C26.533 120.347 26.475 120.061 26.2626 119.921L21.3977 116.724C20.6133 116.204 20.3974 115.136 20.9178 114.351C21.4384 113.567 22.5061 113.351 23.2905 113.871L27.9503 116.933C28.2829 117.152 28.7296 117.062 28.9507 116.731L66.415 60.6962C74.1302 40.8448 93.4225 26.7737 116.001 26.7737C136.482 26.7737 154.258 38.3509 163.143 55.318L169.114 32.2102C152.578 16.1691 131.001 8.56985 108.065 10.7794C95.4939 11.9903 82.9677 16.1978 71.8406 22.9472C61.4818 29.2304 52.3788 37.7087 45.3322 47.6043C45.2263 47.8302 34.0279 64.6147 34.0279 64.6147C32.7132 66.581 30.0289 67.1141 28.0627 65.7995L26.2027 64.5559L24.0133 68.0836C23.5132 68.8812 22.4515 69.1247 21.6538 68.6247C20.856 68.1246 20.6125 67.0628 21.1124 66.2652L24.9708 60.0488C25.0381 59.9121 25.114 59.7784 25.2008 59.6485L26.9224 57.0735C27.0604 56.8672 27.0037 56.5879 26.7964 56.4517L21.9221 53.2487C21.1378 52.7281 20.9219 51.6605 21.4424 50.8761C21.9629 50.0916 23.0306 49.8756 23.815 50.3959L28.2854 53.3337C28.7229 53.6213 29.3099 53.5028 29.6012 53.0679C31.3333 50.4811 36.756 42.384 36.8355 42.2858C40.4988 37.0697 44.6621 32.2021 49.248 27.7849C54.5328 22.6947 60.3875 18.1877 66.6496 14.3893C79.0558 6.86401 93.0453 2.17063 107.105 0.816403C120.017 -0.427138 132.599 1.07529 144.504 5.28198C157.136 9.74532 168.457 17.0843 178.153 27.0952Z" fill="#05BF8E"/>
<path fill-rule="evenodd" clip-rule="evenodd" d="M131.132 29.6012C131.144 29.0193 130.741 28.8373 130.276 28.7093C129.721 28.5566 129.168 28.3931 128.613 28.2391C122.088 26.4277 115.562 24.6176 109.036 22.8066C105.269 21.761 101.501 20.7168 97.7347 19.667C96.803 19.4073 96.1029 19.4704 95.8103 20.6182C95.705 21.7452 95.6044 22.8727 95.4936 23.9991C95.2036 26.9454 94.9093 29.8914 94.6168 32.8375C94.4864 34.2467 94.3602 35.6563 94.2245 37.0651C94.0954 38.4055 94.206 38.5251 95.5366 38.2306C103.78 36.4054 112.021 34.5717 120.262 32.7365C123.583 31.9973 126.901 31.2485 130.22 30.5011C130.875 30.3534 131.121 30.1034 131.132 29.6012Z" fill="#05BF8E"/>
<path fill-rule="evenodd" clip-rule="evenodd" d="M34.516 123.35C31.8454 121.709 29.3094 122.116 27.8975 124.413L25.6748 128.029L26.6567 128.686L28.903 125.031C30.4534 122.509 33.1181 123.877 33.8979 124.356C34.2053 124.545 34.7678 124.934 35.242 125.489L35.9269 124.465C35.5388 124.065 35.0685 123.69 34.516 123.35Z" fill="#0C7154"/>
<path fill-rule="evenodd" clip-rule="evenodd" d="M108.311 72.5411C108.311 71.2502 107.265 70.2036 105.974 70.2036C104.683 70.2036 103.637 71.2502 103.637 72.5411C103.637 73.8319 104.683 74.8784 105.974 74.8784C107.265 74.8784 108.311 73.8319 108.311 72.5411Z" fill="#131313"/>
<path fill-rule="evenodd" clip-rule="evenodd" d="M107.225 56.252C107.225 51.1484 103.088 47.0112 97.984 47.0112C92.8805 47.0112 88.7432 51.1484 88.7432 56.252C88.7432 61.3556 92.8805 65.4928 97.984 65.4928C103.088 65.4928 107.225 61.3556 107.225 56.252Z" fill="white"/>
<path fill-rule="evenodd" clip-rule="evenodd" d="M100.071 56.2153C100.071 53.6135 97.9622 51.5044 95.3605 51.5044C92.7587 51.5044 90.6494 53.6135 90.6494 56.2153C90.6494 58.8172 92.7587 60.9263 95.3605 60.9263C97.9622 60.9263 100.071 58.8172 100.071 56.2153Z" fill="#131313"/>
<path fill-rule="evenodd" clip-rule="evenodd" d="M134.983 56.252C134.983 51.1484 130.845 47.0112 125.742 47.0112C120.638 47.0112 116.501 51.1484 116.501 56.252C116.501 61.3556 120.638 65.4928 125.742 65.4928C130.845 65.4928 134.983 61.3556 134.983 56.252Z" fill="white"/>
<path fill-rule="evenodd" clip-rule="evenodd" d="M127.83 56.2153C127.83 53.6135 125.721 51.5044 123.119 51.5044C120.517 51.5044 118.408 53.6135 118.408 56.2153C118.408 58.8172 120.517 60.9263 123.119 60.9263C125.721 60.9263 127.83 58.8172 127.83 56.2153Z" fill="#131313"/>
<path fill-rule="evenodd" clip-rule="evenodd" d="M115.849 66.7973H107.338C106.332 66.7973 105.469 66.5417 104.842 66.0581C104.029 65.431 103.616 64.4676 103.616 63.1948C103.616 62.2281 104.016 61.3219 104.743 60.6432C105.449 59.9847 106.37 59.6221 107.338 59.6221H115.849C116.21 59.6221 116.502 59.9141 116.502 60.2744C116.502 60.6347 116.21 60.9266 115.849 60.9266H107.338C106.711 60.9266 106.09 61.1709 105.634 61.5966C105.174 62.026 104.921 62.5935 104.921 63.1948C104.921 64.0539 105.155 64.6525 105.639 65.025C106.14 65.4116 106.839 65.4926 107.338 65.4926H115.849C116.21 65.4926 116.502 65.7847 116.502 66.145C116.502 66.5052 116.21 66.7973 115.849 66.7973Z" fill="#131313"/>
<path fill-rule="evenodd" clip-rule="evenodd" d="M88.7422 52.741H107.224V46.5762H88.7422V52.741Z" fill="#05BF8E"/>
<path fill-rule="evenodd" clip-rule="evenodd" d="M116.501 52.741H134.983V46.5762H116.501V52.741Z" fill="#05BF8E"/>
<path fill-rule="evenodd" clip-rule="evenodd" d="M88.7788 48.1708C88.635 48.1708 88.4901 48.1234 88.3694 48.0259C88.0891 47.7995 88.0455 47.3889 88.2718 47.1086C89.5453 45.5318 91.5125 44.1607 93.8112 43.2476C96.4078 42.2161 99.2777 41.827 102.11 42.1224C102.468 42.1599 102.729 42.4805 102.691 42.8388C102.654 43.1971 102.333 43.4575 101.975 43.42C99.351 43.1462 96.6945 43.506 94.2927 44.4601C92.1993 45.2916 90.4215 46.5233 89.2868 47.9283C89.1579 48.0879 88.9691 48.1708 88.7788 48.1708Z" fill="#131313"/>
<path fill-rule="evenodd" clip-rule="evenodd" d="M119.122 45.327C118.337 45.327 117.534 45.2394 116.707 45.0349C116.357 44.9485 116.144 44.5948 116.23 44.2451C116.317 43.8954 116.67 43.682 117.02 43.7685C120.003 44.506 122.801 43.467 125.507 42.4623C128.537 41.3373 131.669 40.1742 134.951 41.5923C135.282 41.7352 135.434 42.1192 135.292 42.4498C135.149 42.7805 134.765 42.9329 134.434 42.7899C131.633 41.5794 128.878 42.6024 125.961 43.6853C123.779 44.4957 121.54 45.327 119.122 45.327Z" fill="#131313"/>
</svg>
