<svg width="240" height="200" viewBox="0 0 240 200" fill="none" xmlns="http://www.w3.org/2000/svg">
<g clip-path="url(#clip0)">
<path fill-rule="evenodd" clip-rule="evenodd" d="M212.773 101.509C212.773 141.6 180.273 174.1 140.182 174.1C100.091 174.1 67.5908 141.6 67.5908 101.509C67.5908 61.418 100.091 28.918 140.182 28.918C180.273 28.918 212.773 61.418 212.773 101.509Z" fill="#05BF8E"/>
<path fill-rule="evenodd" clip-rule="evenodd" d="M177.32 40.2721C177.6 39.5265 177.163 39.1085 176.621 38.7317C175.973 38.282 175.335 37.8197 174.689 37.3686C167.09 32.0629 159.49 26.7583 151.89 21.453C147.503 18.3902 143.115 15.3288 138.732 12.261C137.647 11.5022 136.715 11.2652 135.815 12.6135C135.167 14.0202 134.524 15.4296 133.869 16.8331C132.155 20.5042 130.435 24.1726 128.717 27.8423C127.908 29.6018 127.104 31.3637 126.288 33.1202C125.512 34.7917 125.6 34.9965 127.452 35.2213C138.922 36.6148 150.393 37.9961 161.864 39.3756C166.486 39.9314 171.11 40.4742 175.733 41.0188C176.646 41.1264 177.078 40.9155 177.32 40.2721Z" fill="#05BF8E"/>
<path fill-rule="evenodd" clip-rule="evenodd" d="M211.213 210.786L205.474 209.953L135.581 199.805C135.347 199.771 135.21 199.525 135.304 199.308L157.385 148.31C158.891 144.832 157.277 140.753 153.799 139.247L152.977 138.892C149.499 137.385 145.42 138.999 143.914 142.478L117.662 203.109C116.235 206.405 117.61 210.239 120.718 211.913C121.226 212.226 121.779 212.475 122.368 212.648C123.202 212.964 124.063 213.104 124.912 213.089L200.659 224.087C201.441 224.201 201.984 224.928 201.87 225.71L200.06 238.177C199.754 240.285 201.228 242.259 203.335 242.565L204.843 242.784C206.876 243.08 208.78 241.658 209.075 239.626L212.929 213.086C213.089 211.981 212.317 210.947 211.213 210.786Z" fill="#05BF8E"/>
<path fill-rule="evenodd" clip-rule="evenodd" d="M173.389 154.677L172.834 155.38C170.485 158.355 170.998 162.711 173.973 165.06L245.42 221.467C246.041 221.957 246.147 222.858 245.657 223.479L237.85 233.366C236.531 235.037 236.819 237.485 238.49 238.804L239.686 239.749C241.298 241.021 243.658 240.743 244.931 239.132L261.549 218.083C262.24 217.207 262.089 215.925 261.214 215.233L183.069 153.538C180.094 151.19 175.738 151.702 173.389 154.677Z" fill="#05BF8E"/>
<path fill-rule="evenodd" clip-rule="evenodd" d="M101.738 78.4075L56.8101 43.4471L56.81 43.4469L31.3796 23.6582V23.6581L15.9799 11.6747C12.9882 9.34678 8.63575 9.88974 6.30782 12.8815C6.30728 12.8822 6.30675 12.8831 6.30621 12.8838C6.04825 13.1641 5.79494 13.4649 5.55058 13.7846C3.752 16.137 3.04793 18.6832 3.88358 19.6443C3.04686 19.477 2.14533 19.7714 1.58358 20.4845V20.4846C0.788208 21.4941 0.963465 22.9706 1.97312 23.7658L8.091 28.5398C8.27235 28.6827 8.46926 28.7931 8.67424 28.8741C8.6814 28.8771 8.6882 28.8807 8.69554 28.8834C8.71183 28.8898 8.7283 28.8943 8.74477 28.9C8.94384 28.9731 9.15526 29.0218 9.37652 29.0379L16.4899 29.5185L21.393 33.3484C21.4293 33.3778 21.4642 33.4084 21.5013 33.4372L48.3446 54.3255C48.3448 54.3255 48.3448 54.3257 48.3448 54.3257L93.2722 89.2862C96.2639 91.6141 100.616 91.0712 102.944 88.0794C105.272 85.0879 104.729 80.7355 101.738 78.4075Z" fill="#05BF8E"/>
<path fill-rule="evenodd" clip-rule="evenodd" d="M231.382 155.17C231.39 155.136 231.398 155.101 231.406 155.067C231.424 154.984 231.439 154.9 231.454 154.816C231.459 154.789 231.464 154.763 231.468 154.737C231.484 154.642 231.497 154.546 231.509 154.45C231.511 154.435 231.513 154.421 231.514 154.407C231.62 153.49 231.544 152.539 231.255 151.604L211.859 88.8091C210.74 85.1872 206.862 83.1393 203.24 84.258C199.618 85.3766 197.57 89.2552 198.689 92.8771L214.179 143.027C214.262 143.297 214.014 143.552 213.742 143.477L142.199 123.839C142.154 123.826 142.108 123.817 142.063 123.805L136.06 122.169L131.419 116.757C131.274 116.589 131.108 116.449 130.93 116.333C130.916 116.324 130.902 116.313 130.888 116.304C130.881 116.3 130.874 116.296 130.867 116.292C130.68 116.177 130.474 116.085 130.251 116.025L122.765 113.98C121.523 113.647 120.236 114.39 119.903 115.631C119.667 116.508 119.971 117.407 120.606 117.977C119.336 117.882 117.717 119.97 116.908 122.819C116.799 123.206 116.709 123.589 116.639 123.963C116.639 123.964 116.638 123.965 116.638 123.966C115.634 127.621 117.803 131.434 121.459 132.438L140.275 137.605H140.275L222.596 160.202C223.889 160.614 225.315 160.652 226.704 160.223C228.547 159.654 229.98 158.37 230.799 156.769C230.811 156.745 230.823 156.721 230.834 156.697C230.87 156.626 230.905 156.554 230.938 156.481C230.956 156.442 230.973 156.401 230.991 156.361C231.017 156.3 231.043 156.239 231.067 156.177C231.086 156.131 231.103 156.085 231.121 156.039C231.143 155.978 231.165 155.917 231.186 155.856C231.202 155.81 231.217 155.765 231.231 155.719C231.253 155.653 231.273 155.585 231.292 155.518C231.299 155.495 231.307 155.472 231.313 155.449C231.318 155.431 231.322 155.414 231.326 155.396C231.346 155.321 231.364 155.246 231.382 155.17Z" fill="#05BF8E"/>
<path fill-rule="evenodd" clip-rule="evenodd" d="M122.163 113.9C122.361 113.9 122.564 113.926 122.764 113.98L130.25 116.025C130.473 116.085 130.679 116.176 130.867 116.292C130.874 116.296 130.881 116.299 130.887 116.304C130.902 116.313 130.915 116.323 130.93 116.333C131.108 116.449 131.273 116.589 131.418 116.757L136.06 122.168L142.063 123.805C142.108 123.817 142.153 123.826 142.198 123.839L201.64 140.155C201.938 139.682 202.23 139.206 202.518 138.725L142.625 122.285C142.58 122.273 142.534 122.262 142.488 122.251L142.466 122.245L136.961 120.744L132.642 115.708C132.405 115.435 132.135 115.198 131.834 114.999C131.804 114.978 131.776 114.959 131.747 114.941L131.741 114.937L131.735 114.933C131.717 114.923 131.7 114.912 131.682 114.902C131.364 114.71 131.023 114.564 130.667 114.469L123.189 112.425C122.849 112.334 122.506 112.289 122.163 112.289C120.377 112.289 118.808 113.492 118.346 115.214C118.164 115.891 118.168 116.584 118.339 117.234C116.984 118.346 115.929 120.369 115.358 122.379C115.244 122.782 115.146 123.193 115.067 123.6C113.866 128.103 116.531 132.755 121.032 133.991L139.848 139.159L191.114 153.231C191.553 152.799 191.987 152.361 192.415 151.917L140.274 137.605H140.274L121.458 132.437C117.803 131.433 115.634 127.621 116.637 123.966C116.638 123.965 116.638 123.964 116.638 123.963C116.709 123.589 116.798 123.206 116.908 122.819C117.414 121.036 118.237 119.553 119.093 118.714C119.616 119.361 120.334 119.834 121.129 120.047L128.668 122.115C129.091 122.229 129.532 121.973 129.648 121.546C129.764 121.118 129.513 120.675 129.09 120.56L121.554 118.493C121.189 118.395 120.869 118.214 120.605 117.977H120.605C119.97 117.406 119.667 116.508 119.902 115.631C120.181 114.591 121.131 113.9 122.163 113.9Z" fill="#07815C"/>
<path fill-rule="evenodd" clip-rule="evenodd" d="M137.832 92.5695L125.682 90.4982C125.195 90.4152 124.867 89.9531 124.95 89.4662C125.033 88.9789 125.495 88.6515 125.983 88.7346L138.133 90.8056C138.62 90.8887 138.947 91.3509 138.865 91.838C138.782 92.3249 138.319 92.6525 137.832 92.5695Z" fill="#131313"/>
<path fill-rule="evenodd" clip-rule="evenodd" d="M129.578 66.4585C130.754 59.5587 126.114 53.0117 119.214 51.8356C112.315 50.6594 105.768 55.2993 104.591 62.1992C103.415 69.099 108.055 75.646 114.955 76.8221C121.855 77.9983 128.402 73.3584 129.578 66.4585Z" fill="white"/>
<path fill-rule="evenodd" clip-rule="evenodd" d="M118.808 64.4706C119.407 60.9531 117.042 57.6155 113.524 57.0158C110.007 56.4161 106.669 58.7816 106.069 62.2993C105.47 65.8168 107.835 69.1543 111.353 69.754C114.87 70.3536 118.208 67.988 118.808 64.4706Z" fill="#131313"/>
<path fill-rule="evenodd" clip-rule="evenodd" d="M167.107 72.856C168.283 65.9561 163.643 59.4092 156.744 58.233C149.844 57.0569 143.297 61.6968 142.121 68.5966C140.945 75.4965 145.584 82.0434 152.484 83.2196C159.384 84.3957 165.931 79.7558 167.107 72.856Z" fill="white"/>
<path fill-rule="evenodd" clip-rule="evenodd" d="M156.336 70.868C156.936 67.3505 154.57 64.013 151.053 63.4132C147.535 62.8135 144.197 65.1791 143.598 68.6967C142.998 72.2142 145.364 75.5518 148.881 76.1515C152.399 76.751 155.736 74.3855 156.336 70.868Z" fill="#131313"/>
<path fill-rule="evenodd" clip-rule="evenodd" d="M127.595 78.0945C127.939 76.0786 122.624 73.4911 115.724 72.3148C108.824 71.1386 102.952 71.8194 102.609 73.8352C102.265 75.8511 107.58 78.4386 114.48 79.6149C121.379 80.791 127.252 80.1104 127.595 78.0945Z" fill="#05BF8E"/>
<path fill-rule="evenodd" clip-rule="evenodd" d="M165.123 84.491C165.467 82.4751 160.152 79.8876 153.252 78.7113C146.353 77.5352 140.48 78.2158 140.137 80.2317C139.793 82.2476 145.108 84.8351 152.008 86.0114C158.908 87.1875 164.78 86.5067 165.123 84.491Z" fill="#05BF8E"/>
<path fill-rule="evenodd" clip-rule="evenodd" d="M137.485 82.4774L131.22 81.4096C129.86 81.1778 128.752 80.6332 128.016 79.835C127.061 78.7997 126.725 77.4021 127.019 75.6814C127.242 74.3744 127.991 73.2416 129.131 72.4913C130.236 71.7636 131.565 71.4858 132.874 71.7089L139.139 72.7769C139.626 72.8598 139.953 73.322 139.87 73.8091C139.787 74.296 139.325 74.6236 138.838 74.5405L132.573 73.4725C131.725 73.3281 130.829 73.5151 130.115 73.9858C129.394 74.4602 128.921 75.1691 128.783 75.982C128.585 77.1435 128.764 78.007 129.331 78.6218C129.92 79.26 130.847 79.5308 131.521 79.6458L137.786 80.7136C138.273 80.7966 138.6 81.2589 138.517 81.746C138.434 82.2329 137.972 82.5605 137.485 82.4774Z" fill="#131313"/>
<path fill-rule="evenodd" clip-rule="evenodd" d="M132.393 49.9478L107.406 45.6885L105.711 55.6341L130.697 59.8934L132.393 49.9478Z" fill="#05BF8E"/>
<path fill-rule="evenodd" clip-rule="evenodd" d="M169.922 56.3451L144.936 52.0859L143.24 62.0316L168.227 66.2907L169.922 56.3451Z" fill="#05BF8E"/>
<path fill-rule="evenodd" clip-rule="evenodd" d="M127.269 50.133L111.2 47.3937C110.712 47.3107 110.385 46.8486 110.468 46.3615C110.551 45.8744 111.013 45.547 111.5 45.6301L127.57 48.3692C128.057 48.4523 128.385 48.9145 128.301 49.4016C128.218 49.8885 127.756 50.2161 127.269 50.133Z" fill="#131313"/>
<path fill-rule="evenodd" clip-rule="evenodd" d="M165.876 56.7141L149.806 53.9748C149.319 53.8917 148.991 53.4297 149.074 52.9426C149.157 52.4555 149.619 52.1281 150.107 52.2111L166.176 54.9502C166.663 55.0333 166.991 55.4955 166.908 55.9826C166.825 56.4696 166.363 56.7972 165.876 56.7141Z" fill="#131313"/>
</g>
<path fill-rule="evenodd" clip-rule="evenodd" d="M101.651 78.178L56.7232 43.2176L56.723 43.2174L31.2927 23.4288V23.4286L15.893 11.4452C12.9013 9.11729 8.54884 9.66024 6.22091 12.652C6.22037 12.6527 6.21983 12.6536 6.2193 12.6543C5.96133 12.9346 5.70802 13.2354 5.46367 13.5551C3.66509 15.9076 2.96102 18.4537 3.79667 19.4148C2.95994 19.2475 2.05842 19.5419 1.49666 20.255V20.2551C0.701294 21.2646 0.876551 22.7411 1.8862 23.5363L8.00409 28.3103C8.18543 28.4532 8.38235 28.5637 8.58732 28.6446C8.59448 28.6476 8.60129 28.6512 8.60863 28.6539C8.62492 28.6603 8.64139 28.6648 8.65786 28.6705C8.85692 28.7436 9.06834 28.7923 9.28961 28.8084L16.403 29.289L21.3061 33.1189C21.3424 33.1483 21.3773 33.1789 21.4144 33.2077L48.2577 54.0961C48.2579 54.0961 48.2579 54.0962 48.2579 54.0962L93.1853 89.0567C96.177 91.3846 100.529 90.8417 102.857 87.8499C105.185 84.8584 104.642 80.506 101.651 78.178Z" fill="#05BF8E"/>
<path fill-rule="evenodd" clip-rule="evenodd" d="M11.936 23.3982L5.76884 18.595C5.1217 18.0852 4.31254 17.7929 3.48155 17.7617C3.38578 18.4728 3.48334 19.054 3.7959 19.414C4.14409 19.4837 4.48118 19.6315 4.77763 19.8653L10.9428 24.6666C11.2881 24.9371 11.7942 24.873 12.0672 24.5242C12.3404 24.1753 12.2813 23.6687 11.936 23.3982Z" fill="#07815C"/>
<path fill-rule="evenodd" clip-rule="evenodd" d="M231.601 155.218C231.609 155.184 231.617 155.149 231.624 155.115C231.642 155.031 231.658 154.948 231.673 154.864C231.678 154.837 231.683 154.811 231.687 154.785C231.703 154.689 231.716 154.594 231.728 154.497C231.729 154.483 231.731 154.469 231.733 154.455C231.839 153.538 231.762 152.587 231.474 151.652L212.078 88.8569C210.959 85.2351 207.08 83.1871 203.459 84.3058C199.837 85.4245 197.789 89.3031 198.907 92.9249L214.397 143.074C214.481 143.345 214.233 143.6 213.961 143.525L142.418 123.887C142.372 123.874 142.327 123.865 142.282 123.853L136.279 122.216L131.638 116.805C131.492 116.637 131.327 116.497 131.149 116.381C131.135 116.371 131.121 116.361 131.106 116.352C131.1 116.348 131.093 116.344 131.086 116.34C130.899 116.224 130.692 116.133 130.469 116.073L122.984 114.028C121.742 113.695 120.454 114.438 120.121 115.679C119.886 116.556 120.19 117.455 120.825 118.025C119.554 117.93 117.936 120.018 117.127 122.867C117.017 123.254 116.928 123.637 116.858 124.011C116.857 124.012 116.857 124.013 116.857 124.014C115.853 127.669 118.022 131.481 121.677 132.485L140.493 137.653H140.494L222.814 160.25C224.108 160.662 225.534 160.7 226.923 160.271C228.765 159.702 230.199 158.418 231.017 156.817C231.03 156.793 231.041 156.769 231.053 156.745C231.089 156.674 231.124 156.602 231.156 156.529C231.175 156.489 231.192 156.449 231.209 156.409C231.236 156.348 231.262 156.287 231.286 156.225C231.304 156.179 231.322 156.133 231.339 156.087C231.362 156.026 231.384 155.965 231.405 155.903C231.421 155.858 231.436 155.813 231.45 155.767C231.472 155.7 231.492 155.633 231.511 155.566C231.518 155.542 231.526 155.52 231.532 155.497C231.537 155.479 231.54 155.462 231.545 155.444C231.565 155.369 231.583 155.294 231.601 155.218Z" fill="#05BF8E"/>
<path fill-rule="evenodd" clip-rule="evenodd" d="M122.381 113.948C122.58 113.948 122.782 113.974 122.983 114.028L130.469 116.073C130.692 116.133 130.898 116.224 131.086 116.34C131.092 116.344 131.099 116.347 131.106 116.351C131.121 116.361 131.134 116.371 131.149 116.381C131.326 116.497 131.492 116.637 131.637 116.805L136.279 122.216L142.281 123.853C142.327 123.864 142.372 123.874 142.417 123.887L201.858 140.203C202.156 139.73 202.449 139.254 202.736 138.773L142.844 122.333C142.798 122.32 142.753 122.309 142.707 122.298L142.685 122.293L137.18 120.792L132.86 115.756C132.624 115.483 132.354 115.246 132.053 115.047C132.023 115.026 131.995 115.007 131.965 114.989L131.959 114.985L131.954 114.981C131.936 114.97 131.918 114.96 131.901 114.95C131.583 114.758 131.241 114.612 130.886 114.516L123.408 112.473C123.068 112.382 122.725 112.337 122.381 112.337C120.596 112.337 119.027 113.54 118.565 115.262C118.383 115.938 118.387 116.632 118.557 117.282C117.203 118.394 116.147 120.416 115.577 122.427C115.462 122.83 115.365 123.24 115.286 123.648C114.085 128.151 116.749 132.803 121.25 134.039L140.066 139.206L191.333 153.279C191.772 152.847 192.205 152.408 192.633 151.965L140.493 137.653H140.493L121.677 132.485C118.022 131.481 115.852 127.669 116.856 124.014C116.857 124.013 116.857 124.012 116.857 124.011C116.927 123.637 117.017 123.254 117.127 122.867C117.633 121.084 118.456 119.601 119.312 118.762C119.834 119.409 120.552 119.882 121.348 120.095L128.886 122.162C129.31 122.277 129.751 122.021 129.867 121.594C129.983 121.166 129.732 120.722 129.308 120.608L121.772 118.541C121.408 118.443 121.087 118.262 120.824 118.025H120.824C120.189 117.454 119.886 116.556 120.121 115.679C120.4 114.639 121.35 113.948 122.381 113.948Z" fill="#07815C"/>
<defs>
<clipPath id="clip0">
<rect x="39.5" width="200" height="200" rx="100" fill="white"/>
</clipPath>
</defs>
</svg>
