<svg width="591" height="449" viewBox="0 0 591 449" fill="none" xmlns="http://www.w3.org/2000/svg">
<path fill-rule="evenodd" clip-rule="evenodd" d="M336.939 20.4234C336.402 19.7137 335.479 19.4543 334.474 19.2801C333.531 19.1167 332.59 18.9436 331.649 18.7706L331.648 18.7705L331.648 18.7704L331.648 18.7703L331.647 18.7702C330.817 18.6176 329.987 18.465 329.156 18.319C316.998 16.183 304.84 14.0482 292.681 11.9133L292.635 11.9051C283.944 10.3792 275.253 8.85317 266.562 7.32675C264.027 6.88131 261.491 6.43609 258.955 5.99087L258.877 5.9772L258.869 5.97572L258.849 5.97221C249.375 4.30881 239.9 2.64537 230.428 0.970544C227.449 0.44352 225.289 0.851882 224.725 4.51364C224.729 5.59791 224.734 6.68214 224.74 7.76636V7.76654V7.76673V7.76692V7.7671C224.752 10.2231 224.764 12.679 224.761 15.1351C224.755 20.331 224.744 25.5268 224.732 30.7227C177.21 53.0105 141.988 97.1722 132.031 150.242L96.3765 220.14C96.0144 220.851 94.9538 220.679 94.8384 219.89C92.3457 202.826 77.9667 104.491 72.5896 69.7099C72.2811 67.7122 70.5229 64.1286 69.4962 62.4416L47.0597 27.0352C45.486 24.5548 42.1691 23.8129 39.6887 25.3866C37.2086 26.9603 36.4668 30.2772 38.0405 32.7576L49.43 50.7313L22.5146 38.3499C14.6432 34.729 5.24021 38.2067 1.61938 46.0781C-2.00146 53.9495 1.47616 63.3524 9.34756 66.9737L42.5992 82.2697L71.2602 275.778C71.5847 277.969 72.354 279.988 73.4596 281.761C73.5148 281.851 73.5745 281.938 73.6314 282.027L73.668 282.084L73.6971 282.13L73.7187 282.163C73.7289 282.179 73.7392 282.195 73.7496 282.211C73.7582 282.225 73.7669 282.238 73.7756 282.251C73.7878 282.27 73.8002 282.288 73.8127 282.306C75.2542 284.451 77.2379 286.269 79.6914 287.521C82.4435 288.924 87.2641 289.479 90.6783 288.765C91.8054 288.53 92.82 288.053 92.9894 287.974L93.0126 287.963C96.3033 286.567 99.1413 284.06 100.883 280.646L133.169 217.351C144.141 266.481 176.9 307.391 220.777 329.412L179.749 381.387C176.179 385.909 175.505 391.825 177.45 396.861C178.619 399.996 180.781 402.785 183.82 404.689L265.585 455.904L234.199 475.563C232.037 476.917 231.377 479.793 232.73 481.954L265.27 533.904C267.762 537.882 273.055 539.099 277.034 536.607L279.986 534.758C284.111 532.174 285.372 526.684 282.788 522.559L267.503 498.157C266.543 496.624 267.007 494.604 268.539 493.645L297.188 475.7L325.184 493.235C326.716 494.195 327.18 496.215 326.22 497.747L310.935 522.15C308.351 526.275 309.612 531.764 313.738 534.348L316.689 536.197C320.667 538.689 325.961 537.473 328.453 533.495L360.993 481.545C362.347 479.384 361.686 476.508 359.524 475.154L348.293 468.119C348.293 468.119 340.527 463.255 328.792 455.904L409.904 405.098C412.942 403.194 415.104 400.406 416.273 397.27C418.218 392.234 417.544 386.318 413.974 381.796L371.704 328.248C414.479 305.945 446.319 265.547 457.07 217.206L489.429 280.646C491.171 284.06 494.009 286.567 497.3 287.963L497.323 287.974C497.492 288.053 498.507 288.53 499.634 288.765C503.048 289.479 507.868 288.924 510.621 287.521C513.074 286.269 515.058 284.451 516.5 282.306C516.515 282.284 516.53 282.261 516.545 282.238C516.567 282.204 516.589 282.171 516.61 282.137L516.634 282.1C516.644 282.085 516.653 282.07 516.663 282.054L516.681 282.027C516.702 281.994 516.724 281.961 516.746 281.928L516.747 281.926L516.748 281.925C516.783 281.871 516.819 281.816 516.853 281.761C517.958 279.988 518.728 277.969 519.052 275.778L547.713 82.2697L580.965 66.9737C588.836 63.3524 592.314 53.9495 588.693 46.0781C585.072 38.2067 575.669 34.729 567.797 38.3499L540.882 50.7313L552.272 32.7576C553.845 30.2772 553.104 26.9603 550.624 25.3866C548.143 23.8129 544.826 24.5548 543.253 27.0352L520.816 62.4416C519.789 64.1286 518.031 67.7122 517.723 69.7099C512.346 104.491 497.967 202.826 495.473 219.89C495.358 220.679 494.298 220.851 493.936 220.14L458.113 149.911C446.147 86.8427 398.486 36.4108 336.939 20.4234ZM339.072 341.061C325.068 344.9 310.325 346.95 295.103 346.95C280.835 346.95 266.987 345.149 253.776 341.762L220.566 383.832C219.358 385.362 219.744 387.599 221.395 388.633C231.804 395.153 266.643 416.975 297.188 436.108L372.326 389.044C373.977 388.01 374.364 385.771 373.157 384.242L339.072 341.061Z" fill="#05BF8E"/>
<path fill-rule="evenodd" clip-rule="evenodd" d="M293.72 433.936L262.116 453.731L265.585 455.904L297.188 436.108L293.72 433.936Z" fill="#07815C"/>
<path fill-rule="evenodd" clip-rule="evenodd" d="M213.011 79.8932L209.323 76.4471C208.049 75.2576 207.981 73.2612 209.171 71.9878L210.894 70.1433C217.405 63.1733 225.26 57.8883 234.909 53.9868C242.445 50.9396 250.857 48.8057 261.382 47.2725L263.88 46.9084C265.604 46.6571 267.206 47.8515 267.457 49.5758L268.185 54.5711C268.436 56.2954 267.242 57.8969 265.517 58.1481L263.02 58.5123C253.417 59.9113 245.838 61.8193 239.167 64.5166C231.085 67.7847 224.551 72.1613 219.194 77.8968L217.471 79.7414C216.281 81.0148 214.285 81.0827 213.011 79.8932ZM337.641 74.2451C346.4 74.2451 354.634 77.656 360.827 83.8494C367.021 90.0427 370.432 98.2771 370.432 107.036C370.432 108.156 369.524 109.064 368.403 109.064C367.283 109.064 366.375 108.156 366.375 107.036C366.375 99.3606 363.386 92.1447 357.959 86.7177C352.532 81.2908 345.317 78.3017 337.641 78.3017C329.966 78.3017 322.75 81.2908 317.323 86.7177C311.896 92.1447 308.907 99.3602 308.907 107.035C308.907 107.102 308.904 107.169 308.898 107.236C308.896 107.252 308.893 107.268 308.891 107.284L308.888 107.3L308.885 107.322C308.882 107.345 308.879 107.369 308.875 107.392C308.873 107.405 308.871 107.419 308.868 107.432C308.863 107.46 308.855 107.488 308.848 107.515L308.844 107.531L308.841 107.544L308.836 107.563L308.836 107.564L308.836 107.564C308.833 107.576 308.83 107.587 308.827 107.599C308.825 107.608 308.822 107.616 308.82 107.624C308.81 107.657 308.798 107.688 308.786 107.72L308.783 107.729L308.783 107.729C308.773 107.757 308.764 107.785 308.753 107.812C308.746 107.828 308.739 107.843 308.732 107.859L308.713 107.899L308.691 107.944C308.686 107.954 308.681 107.965 308.676 107.975L308.668 107.991C308.653 108.02 308.636 108.046 308.619 108.073L308.605 108.098C308.592 108.119 308.58 108.141 308.566 108.162C308.546 108.192 308.523 108.221 308.501 108.25C308.483 108.274 308.467 108.298 308.448 108.321C308.363 108.425 308.268 108.52 308.165 108.604C308.148 108.618 308.131 108.63 308.113 108.643L308.094 108.657L308.074 108.672L308.049 108.691C308.034 108.702 308.02 108.712 308.005 108.722C307.984 108.737 307.962 108.749 307.941 108.762L307.918 108.775L307.893 108.79L307.87 108.804C307.859 108.811 307.847 108.818 307.835 108.825C307.813 108.836 307.79 108.847 307.768 108.857L307.744 108.868L307.715 108.882C307.695 108.892 307.675 108.901 307.655 108.91L307.638 108.916L307.614 108.925L307.602 108.929L307.565 108.942L307.547 108.949C307.521 108.959 307.495 108.968 307.468 108.976C307.447 108.983 307.425 108.988 307.403 108.993L307.376 109C307.343 109.008 307.31 109.018 307.276 109.025C307.24 109.032 307.204 109.036 307.169 109.041C307.158 109.042 307.147 109.044 307.136 109.046L307.136 109.046C307.117 109.049 307.098 109.052 307.08 109.054C307.012 109.06 306.946 109.064 306.879 109.064C306.812 109.064 306.746 109.06 306.679 109.054C306.661 109.052 306.644 109.049 306.626 109.047L306.623 109.046C306.612 109.044 306.601 109.043 306.589 109.041C306.554 109.036 306.518 109.032 306.483 109.025C306.471 109.022 306.459 109.019 306.448 109.017L306.423 109.011C306.41 109.007 306.396 109.003 306.382 109C306.366 108.996 306.35 108.992 306.334 108.988C306.319 108.985 306.305 108.981 306.291 108.976C306.258 108.967 306.226 108.954 306.193 108.942C306.163 108.932 306.133 108.922 306.103 108.91C306.094 108.906 306.084 108.901 306.074 108.897L306.054 108.887L306.014 108.868C305.984 108.854 305.953 108.84 305.923 108.825C305.905 108.815 305.887 108.804 305.869 108.793L305.852 108.783L305.84 108.775L305.811 108.758L305.79 108.746C305.778 108.738 305.765 108.731 305.753 108.723C305.728 108.706 305.704 108.687 305.68 108.668L305.664 108.656L305.642 108.641C305.626 108.629 305.609 108.617 305.594 108.604C305.542 108.562 305.492 108.517 305.444 108.469C302.959 105.984 298.862 104.5 294.484 104.5C290.106 104.5 286.009 105.984 283.523 108.47L283.516 108.477C283.471 108.521 283.424 108.564 283.375 108.604C283.36 108.616 283.345 108.628 283.329 108.639C283.32 108.646 283.31 108.653 283.3 108.66C283.284 108.672 283.268 108.684 283.252 108.696L283.247 108.7C283.237 108.708 283.226 108.715 283.216 108.722C283.186 108.742 283.156 108.759 283.126 108.777C283.099 108.793 283.073 108.809 283.046 108.824C283.023 108.836 283 108.847 282.977 108.858L282.952 108.869C282.923 108.883 282.895 108.897 282.866 108.909C282.835 108.922 282.805 108.932 282.774 108.943C282.742 108.954 282.71 108.967 282.678 108.976C282.657 108.983 282.636 108.988 282.614 108.993L282.586 109C282.552 109.009 282.52 109.018 282.486 109.025L282.469 109.028L282.458 109.03C282.447 109.031 282.436 109.033 282.425 109.034L282.397 109.038L282.378 109.041L282.371 109.042L282.346 109.046L282.318 109.05C282.309 109.052 282.299 109.053 282.289 109.054C282.156 109.067 282.022 109.067 281.889 109.054C281.881 109.053 281.873 109.052 281.865 109.051L281.852 109.049L281.833 109.046L281.813 109.043L281.8 109.041L281.767 109.036L281.767 109.036L281.752 109.034L281.732 109.031L281.71 109.028L281.693 109.025C281.666 109.019 281.639 109.012 281.612 109.005L281.593 109L281.565 108.993C281.543 108.988 281.522 108.983 281.5 108.976C281.468 108.967 281.437 108.954 281.404 108.943C281.374 108.932 281.343 108.922 281.313 108.909C281.284 108.897 281.255 108.883 281.226 108.869C281.195 108.854 281.164 108.84 281.133 108.824C281.124 108.819 281.114 108.814 281.105 108.808C281.095 108.802 281.085 108.796 281.075 108.79L281.053 108.777L281.028 108.762C281.015 108.755 281.002 108.747 280.989 108.739C280.98 108.734 280.971 108.728 280.963 108.722C280.956 108.718 280.949 108.713 280.943 108.708L280.926 108.696L280.904 108.679L280.878 108.66C280.853 108.641 280.828 108.624 280.804 108.604C280.755 108.564 280.708 108.521 280.663 108.477L280.655 108.47L280.652 108.467C280.651 108.465 280.649 108.463 280.648 108.462C280.604 108.417 280.561 108.37 280.521 108.322C280.511 108.309 280.502 108.297 280.493 108.285C280.483 108.272 280.474 108.259 280.465 108.247L280.451 108.228L280.43 108.201C280.421 108.188 280.412 108.175 280.403 108.162C280.389 108.141 280.376 108.12 280.363 108.098L280.348 108.072L280.334 108.048L280.323 108.031C280.318 108.022 280.313 108.014 280.308 108.006L280.301 107.992C280.284 107.961 280.271 107.93 280.256 107.899L280.245 107.875C280.234 107.854 280.224 107.833 280.216 107.812C280.212 107.804 280.209 107.795 280.206 107.787L280.2 107.771L280.192 107.747L280.182 107.72L280.175 107.699C280.165 107.675 280.156 107.65 280.149 107.624C280.139 107.594 280.133 107.563 280.125 107.532L280.12 107.514C280.116 107.499 280.112 107.485 280.109 107.47L280.104 107.451L280.1 107.432C280.097 107.418 280.095 107.403 280.093 107.388L280.089 107.358L280.084 107.325C280.082 107.314 280.081 107.304 280.079 107.293L280.079 107.292C280.077 107.282 280.076 107.272 280.074 107.262C280.073 107.253 280.072 107.245 280.071 107.236C280.065 107.169 280.061 107.102 280.061 107.036C280.061 99.3606 277.072 92.1447 271.645 86.7177C266.218 81.2908 259.002 78.3017 251.327 78.3017C243.652 78.3017 236.436 81.2908 231.009 86.7177C225.582 92.1447 222.593 99.3606 222.593 107.036C222.593 108.156 221.685 109.064 220.565 109.064C219.445 109.064 218.537 108.156 218.537 107.036C218.537 98.2771 221.948 90.0427 228.141 83.8494C234.334 77.656 242.569 74.2451 251.327 74.2451C260.086 74.2451 268.32 77.656 274.513 83.8494C279.777 89.1135 283.03 95.8523 283.888 103.134C286.869 101.399 290.557 100.444 294.484 100.444C298.411 100.444 302.099 101.399 305.081 103.134C305.938 95.8523 309.191 89.1135 314.455 83.8494C320.648 77.656 328.883 74.2451 337.641 74.2451ZM306.879 143.658H280.047C276.817 143.658 274.055 142.687 272.06 140.851C269.593 138.581 268.342 135.108 268.342 130.53C268.342 127.08 269.557 123.827 271.761 121.37C273.96 118.92 276.98 117.515 280.047 117.515H306.879C307.999 117.515 308.907 118.423 308.907 119.544C308.907 120.664 307.999 121.571 306.879 121.571H280.047C278.102 121.571 276.232 122.462 274.781 124.079C273.245 125.791 272.398 128.082 272.398 130.53C272.398 133.928 273.209 136.396 274.807 137.866C276.058 139.017 277.82 139.601 280.047 139.601H306.879C307.999 139.601 308.907 140.509 308.907 141.629C308.907 142.75 307.999 143.658 306.879 143.658ZM298.308 171.039C296.408 171.039 294.488 171.015 292.547 170.968C271.517 170.453 250.394 167.062 237.421 162.117C236.374 161.718 235.849 160.546 236.248 159.499C236.647 158.452 237.819 157.927 238.866 158.326C251.438 163.118 272.046 166.408 292.647 166.913C316.24 167.49 336.771 164.494 350.46 158.477C351.485 158.027 352.682 158.492 353.133 159.518C353.583 160.543 353.117 161.74 352.092 162.191C339.012 167.94 320.073 171.039 298.308 171.039ZM372.005 79.7414C373.195 81.0148 375.191 81.0827 376.464 79.8932L380.154 76.4471C381.426 75.2576 381.495 73.2612 380.305 71.9878L378.582 70.1433C372.071 63.1733 364.215 57.8883 354.567 53.9868C347.031 50.9396 338.619 48.8057 328.093 47.2725L325.596 46.9084C323.872 46.6571 322.27 47.8515 322.018 49.5758L321.291 54.5711C321.04 56.2954 322.234 57.8969 323.958 58.1481L326.456 58.5123C336.058 59.9113 343.637 61.8193 350.309 64.5166C358.391 67.7847 364.924 72.1613 370.282 77.8968L372.005 79.7414ZM226.652 104.782C226.032 104.782 225.42 105.065 225.022 105.601C224.354 106.499 224.541 107.77 225.44 108.438C231.179 112.706 240.381 115.149 250.704 115.149C250.757 115.149 250.809 115.149 250.862 115.149C255.663 115.137 260.457 114.574 264.727 113.521C269.328 112.385 273.174 110.746 276.157 108.648C277.074 108.004 277.294 106.739 276.649 105.822C276.005 104.906 274.74 104.686 273.824 105.33C268.724 108.916 260.137 111.07 250.853 111.093C241.458 111.114 232.867 108.906 227.86 105.183C227.497 104.913 227.072 104.782 226.652 104.782ZM311.9 105.601C312.298 105.065 312.909 104.782 313.529 104.782C313.95 104.782 314.374 104.913 314.738 105.183C319.719 108.887 328.252 111.093 337.587 111.093H337.73C347.015 111.07 355.602 108.916 360.701 105.33C361.617 104.686 362.883 104.906 363.527 105.822C364.171 106.739 363.951 108.004 363.034 108.648C360.051 110.746 356.206 112.385 351.604 113.521C347.335 114.574 342.541 115.137 337.74 115.149C327.354 115.177 318.086 112.728 312.317 108.438C311.418 107.77 311.232 106.499 311.9 105.601Z" fill="black"/>
</svg>
