<svg width="26" height="26" viewBox="0 0 26 26" fill="none" xmlns="http://www.w3.org/2000/svg">
<path fill-rule="evenodd" clip-rule="evenodd" d="M22.1005 0H3.90049C1.74658 0 0.000488281 1.74609 0.000488281 3.9V22.1C0.000488281 24.2539 1.74658 26 3.90049 26H22.1005C22.3143 25.997 22.5275 25.9753 22.7375 25.935L23.1275 25.844H23.2185H23.2835L23.7645 25.662L23.9335 25.571C24.0635 25.493 24.2065 25.428 24.3365 25.337C24.5101 25.2093 24.6751 25.0703 24.8305 24.921L24.9215 24.804C25.0491 24.6747 25.1665 24.5356 25.2725 24.388L25.3895 24.219C25.4803 24.0743 25.5586 23.922 25.6235 23.764C25.6592 23.7016 25.6896 23.6364 25.7145 23.569C25.7795 23.413 25.8185 23.244 25.8705 23.075V22.88C25.9442 22.626 25.9878 22.3642 26.0005 22.1V3.9C26.0005 1.74609 24.2544 0 22.1005 0ZM3.90045 23.4C3.18248 23.4 2.60045 22.818 2.60045 22.1V16.497L6.87745 12.207C7.12155 11.9609 7.45382 11.8225 7.80045 11.8225C8.14708 11.8225 8.47935 11.9609 8.72345 12.207L19.9035 23.4H3.90045ZM23.4005 22.1C23.3992 22.2603 23.3684 22.419 23.3095 22.568C23.2797 22.6314 23.245 22.6923 23.2055 22.75C23.1707 22.8051 23.1315 22.8572 23.0885 22.906L16.1335 15.951L17.2775 14.807C17.5216 14.5609 17.8538 14.4225 18.2005 14.4225C18.5471 14.4225 18.8794 14.5609 19.1235 14.807L23.4005 19.097V22.1ZM23.4004 15.418L20.9564 13C19.4115 11.534 16.9894 11.534 15.4444 13L14.3004 14.144L10.5564 10.4C9.01151 8.93404 6.58939 8.93404 5.04445 10.4L2.60045 12.818V3.89996C2.60045 3.18199 3.18248 2.59996 3.90045 2.59996H22.1004C22.8184 2.59996 23.4004 3.18199 23.4004 3.89996V15.418Z" fill="#6C6767"/>
</svg>
