<svg width="20" height="22" viewBox="0 0 20 22" fill="none" xmlns="http://www.w3.org/2000/svg">
<path fill-rule="evenodd" clip-rule="evenodd" d="M14.0852 3.61017C14.6031 3.90423 15.2612 3.72517 15.5588 3.20926C15.8021 2.77995 16.3047 2.56923 16.7814 2.69669C17.2581 2.82415 17.5885 3.2576 17.585 3.75103C17.585 4.34945 17.0999 4.83457 16.5015 4.83457C15.903 4.83457 15.4179 5.31969 15.4179 5.91811C15.4179 6.51653 15.903 7.00165 16.5015 7.00165C18.0787 7.00063 19.4276 5.86752 19.7009 4.31413C19.9741 2.76073 19.0927 1.23535 17.6105 0.696217C16.1283 0.157085 14.4729 0.759795 13.6843 2.12572C13.5396 2.37551 13.5005 2.6727 13.5758 2.95138C13.651 3.23007 13.8344 3.4672 14.0852 3.61017ZM18.7444 11.3356C18.1522 11.2588 17.6095 11.6755 17.5309 12.2675C17.0603 16.0683 13.8301 18.9221 10.0003 18.9204H3.9433L4.6476 18.2161C5.06771 17.7935 5.06771 17.1109 4.6476 16.6883C2.48725 14.5195 1.84243 11.2646 3.01275 8.4359C4.18307 5.60723 6.93908 3.75937 10.0003 3.75086C10.5987 3.75086 11.0838 3.26575 11.0838 2.66732C11.0838 2.0689 10.5987 1.58379 10.0003 1.58379C6.26204 1.59938 2.8617 3.7506 1.24644 7.12188C-0.368826 10.4932 0.0852862 14.4911 2.41551 17.4143L0.562657 19.2346C0.255209 19.5462 0.165435 20.0122 0.335114 20.4157C0.501332 20.8203 0.894543 21.0853 1.33197 21.0875H10.0003C14.9132 21.0881 19.0594 17.434 19.6763 12.56C19.7163 12.2739 19.6404 11.9836 19.4654 11.7537C19.2904 11.5238 19.0309 11.3733 18.7444 11.3356ZM16.9132 8.16116C16.7159 8.07389 16.4971 8.04748 16.2847 8.08531L16.0897 8.15033L15.8947 8.24784L15.7321 8.3887C15.6347 8.48855 15.5574 8.60629 15.5046 8.73544C15.4405 8.87059 15.4107 9.01945 15.4179 9.16885C15.4147 9.31336 15.4405 9.45704 15.4937 9.59143C15.5498 9.72148 15.6308 9.83928 15.7321 9.93817C15.9366 10.141 16.2134 10.2541 16.5014 10.2524C17.0999 10.2524 17.585 9.76727 17.585 9.16885C17.5886 9.02672 17.559 8.8857 17.4983 8.75711C17.3819 8.49674 17.1736 8.28842 16.9132 8.172V8.16116Z" fill="#1A1919"/>
</svg>
