<svg width="34" height="34" viewBox="0 0 34 34" fill="none" xmlns="http://www.w3.org/2000/svg">
<path fill-rule="evenodd" clip-rule="evenodd" d="M19.2482 8.24838C18.9079 8.58684 18.7165 9.04757 18.7165 9.5282C18.7165 10.0088 18.9079 10.4696 19.2482 10.808L22.6996 14.269C23.0371 14.6102 23.4966 14.8022 23.9759 14.8022C24.4552 14.8022 24.9147 14.6102 25.2522 14.269L32.5865 6.91448C33.1229 6.47741 33.3619 5.77066 33.2013 5.09656C33.0406 4.42247 32.5088 3.90044 31.8333 3.75378C31.1577 3.60712 30.4582 3.86181 30.0339 4.4089L23.9759 10.4475L21.8008 8.24838C21.4633 7.90713 21.0038 7.71518 20.5245 7.71518C20.0452 7.71518 19.5857 7.90713 19.2482 8.24838ZM31.1483 14.5754C30.1611 14.6613 29.4295 15.532 29.5125 16.5221C29.5214 16.6903 29.5214 16.8587 29.5125 17.0269C29.5125 23.9956 23.8787 29.6449 16.9291 29.6449H6.88048L8.03096 28.5092C8.72793 27.8062 8.72793 26.6707 8.03096 25.9676C4.75576 22.7012 3.52868 17.8978 4.83432 13.4547C6.13997 9.01152 9.76842 5.64291 14.2867 4.67925C15.948 4.34613 17.6586 4.34613 19.32 4.67925C19.9622 4.80805 20.6242 4.58349 21.0565 4.09017C21.4889 3.59686 21.6259 2.90972 21.416 2.2876C21.2062 1.66549 20.6812 1.2029 20.039 1.0741C17.8974 0.641965 15.6913 0.641965 13.5496 1.0741C6.07228 2.71077 0.743691 9.35235 0.750617 17.0269C0.765718 20.7153 2.03382 24.2885 4.34585 27.1573L1.27193 30.1676C0.761862 30.686 0.612926 31.4611 0.894426 32.1324C1.17019 32.8055 1.82253 33.2464 2.54823 33.25H16.9291C25.8643 33.25 33.1077 25.9867 33.1077 17.0269C33.1077 16.7565 33.1077 16.5041 33.1077 16.2337C33.0712 15.7517 32.8431 15.3045 32.4747 14.9926C32.1062 14.6808 31.6283 14.5305 31.1483 14.5754Z" fill="#05BF8E"/>
</svg>
