<svg width="26" height="26" viewBox="0 0 26 26" fill="none" xmlns="http://www.w3.org/2000/svg">
<path fill-rule="evenodd" clip-rule="evenodd" d="M3.90056 20.8015H9.41256C9.7581 20.8035 10.0902 20.6679 10.3356 20.4246L19.3316 11.4182L23.0236 7.80527C23.2697 7.56125 23.4081 7.22907 23.4081 6.88254C23.4081 6.53601 23.2697 6.20384 23.0236 5.95981L17.5116 0.384426C17.2675 0.138391 16.9352 0 16.5886 0C16.2419 0 15.9097 0.138391 15.6656 0.384426L11.9996 4.06236L2.97756 13.0687C2.73422 13.314 2.59856 13.646 2.60056 13.9915V19.5019C2.60056 20.2196 3.18259 20.8015 3.90056 20.8015ZM16.5885 3.14042L20.2675 6.81836L18.4215 8.66382L14.7425 4.98589L16.5885 3.14042ZM5.20047 14.5244L12.9095 6.8176L16.5885 10.4955L8.87947 18.2023H5.20047V14.5244ZM24.7005 23.4007H1.30052C0.582548 23.4007 0.000518799 23.9828 0.000518799 24.7007C0.000518799 25.4187 0.582548 26.0007 1.30052 26.0007H24.7005C25.4185 26.0007 26.0005 25.4187 26.0005 24.7007C26.0005 23.9828 25.4185 23.4007 24.7005 23.4007Z" fill="black"/>
</svg>
