<svg width="21" height="20" viewBox="0 0 21 20" fill="none" xmlns="http://www.w3.org/2000/svg">
<path fill-rule="evenodd" clip-rule="evenodd" d="M12.8011 12.1743C11.4581 13.2571 9.542 13.2571 8.19906 12.1743C7.78443 11.8297 7.16893 11.8864 6.82431 12.3011C6.47968 12.7157 6.53643 13.3312 6.95106 13.6758C9.00609 15.3913 11.994 15.3913 14.0491 13.6758C14.3173 13.4529 14.4462 13.1038 14.3872 12.76C14.3283 12.4163 14.0904 12.1301 13.7632 12.0093C13.4361 11.8885 13.0693 11.9514 12.8011 12.1743ZM7.57499 9.02511C8.11347 9.02511 8.54999 8.58859 8.54999 8.05011C8.54999 7.51163 8.11347 7.07511 7.57499 7.07511C7.03652 7.07511 6.6 7.51163 6.6 8.05011C6.6 8.58859 7.03652 9.02511 7.57499 9.02511ZM13.425 7.07511C12.8865 7.07511 12.45 7.51163 12.45 8.05011C12.45 8.58859 12.8865 9.02511 13.425 9.02511C13.9634 9.02511 14.4 8.58859 14.4 8.05011C14.4 7.51163 13.9634 7.07511 13.425 7.07511ZM10.5 0.25C5.11522 0.25 0.75 4.61522 0.75 10C0.75 15.3848 5.11522 19.75 10.5 19.75C15.8848 19.75 20.25 15.3848 20.25 10C20.25 7.41414 19.2228 4.93419 17.3943 3.10571C15.5658 1.27723 13.0859 0.25 10.5 0.25ZM10.5 17.7999C6.19218 17.7999 2.7 14.3077 2.7 9.99987C2.7 5.69204 6.19218 2.19987 10.5 2.19987C14.8078 2.19987 18.3 5.69204 18.3 9.99987C18.3 12.0686 17.4782 14.0525 16.0154 15.5153C14.5526 16.9781 12.5687 17.7999 10.5 17.7999Z" fill="#1A202C"/>
</svg>
