<svg width="24" height="13" viewBox="0 0 24 13" fill="none" xmlns="http://www.w3.org/2000/svg">
<path d="M23.2341 6.59854L23.2335 6.59917L23.2325 6.6003C21.149 8.89907 17.9867 12.375 12 12.375C6.01331 12.375 2.85101 8.89907 0.767484 6.6003L0.401535 6.93198L0.767483 6.60029L0.766596 6.59932C0.736405 6.56601 0.706389 6.53289 0.67656 6.5C0.706449 6.46704 0.736529 6.43386 0.766792 6.40047L0.767484 6.39971C2.85101 4.10093 6.01331 0.625 12 0.625C17.9867 0.625 21.149 4.10093 23.2325 6.39971L23.2327 6.39995L23.233 6.40029L23.2332 6.40045L23.2335 6.40078C23.2337 6.40096 23.2338 6.40114 23.234 6.40132C23.264 6.43442 23.2938 6.46732 23.3234 6.5C23.2942 6.53223 23.2648 6.56468 23.2352 6.59732L23.2345 6.59811L23.2341 6.59854Z" stroke="black"/>
<path d="M15.25 6.875C15.25 8.66992 13.7949 10.125 12 10.125C10.2051 10.125 8.75 8.66992 8.75 6.875C8.75 5.08008 10.2051 3.625 12 3.625C13.7949 3.625 15.25 5.08008 15.25 6.875Z" stroke="black"/>
</svg>
