<svg width="18" height="18" viewBox="0 0 18 18" fill="none" xmlns="http://www.w3.org/2000/svg">
<path d="M9 4.71875C13.4242 4.71875 15.7629 7.27782 17.3239 9C15.7629 10.7222 13.4242 13.2812 9 13.2812C4.57583 13.2812 2.23711 10.7222 0.676139 9C2.23711 7.27782 4.57583 4.71875 9 4.71875ZM0.299706 8.67471L0.327006 8.69945L0.299706 8.67471Z" stroke="black"/>
<path d="M11.3125 9.28125C11.3125 10.5584 10.2772 11.5938 9 11.5938C7.72284 11.5938 6.6875 10.5584 6.6875 9.28125C6.6875 8.00409 7.72284 6.96875 9 6.96875C10.2772 6.96875 11.3125 8.00409 11.3125 9.28125Z" stroke="black"/>
<path d="M15.1875 3.09375L2.8125 15.4688" stroke="black"/>
</svg>
