<svg width="14" height="20" viewBox="0 0 14 20" fill="none" xmlns="http://www.w3.org/2000/svg">
<path fill-rule="evenodd" clip-rule="evenodd" d="M13.003 3.175L5.125 2.52175L2.2 2.278V1.225C2.2 0.686522 1.76348 0.25 1.225 0.25C0.686522 0.25 0.25 0.686522 0.25 1.225V18.775C0.25 19.3135 0.686522 19.75 1.225 19.75C1.76348 19.75 2.2 19.3135 2.2 18.775V11.872L5.125 11.6283L13.003 10.975C13.5108 10.9342 13.9016 10.5094 13.9 10V4.15C13.9016 3.64057 13.5108 3.21575 13.003 3.175ZM4.14997 9.75602L2.19997 9.91201V4.23752L4.14997 4.39352V9.75602ZM8.05 9.42452L6.1 9.59027V4.55926L8.05 4.72501V9.42452ZM11.95 9.10276L10 9.26851V4.88101L11.95 5.04676V9.10276Z" fill="#EB5757"/>
</svg>
