<svg width="15" height="20" viewBox="0 0 15 20" fill="none" xmlns="http://www.w3.org/2000/svg">
<path fill-rule="evenodd" clip-rule="evenodd" d="M13.2979 3.175L5.41992 2.52175L2.49492 2.278V1.225C2.49492 0.686522 2.0584 0.25 1.51992 0.25C0.981444 0.25 0.544922 0.686522 0.544922 1.225V18.775C0.544922 19.3135 0.981444 19.75 1.51992 19.75C2.0584 19.75 2.49492 19.3135 2.49492 18.775V11.872L5.41992 11.6283L13.2979 10.975C13.8057 10.9342 14.1966 10.5094 14.1949 10V4.15C14.1966 3.64057 13.8057 3.21575 13.2979 3.175ZM4.44489 9.75602L2.49489 9.91201V4.23752L4.44489 4.39352V9.75602ZM8.34493 9.42452L6.39493 9.59027V4.55926L8.34493 4.72501V9.42452ZM12.245 9.10276L10.2949 9.26851V4.88101L12.245 5.04676V9.10276Z" fill="#EB5757"/>
</svg>
