<svg width="32" height="32" viewBox="0 0 32 32" fill="none" xmlns="http://www.w3.org/2000/svg">
<circle cx="16" cy="16" r="15" stroke="black" stroke-width="2"/>
<path d="M16.0447 9C14.343 9 12.8624 9.64583 12.0005 10.6458L13.1718 11.7292C13.8789 10.9375 14.8955 10.5 15.9342 10.5C17.3265 10.5 18.2325 11.2292 18.2325 12.2917C18.2325 13.6042 16.9729 14.4792 15.0281 14.5833V18.2917H16.7298L16.7519 15.5625C18.7408 15.0625 20.0005 13.8125 20.0005 12.1458C20.0005 10.2708 18.4093 9 16.0447 9ZM15.8458 21.4375C15.0281 21.4375 14.4093 22 14.4093 22.7083C14.4093 23.4583 15.0281 24 15.8458 24C16.6414 24 17.2602 23.4583 17.2602 22.7083C17.2602 22 16.6414 21.4375 15.8458 21.4375Z" fill="black"/>
</svg>
