<svg width="20" height="20" viewBox="0 0 20 20" fill="none" xmlns="http://www.w3.org/2000/svg">
<mask id="path-1-inside-1" fill="white">
<path fill-rule="evenodd" clip-rule="evenodd" d="M3 9.09092C1.34315 9.09092 0 10.4341 0 12.0909V17C0 18.6569 1.34315 20 3 20H3.75L3.75 9.09092H3ZM5 8.65093L5 20H12.372C15.3579 20 17.8894 17.8044 18.3117 14.8485L18.9048 10.697C19.1629 8.88971 17.7606 7.27274 15.9349 7.27274H13.1212C12.5689 7.27274 12.1212 6.82503 12.1212 6.27274V3.98161C12.1212 2.65573 11.3721 1.44364 10.1862 0.850686C9.27034 0.392757 8.15869 0.815403 7.7784 1.76613L5.09993 8.46231C5.07306 8.5295 5.03942 8.59259 5 8.65093Z"/>
</mask>
<path fill-rule="evenodd" clip-rule="evenodd" d="M3 9.09092C1.34315 9.09092 0 10.4341 0 12.0909V17C0 18.6569 1.34315 20 3 20H3.75L3.75 9.09092H3ZM5 8.65093L5 20H12.372C15.3579 20 17.8894 17.8044 18.3117 14.8485L18.9048 10.697C19.1629 8.88971 17.7606 7.27274 15.9349 7.27274H13.1212C12.5689 7.27274 12.1212 6.82503 12.1212 6.27274V3.98161C12.1212 2.65573 11.3721 1.44364 10.1862 0.850686C9.27034 0.392757 8.15869 0.815403 7.7784 1.76613L5.09993 8.46231C5.07306 8.5295 5.03942 8.59259 5 8.65093Z" fill="black"/>
<path d="M3.75 20V22H5.75L5.75 20L3.75 20ZM3.75 9.09092L5.75 9.09092L5.75 7.09092H3.75V9.09092ZM5 8.65093L3.34286 7.53116L3 8.03855L3 8.65093L5 8.65093ZM5 20L3 20L3 22H5V20ZM18.3117 14.8485L20.2916 15.1314L20.2916 15.1314L18.3117 14.8485ZM18.9048 10.697L16.9249 10.4142L16.9249 10.4142L18.9048 10.697ZM10.1862 0.850686L9.29177 2.63954L9.29177 2.63954L10.1862 0.850686ZM7.7784 1.76613L5.92145 1.02334L5.92145 1.02335L7.7784 1.76613ZM5.09993 8.46231L6.95688 9.2051L6.95688 9.2051L5.09993 8.46231ZM2 12.0909C2 11.5386 2.44772 11.0909 3 11.0909V7.09092C0.238576 7.09092 -2 9.3295 -2 12.0909H2ZM2 17V12.0909H-2V17H2ZM3 18C2.44772 18 2 17.5523 2 17H-2C-2 19.7614 0.238578 22 3 22V18ZM3.75 18H3V22H3.75V18ZM5.75 20L5.75 9.09092L1.75 9.09092L1.75 20L5.75 20ZM3 11.0909H3.75V7.09092H3V11.0909ZM3 8.65093L3 20L7 20L7 8.65093L3 8.65093ZM12.372 18H5V22H12.372V18ZM16.3318 14.5657C16.0503 16.5363 14.3626 18 12.372 18V22C16.3532 22 19.7286 19.0726 20.2916 15.1314L16.3318 14.5657ZM16.9249 10.4142L16.3318 14.5657L20.2916 15.1314L20.8847 10.9798L16.9249 10.4142ZM15.9349 9.27274C16.5435 9.27274 17.0109 9.81173 16.9249 10.4142L20.8847 10.9798C21.315 7.96768 18.9777 5.27274 15.9349 5.27274V9.27274ZM13.1212 9.27274H15.9349V5.27274H13.1212V9.27274ZM10.1212 6.27274C10.1212 7.9296 11.4644 9.27274 13.1212 9.27274V5.27274C13.6735 5.27274 14.1212 5.72046 14.1212 6.27274H10.1212ZM10.1212 3.98161V6.27274H14.1212V3.98161H10.1212ZM9.29177 2.63954C9.80011 2.89371 10.1212 3.41327 10.1212 3.98161H14.1212C14.1212 1.89818 12.9441 -0.00643049 11.0806 -0.938168L9.29177 2.63954ZM9.63536 2.50891C9.58109 2.64457 9.42246 2.70489 9.29177 2.63954L11.0806 -0.938168C9.11821 -1.91937 6.7363 -1.01377 5.92145 1.02334L9.63536 2.50891ZM6.95688 9.2051L9.63536 2.50891L5.92145 1.02335L3.24298 7.71953L6.95688 9.2051ZM6.65714 9.7707C6.77571 9.59522 6.87657 9.40587 6.95688 9.2051L3.24298 7.71953C3.26954 7.65312 3.30313 7.58995 3.34286 7.53116L6.65714 9.7707Z" fill="black" mask="url(#path-1-inside-1)"/>
</svg>
