<svg width="23" height="24" viewBox="0 0 23 24" fill="none" xmlns="http://www.w3.org/2000/svg">
<path d="M1 13.9091C1 12.8045 1.89543 11.9091 3 11.9091H5.14115C5.95896 11.9091 6.69438 11.4112 6.9981 10.6519L10.303 2.38953C10.5203 1.84633 11.1555 1.60485 11.6787 1.86649L11.8871 1.97067C12.9034 2.47885 13.5455 3.51764 13.5455 4.65395V7.72727C13.5455 8.83184 14.4409 9.72727 15.5455 9.72727H19.8137C21.0308 9.72727 21.9657 10.8052 21.7936 12.0101L20.8369 18.7071C20.485 21.1704 18.3754 23 15.8871 23H3C1.89543 23 1 22.1046 1 21V13.9091Z" stroke="black" stroke-width="2"/>
</svg>
