<svg width="24" height="24" viewBox="0 0 24 24" fill="none" xmlns="http://www.w3.org/2000/svg">
<mask id="path-1-inside-1" fill="white">
<path fill-rule="evenodd" clip-rule="evenodd" d="M3 10.9091C1.34315 10.9091 0 12.2522 0 13.9091V21C0 22.6568 1.34315 24 3 24H4.5L4.5 10.9091H3ZM6 10.4214L6 24H15.8871C18.873 24 21.4046 21.8044 21.8268 18.8485L22.7835 12.1515C23.0417 10.3442 21.6393 8.72725 19.8137 8.72725H15.5455C14.9932 8.72725 14.5455 8.27954 14.5455 7.72725V4.65394C14.5455 3.13885 13.6894 1.75379 12.3343 1.07623L12.1259 0.972044C11.0794 0.448769 9.80912 0.931725 9.37456 2.01812L6.06963 10.2805C6.04992 10.3297 6.02659 10.3768 6 10.4214Z"/>
</mask>
<path fill-rule="evenodd" clip-rule="evenodd" d="M3 10.9091C1.34315 10.9091 0 12.2522 0 13.9091V21C0 22.6568 1.34315 24 3 24H4.5L4.5 10.9091H3ZM6 10.4214L6 24H15.8871C18.873 24 21.4046 21.8044 21.8268 18.8485L22.7835 12.1515C23.0417 10.3442 21.6393 8.72725 19.8137 8.72725H15.5455C14.9932 8.72725 14.5455 8.27954 14.5455 7.72725V4.65394C14.5455 3.13885 13.6894 1.75379 12.3343 1.07623L12.1259 0.972044C11.0794 0.448769 9.80912 0.931725 9.37456 2.01812L6.06963 10.2805C6.04992 10.3297 6.02659 10.3768 6 10.4214Z" fill="black"/>
<path d="M4.5 24V26H6.5V24H4.5ZM4.5 10.9091H6.5V8.90907H4.5V10.9091ZM6 10.4214L4.2821 9.39725L4 9.87046V10.4214H6ZM6 24H4V26H6V24ZM21.8268 18.8485L23.8067 19.1314V19.1314L21.8268 18.8485ZM22.7835 12.1515L20.8036 11.8687V11.8687L22.7835 12.1515ZM12.3343 1.07623L11.4399 2.86508L11.4399 2.86508L12.3343 1.07623ZM12.1259 0.972044L13.0204 -0.816809L13.0204 -0.81681L12.1259 0.972044ZM9.37456 2.01812L7.51761 1.27534L9.37456 2.01812ZM6.06963 10.2805L7.92657 11.0233L7.92658 11.0232L6.06963 10.2805ZM2 13.9091C2 13.3568 2.44771 12.9091 3 12.9091V8.90907C0.238576 8.90907 -2 11.1476 -2 13.9091H2ZM2 21V13.9091H-2V21H2ZM3 22C2.44772 22 2 21.5523 2 21H-2C-2 23.7614 0.238583 26 3 26V22ZM4.5 22H3V26H4.5V22ZM6.5 24L6.5 10.9091H2.5L2.5 24H6.5ZM3 12.9091H4.5V8.90907H3V12.9091ZM4 10.4214L4 24H8L8 10.4214H4ZM15.8871 22H6V26H15.8871V22ZM19.8469 18.5657C19.5654 20.5363 17.8777 22 15.8871 22V26C19.8683 26 23.2437 23.0725 23.8067 19.1314L19.8469 18.5657ZM20.8036 11.8687L19.8469 18.5657L23.8067 19.1314L24.7634 12.4344L20.8036 11.8687ZM19.8137 10.7273C20.4222 10.7273 20.8897 11.2662 20.8036 11.8687L24.7634 12.4344C25.1938 9.4222 22.8564 6.72725 19.8137 6.72725V10.7273ZM15.5455 10.7273H19.8137V6.72725H15.5455V10.7273ZM12.5455 7.72725C12.5455 9.38411 13.8886 10.7273 15.5455 10.7273V6.72725C16.0977 6.72725 16.5455 7.17497 16.5455 7.72725H12.5455ZM12.5455 4.65394V7.72725H16.5455V4.65394H12.5455ZM11.4399 2.86508C12.1174 3.20387 12.5455 3.89639 12.5455 4.65394H16.5455C16.5455 2.3813 15.2614 0.303724 13.2287 -0.712628L11.4399 2.86508ZM11.2315 2.7609L11.4399 2.86508L13.2287 -0.712627L13.0204 -0.816809L11.2315 2.7609ZM11.2315 2.7609V2.7609L13.0204 -0.81681C10.9273 -1.86336 8.38672 -0.897448 7.51761 1.27534L11.2315 2.7609ZM7.92658 11.0232L11.2315 2.7609L7.51761 1.27534L4.21267 9.53768L7.92658 11.0232ZM7.7179 11.4455C7.7978 11.3115 7.86772 11.1704 7.92657 11.0233L4.21268 9.53767C4.23212 9.48906 4.25537 9.44209 4.2821 9.39725L7.7179 11.4455Z" fill="black" mask="url(#path-1-inside-1)"/>
</svg>
