<svg width="20" height="20" viewBox="0 0 20 20" fill="none" xmlns="http://www.w3.org/2000/svg">
<path d="M17.9148 10.5556L17.3217 14.7071C16.9698 17.1703 14.8602 19 12.372 19H3C1.89543 19 1 18.1046 1 17V12.0909C1 10.9863 1.89543 10.0909 3 10.0909H4.17145C4.98926 10.0909 5.72468 9.59301 6.02841 8.83369L8.70688 2.1375C8.86989 1.72998 9.3464 1.54881 9.73898 1.7451C10.5861 2.16866 11.1212 3.03449 11.1212 3.9816V6.27273C11.1212 7.3773 12.0166 8.27273 13.1212 8.27273H15.9349C17.152 8.27273 18.0869 9.35071 17.9148 10.5556Z" stroke="black" stroke-width="2"/>
<path d="M4.375 10L4.375 19.0909" stroke="black" stroke-width="2"/>
</svg>
