<svg width="16" height="16" viewBox="0 0 16 16" fill="none" xmlns="http://www.w3.org/2000/svg">
<path fill-rule="evenodd" clip-rule="evenodd" d="M1.05342 5.74757L7.6343 9.47771C7.86054 9.60585 8.13927 9.60585 8.36551 9.47771L14.9464 5.74757C15.1713 5.6202 15.3104 5.38539 15.312 5.13066C15.313 4.87336 15.1735 4.63522 14.9464 4.50658L8.36551 0.783605C8.13927 0.655465 7.86054 0.655465 7.6343 0.783605L1.05342 4.50658C0.826284 4.63522 0.686777 4.87336 0.687818 5.13066C0.689386 5.38539 0.828544 5.6202 1.05342 5.74757ZM8 2.26127L13.1185 5.13061L8 7.99996L2.88154 5.13061L8 2.26127ZM14.2153 7.40463L8 10.8694L1.78472 7.37594C1.61616 7.28014 1.41561 7.25429 1.22754 7.30412C1.03948 7.35394 0.879452 7.47533 0.782968 7.64135C0.584526 7.98422 0.70536 8.41994 1.05352 8.61693L7.6344 12.3471C7.86063 12.4752 8.13937 12.4752 8.3656 12.3471L14.9465 8.61693C15.2946 8.41994 15.4155 7.98422 15.217 7.64135C15.1205 7.47533 14.9605 7.35394 14.7725 7.30412C14.5844 7.25429 14.3838 7.28014 14.2153 7.37594V7.40463ZM14.2153 10.274L8 13.7387L1.78472 10.2453C1.61616 10.1495 1.41561 10.1237 1.22754 10.1735C1.03948 10.2233 0.879452 10.3447 0.782968 10.5107C0.584526 10.8536 0.70536 11.2893 1.05352 11.4863L7.6344 15.2164C7.86063 15.3446 8.13937 15.3446 8.3656 15.2164L14.9465 11.4863C15.2946 11.2893 15.4155 10.8536 15.217 10.5107C15.1205 10.3447 14.9605 10.2233 14.7725 10.1735C14.5844 10.1237 14.3838 10.1495 14.2153 10.2453V10.274Z" fill="#1A1919"/>
</svg>
