<svg width="34" height="35" viewBox="0 0 34 35" fill="none" xmlns="http://www.w3.org/2000/svg">
<path fill-rule="evenodd" clip-rule="evenodd" d="M23.8086 5.68362C24.6718 6.17372 25.7688 5.87529 26.2647 5.01544C26.6701 4.29992 27.5078 3.94872 28.3023 4.16115C29.0968 4.37358 29.6475 5.09599 29.6417 5.91839C29.6417 6.91576 28.8332 7.72428 27.8358 7.72428C26.8384 7.72428 26.0299 8.53281 26.0299 9.53018C26.0299 10.5275 26.8384 11.3361 27.8358 11.3361C30.4645 11.3344 32.7128 9.44587 33.1681 6.85688C33.6235 4.26789 32.1546 1.72558 29.6842 0.827028C27.2138 -0.0715246 24.4548 0.932991 23.1405 3.20954C22.8993 3.62584 22.8342 4.12117 22.9597 4.58564C23.0851 5.05011 23.3907 5.44533 23.8086 5.68362ZM31.5741 18.5594C30.5871 18.4313 29.6825 19.1259 29.5515 20.1125C28.7672 26.4472 23.3836 31.2034 17.0005 31.2007H6.90549L8.07933 30.0268C8.77952 29.3225 8.77952 28.1849 8.07933 27.4805C4.47874 23.8658 3.40406 18.4409 5.35459 13.7265C7.30512 9.01205 11.8985 5.93228 17.0005 5.91811C17.9978 5.91811 18.8064 5.10958 18.8064 4.11221C18.8064 3.11484 17.9978 2.30631 17.0005 2.30631C10.7701 2.3323 5.10284 5.91766 2.41073 11.5365C-0.281376 17.1553 0.475477 23.8186 4.35918 28.6905L1.27109 31.7244C0.758681 32.2437 0.609058 33.0203 0.891856 33.6928C1.16889 34.3672 1.82424 34.8088 2.55328 34.8125H17.0005C25.1886 34.8136 32.0991 28.7234 33.1271 20.6001C33.1938 20.1232 33.0673 19.6394 32.7757 19.2562C32.4841 18.873 32.0515 18.6222 31.5741 18.5594ZM28.522 13.2686C28.1932 13.1231 27.8285 13.0791 27.4746 13.1422L27.1495 13.2505L26.8245 13.4131L26.5536 13.6478C26.3911 13.8143 26.2624 14.0105 26.1743 14.2257C26.0676 14.451 26.0179 14.6991 26.0299 14.9481C26.0246 15.1889 26.0676 15.4284 26.1563 15.6524C26.2497 15.8691 26.3847 16.0655 26.5536 16.2303C26.8944 16.5683 27.3557 16.7568 27.8358 16.754C28.8331 16.754 29.6417 15.9455 29.6417 14.9481C29.6478 14.7112 29.5983 14.4762 29.4972 14.2618C29.3031 13.8279 28.9559 13.4807 28.522 13.2867V13.2686Z" fill="#2F80ED"/>
</svg>
