<svg width="32" height="32" viewBox="0 0 32 32" fill="none" xmlns="http://www.w3.org/2000/svg">
<path d="M0 16C0 7.16344 7.16344 0 16 0C24.8366 0 32 7.16344 32 16C32 24.8366 24.8366 32 16 32C7.16344 32 0 24.8366 0 16Z" fill="white"/>
<path d="M22.5595 9.37773C20.8059 7.63072 18.4732 6.66799 15.9904 6.66699C13.5133 6.66699 11.1768 7.62887 9.4117 9.37545C7.64347 11.125 6.66878 13.4501 6.6665 15.9139V15.9167V15.9184C6.66679 17.4097 7.05857 18.914 7.80227 20.2872L6.692 25.3337L11.7966 24.1725C13.0894 24.8241 14.532 25.1676 15.9869 25.1682H15.9906C18.4673 25.1682 20.8038 24.2062 22.5692 22.4594C24.339 20.7084 25.3141 18.3864 25.3152 15.921C25.3159 13.473 24.3374 11.1492 22.5595 9.37773ZM15.9904 23.7113H15.9872C14.6808 23.7107 13.3864 23.3827 12.2441 22.7625L12.0027 22.6315L8.60834 23.4035L9.34562 20.0528L9.20349 19.8077C8.49683 18.589 8.12341 17.2438 8.12341 15.9169C8.12612 11.6221 11.6549 8.1239 15.9902 8.1239C18.0845 8.12476 20.0524 8.93667 21.5313 10.4098C23.0325 11.9057 23.8589 13.8628 23.8582 15.9206C23.8565 20.2164 20.327 23.7113 15.9904 23.7113Z" fill="#25D366"/>
<path d="M13.4534 11.8389H13.0447C12.9024 11.8389 12.6714 11.8921 12.476 12.1048C12.2805 12.3175 11.7295 12.8318 11.7295 13.8777C11.7295 14.9236 12.4938 15.9342 12.6004 16.0762C12.707 16.218 14.0758 18.4328 16.2436 19.2849C18.0453 19.993 18.412 19.8522 18.803 19.8167C19.1941 19.7814 20.0649 19.3026 20.2427 18.8063C20.4204 18.3099 20.4204 17.8844 20.3671 17.7955C20.3137 17.707 20.1714 17.6538 19.9583 17.5476C19.7449 17.4412 18.6996 16.9183 18.504 16.8472C18.3085 16.7764 18.1664 16.7409 18.0241 16.9539C17.8818 17.1663 17.463 17.658 17.3385 17.7998C17.2142 17.9418 17.0897 17.9596 16.8764 17.8532C16.663 17.7465 15.9832 17.5181 15.1684 16.7941C14.5342 16.2305 14.0942 15.5119 13.9697 15.2991C13.8454 15.0865 13.9564 14.9714 14.0634 14.8653C14.1592 14.7702 14.2887 14.64 14.3954 14.516C14.5019 14.3918 14.5322 14.3032 14.6034 14.1614C14.6745 14.0195 14.6389 13.8953 14.5856 13.7891C14.5322 13.6827 14.1229 12.6316 13.9332 12.2111H13.9334C13.7736 11.8571 13.6054 11.8451 13.4534 11.8389Z" fill="#25D366"/>
</svg>
