<svg width="32" height="32" viewBox="0 0 32 32" fill="none" xmlns="http://www.w3.org/2000/svg">
<g clip-path="url(#clip0)">
<path d="M0 16C0 7.16344 7.16344 0 16 0C24.8366 0 32 7.16344 32 16C32 24.8366 24.8366 32 16 32C7.16344 32 0 24.8366 0 16Z" fill="white"/>
<path d="M23.7445 6.42161L19.0361 6.40039C13.8102 6.40039 12.6231 10.4939 12.6231 13.1073V16.7622H9.6001V22.4108H12.6231V38.4004H18.98V22.4108H23.2675L23.8223 16.7676H18.98V13.4437C18.98 12.197 19.7679 11.9039 20.3285 11.9039H23.7445V6.42161Z" fill="#227BEF"/>
</g>
<defs>
<clipPath id="clip0">
<path d="M0 16C0 7.16344 7.16344 0 16 0C24.8366 0 32 7.16344 32 16C32 24.8366 24.8366 32 16 32C7.16344 32 0 24.8366 0 16Z" fill="white"/>
</clipPath>
</defs>
</svg>
