<svg width="32" height="32" viewBox="0 0 32 32" fill="none" xmlns="http://www.w3.org/2000/svg">
<path d="M0 16C0 7.16344 7.16344 0 16 0C24.8366 0 32 7.16344 32 16C32 24.8366 24.8366 32 16 32C7.16344 32 0 24.8366 0 16Z" fill="white"/>
<path fill-rule="evenodd" clip-rule="evenodd" d="M15.7629 18.4107L12.7452 21.4285C11.9858 22.1614 10.7824 22.1614 10.0229 21.4285C9.66103 21.068 9.45758 20.5782 9.45758 20.0674C9.45758 19.5566 9.66103 19.0668 10.0229 18.7063L13.0407 15.6885C13.3457 15.3835 13.3457 14.889 13.0407 14.5841C12.7357 14.2791 12.2413 14.2791 11.9363 14.5841L8.9185 17.6096C7.65536 18.9845 7.70037 21.1107 9.02057 22.4309C10.3408 23.7511 12.4669 23.7961 13.8418 22.5329L16.8674 19.5152C17.1724 19.2102 17.1724 18.7157 16.8674 18.4107C16.5624 18.1057 16.0679 18.1057 15.7629 18.4107ZM22.4363 9.01516C21.0743 7.66161 18.875 7.66161 17.513 9.01516L14.4874 12.0329C14.2901 12.2302 14.2131 12.5178 14.2853 12.7873C14.3575 13.0568 14.568 13.2673 14.8375 13.3395C15.107 13.4117 15.3946 13.3347 15.5918 13.1374L18.6096 10.1196C19.369 9.38669 20.5724 9.38669 21.3318 10.1196C21.6938 10.4801 21.8972 10.9699 21.8972 11.4807C21.8972 11.9915 21.6938 12.4813 21.3318 12.8418L18.3141 15.8596C18.1668 16.0056 18.084 16.2044 18.084 16.4118C18.084 16.6192 18.1668 16.818 18.3141 16.9641C18.4601 17.1113 18.6589 17.1941 18.8663 17.1941C19.0737 17.1941 19.2725 17.1113 19.4185 16.9641L22.4363 13.9385C23.7898 12.5765 23.7898 10.3772 22.4363 9.01516ZM13.2118 18.2396C13.3586 18.3852 13.5573 18.4664 13.7641 18.4652C13.9708 18.4664 14.1695 18.3852 14.3163 18.2396L18.143 14.413C18.4479 14.108 18.4479 13.6135 18.143 13.3085C17.838 13.0035 17.3435 13.0035 17.0385 13.3085L13.2118 17.1352C13.0646 17.2812 12.9818 17.48 12.9818 17.6874C12.9818 17.8948 13.0646 18.0936 13.2118 18.2396Z" fill="#1A202C"/>
</svg>
