<svg width="32" height="32" viewBox="0 0 32 32" fill="none" xmlns="http://www.w3.org/2000/svg">
<path d="M0 16C0 7.16344 7.16344 0 16 0C24.8366 0 32 7.16344 32 16C32 24.8366 24.8366 32 16 32C7.16344 32 0 24.8366 0 16Z" fill="white"/>
<path d="M21.2694 10.3959C20.6797 9.74191 19.8395 9.33301 18.9092 9.33301C17.1241 9.33301 15.6762 10.8404 15.6762 12.699C15.6762 12.963 15.7049 13.2196 15.7603 13.4661C13.0735 13.3258 10.6914 11.9859 9.09674 9.94891C8.81854 10.446 8.65907 11.0246 8.65907 11.6415C8.65907 12.8088 9.23014 13.8394 10.0971 14.443C9.56747 14.4255 9.06857 14.2743 8.63299 14.0217C8.63253 14.036 8.63253 14.0503 8.63253 14.0644C8.63253 15.6951 9.74743 17.0554 11.2262 17.3644C10.9552 17.4415 10.6691 17.4827 10.3746 17.4827C10.1658 17.4827 9.96347 17.4616 9.76605 17.4226C10.1776 18.7596 11.3712 19.7328 12.7862 19.7599C11.6795 20.6628 10.2859 21.2009 8.77081 21.2009C8.51031 21.2009 8.25236 21.1851 8 21.1539C9.43012 22.1091 11.1298 22.6663 12.9555 22.6663C18.902 22.6663 22.1538 17.5377 22.1538 13.089C22.1538 12.9433 22.1508 12.7979 22.1442 12.6537C22.7763 12.1791 23.3243 11.5865 23.7576 10.9114C23.1779 11.179 22.5544 11.3603 21.9005 11.4413C22.5682 11.0246 23.0806 10.3656 23.3225 9.57927C22.6976 9.96515 22.0057 10.2451 21.2694 10.3959Z" fill="#2AA3EF"/>
</svg>
