<svg width="14" height="8" viewBox="0 0 14 8" fill="none" xmlns="http://www.w3.org/2000/svg">
<path fill-rule="evenodd" clip-rule="evenodd" d="M13.448 0.402883C13.3821 0.244102 13.2559 0.117925 13.0971 0.0519849C13.019 0.018688 12.9351 0.00102669 12.8502 0H9.60113C9.24225 0 8.95132 0.290931 8.95132 0.649812C8.95132 1.00869 9.24225 1.29962 9.60113 1.29962H11.2841L7.6517 4.93207L5.51382 2.78769C5.3918 2.66468 5.22571 2.59548 5.05245 2.59548C4.87919 2.59548 4.7131 2.66468 4.59108 2.78769L0.692213 6.68656C0.569196 6.80858 0.5 6.97467 0.5 7.14793C0.5 7.32119 0.569196 7.48728 0.692213 7.6093C0.814226 7.73231 0.980315 7.80151 1.15358 7.80151C1.32684 7.80151 1.49293 7.73231 1.61495 7.6093L5.05245 4.16529L7.19033 6.30967C7.31234 6.43269 7.47843 6.50189 7.6517 6.50189C7.82496 6.50189 7.99105 6.43269 8.11306 6.30967L12.2004 2.21586V3.89887C12.2004 4.25775 12.4913 4.54868 12.8502 4.54868C13.2091 4.54868 13.5 4.25775 13.5 3.89887V0.649812C13.499 0.564896 13.4813 0.481005 13.448 0.402883Z" fill="black"/>
</svg>
