<svg width="16" height="16" viewBox="0 0 16 16" fill="none" xmlns="http://www.w3.org/2000/svg">
<path fill-rule="evenodd" clip-rule="evenodd" d="M4.34373 3.61248H3.61248V1.41875C3.61248 1.01489 3.28509 0.6875 2.88124 0.6875C2.47738 0.6875 2.14999 1.01489 2.14999 1.41875V3.61248H1.41875C1.01489 3.61248 0.6875 3.93987 0.6875 4.34373C0.6875 4.74758 1.01489 5.07497 1.41875 5.07497H4.34373C4.74758 5.07497 5.07497 4.74758 5.07497 4.34373C5.07497 3.93987 4.74758 3.61248 4.34373 3.61248ZM2.88123 6.53738C2.47737 6.53738 2.14998 6.86477 2.14998 7.26862V14.5811C2.14998 14.9849 2.47737 15.3123 2.88123 15.3123C3.28508 15.3123 3.61247 14.9849 3.61247 14.5811V7.26862C3.61247 6.86477 3.28508 6.53738 2.88123 6.53738ZM7.99995 12.3875C7.59609 12.3875 7.2687 12.7149 7.2687 13.1188V14.5813C7.2687 14.9851 7.59609 15.3125 7.99995 15.3125C8.40381 15.3125 8.7312 14.9851 8.7312 14.5813V13.1188C8.7312 12.7149 8.40381 12.3875 7.99995 12.3875ZM14.5812 6.53746H13.8499V1.41875C13.8499 1.01489 13.5225 0.6875 13.1187 0.6875C12.7148 0.6875 12.3874 1.01489 12.3874 1.41875V6.53746H11.6562C11.2523 6.53746 10.9249 6.86485 10.9249 7.26871C10.9249 7.67256 11.2523 7.99996 11.6562 7.99996H14.5812C14.985 7.99996 15.3124 7.67256 15.3124 7.26871C15.3124 6.86485 14.985 6.53746 14.5812 6.53746ZM13.1187 9.46247C12.7148 9.46247 12.3875 9.78986 12.3875 10.1937V14.5812C12.3875 14.985 12.7148 15.3124 13.1187 15.3124C13.5226 15.3124 13.8499 14.985 13.8499 14.5812V10.1937C13.8499 9.78986 13.5226 9.46247 13.1187 9.46247ZM9.46248 9.46245H8.73123V1.41875C8.73123 1.01489 8.40384 0.6875 7.99998 0.6875C7.59613 0.6875 7.26874 1.01489 7.26874 1.41875V9.46245H6.53749C6.13364 9.46245 5.80625 9.78984 5.80625 10.1937C5.80625 10.5975 6.13364 10.9249 6.53749 10.9249H9.46248C9.86633 10.9249 10.1937 10.5975 10.1937 10.1937C10.1937 9.78984 9.86633 9.46245 9.46248 9.46245Z" fill="#1A1919"/>
</svg>
