<svg width="17" height="16" viewBox="0 0 17 16" fill="none" xmlns="http://www.w3.org/2000/svg">
<path fill-rule="evenodd" clip-rule="evenodd" d="M16.9602 13.3498L16.1783 10.3314L13.7151 1.26846C13.6043 0.852238 13.1777 0.604006 12.7611 0.713266L9.73492 1.49523C9.58891 1.33342 9.38201 1.23989 9.16408 1.23718H1.34446C0.912596 1.23718 0.5625 1.58728 0.5625 2.01914V14.5305C0.5625 14.9624 0.912596 15.3125 1.34446 15.3125H9.16408C9.59595 15.3125 9.94605 14.9624 9.94605 14.5305V8.27484L11.6664 14.7026C11.7607 15.0538 12.0848 15.2937 12.4483 15.2812C12.5159 15.2889 12.5841 15.2889 12.6516 15.2812L16.4285 14.2725C16.6302 14.2186 16.8019 14.0862 16.9055 13.905C16.988 13.732 17.0074 13.5356 16.9602 13.3498ZM4.44885 13.7797H2.10297V12.2158H4.44885V13.7797ZM4.44885 10.652H2.10297V5.96021H4.44885V10.652ZM4.44885 4.39615H2.10297V2.83223H4.44885V4.39615ZM8.35865 13.7797H6.01276V12.2158H8.35865V13.7797ZM8.35865 10.652H6.01276V5.96021H8.35865V10.652ZM8.35865 4.39615H6.01276V2.83223H8.35865V4.39615ZM10.1181 3.03575L12.3858 2.42582L12.7924 3.935L10.5247 4.54493L10.1181 3.03575ZM12.1434 10.5894L10.9313 6.05401L13.199 5.44408L14.411 9.97946L12.1434 10.5894ZM12.9253 13.6077L12.5187 12.0985L14.7864 11.4886L15.193 12.9977L12.9253 13.6077Z" fill="#1A1919"/>
</svg>
